%TF.GenerationSoftware,KiCad,Pcbnew,8.0.3*%
%TF.CreationDate,2025-09-27T20:00:00+12:00*%
%TF.ProjectId,aircon-control,61697263-6f6e-42d6-936f-6e74726f6c2e,rev?*%
%TF.SameCoordinates,Original*%
%TF.FileFunction,Drillmap*%
%TF.FilePolarity,Positive*%
%FSLAX45Y45*%
G04 Gerber Fmt 4.5, Leading zero omitted, Abs format (unit mm)*
G04 Created by KiCad (PCBNEW 8.0.3) date 2025-09-27 20:00:00*
%MOMM*%
%LPD*%
G01*
G04 APERTURE LIST*
%ADD10C,0.050000*%
%ADD11C,0.200000*%
%ADD12C,0.100000*%
%ADD13C,0.110000*%
%ADD14C,0.119000*%
%ADD15C,0.120000*%
G04 APERTURE END LIST*
D10*
X18300000Y-7800000D02*
X18300000Y-12000000D01*
X12700000Y-12200000D02*
G75*
G02*
X12500000Y-12000000I0J200000D01*
G01*
X18100000Y-12200000D02*
X12700000Y-12200000D01*
X12500000Y-12000000D02*
X12500000Y-7800000D01*
X12700000Y-7600000D02*
X18100000Y-7600000D01*
X18300000Y-12000000D02*
G75*
G02*
X18100000Y-12200000I-200000J0D01*
G01*
X18100000Y-7600000D02*
G75*
G02*
X18300000Y-7800000I0J-200000D01*
G01*
X12500000Y-7800000D02*
G75*
G02*
X12700000Y-7600000I200000J0D01*
G01*
D11*
D12*
X12865000Y-8580000D02*
X12895000Y-8610000D01*
X12895000Y-8580000D02*
X12865000Y-8610000D01*
X13525000Y-9627000D02*
X13555000Y-9657000D01*
X13555000Y-9627000D02*
X13525000Y-9657000D01*
X13645000Y-8520000D02*
X13675000Y-8550000D01*
X13675000Y-8520000D02*
X13645000Y-8550000D01*
X13900000Y-9335000D02*
X13930000Y-9365000D01*
X13930000Y-9335000D02*
X13900000Y-9365000D01*
X13940000Y-9277000D02*
X13970000Y-9307000D01*
X13970000Y-9277000D02*
X13940000Y-9307000D01*
X13965000Y-11355000D02*
X13995000Y-11385000D01*
X13995000Y-11355000D02*
X13965000Y-11385000D01*
X13970000Y-9027000D02*
X14000000Y-9057000D01*
X14000000Y-9027000D02*
X13970000Y-9057000D01*
X13970000Y-9117000D02*
X14000000Y-9147000D01*
X14000000Y-9117000D02*
X13970000Y-9147000D01*
X13970000Y-9207000D02*
X14000000Y-9237000D01*
X14000000Y-9207000D02*
X13970000Y-9237000D01*
X13995000Y-10475000D02*
X14025000Y-10505000D01*
X14025000Y-10475000D02*
X13995000Y-10505000D01*
X13995000Y-10565000D02*
X14025000Y-10595000D01*
X14025000Y-10565000D02*
X13995000Y-10595000D01*
X13995000Y-10645000D02*
X14025000Y-10675000D01*
X14025000Y-10645000D02*
X13995000Y-10675000D01*
X13995000Y-10735000D02*
X14025000Y-10765000D01*
X14025000Y-10735000D02*
X13995000Y-10765000D01*
X14055000Y-9205000D02*
X14085000Y-9235000D01*
X14085000Y-9205000D02*
X14055000Y-9235000D01*
X14075000Y-10475000D02*
X14105000Y-10505000D01*
X14105000Y-10475000D02*
X14075000Y-10505000D01*
X14135000Y-9205000D02*
X14165000Y-9235000D01*
X14165000Y-9205000D02*
X14135000Y-9235000D01*
X14155000Y-10475000D02*
X14185000Y-10505000D01*
X14185000Y-10475000D02*
X14155000Y-10505000D01*
X14245000Y-11495000D02*
X14275000Y-11525000D01*
X14275000Y-11495000D02*
X14245000Y-11525000D01*
X14295000Y-9755000D02*
X14325000Y-9785000D01*
X14325000Y-9755000D02*
X14295000Y-9785000D01*
X14295000Y-9885000D02*
X14325000Y-9915000D01*
X14325000Y-9885000D02*
X14295000Y-9915000D01*
X14355000Y-9295000D02*
X14385000Y-9325000D01*
X14385000Y-9295000D02*
X14355000Y-9325000D01*
X14425000Y-10845000D02*
X14455000Y-10875000D01*
X14455000Y-10845000D02*
X14425000Y-10875000D01*
X14445000Y-9095000D02*
X14475000Y-9125000D01*
X14475000Y-9095000D02*
X14445000Y-9125000D01*
X14485000Y-9595000D02*
X14515000Y-9625000D01*
X14515000Y-9595000D02*
X14485000Y-9625000D01*
X14535000Y-11505000D02*
X14565000Y-11535000D01*
X14565000Y-11505000D02*
X14535000Y-11535000D01*
X14565000Y-9245000D02*
X14595000Y-9275000D01*
X14595000Y-9245000D02*
X14565000Y-9275000D01*
X14565000Y-9325000D02*
X14595000Y-9355000D01*
X14595000Y-9325000D02*
X14565000Y-9355000D01*
X14565000Y-9595000D02*
X14595000Y-9625000D01*
X14595000Y-9595000D02*
X14565000Y-9625000D01*
X14575000Y-8355000D02*
X14605000Y-8385000D01*
X14605000Y-8355000D02*
X14575000Y-8385000D01*
X14685000Y-9085000D02*
X14715000Y-9115000D01*
X14715000Y-9085000D02*
X14685000Y-9115000D01*
X14725000Y-10845000D02*
X14755000Y-10875000D01*
X14755000Y-10845000D02*
X14725000Y-10875000D01*
X14785000Y-8815000D02*
X14815000Y-8845000D01*
X14815000Y-8815000D02*
X14785000Y-8845000D01*
X14895000Y-9635000D02*
X14925000Y-9665000D01*
X14925000Y-9635000D02*
X14895000Y-9665000D01*
X14895000Y-9795000D02*
X14925000Y-9825000D01*
X14925000Y-9795000D02*
X14895000Y-9825000D01*
X14935000Y-11645000D02*
X14965000Y-11675000D01*
X14965000Y-11645000D02*
X14935000Y-11675000D01*
X14955000Y-8365000D02*
X14985000Y-8395000D01*
X14985000Y-8365000D02*
X14955000Y-8395000D01*
X14992500Y-8525000D02*
X15022500Y-8555000D01*
X15022500Y-8525000D02*
X14992500Y-8555000D01*
X15065000Y-9975000D02*
X15095000Y-10005000D01*
X15095000Y-9975000D02*
X15065000Y-10005000D01*
X15185000Y-8795000D02*
X15215000Y-8825000D01*
X15215000Y-8795000D02*
X15185000Y-8825000D01*
X15255000Y-9505000D02*
X15285000Y-9535000D01*
X15285000Y-9505000D02*
X15255000Y-9535000D01*
X15315000Y-11605000D02*
X15345000Y-11635000D01*
X15345000Y-11605000D02*
X15315000Y-11635000D01*
X15385000Y-10035000D02*
X15415000Y-10065000D01*
X15415000Y-10035000D02*
X15385000Y-10065000D01*
X15385000Y-10505000D02*
X15415000Y-10535000D01*
X15415000Y-10505000D02*
X15385000Y-10535000D01*
X15435000Y-9915000D02*
X15465000Y-9945000D01*
X15465000Y-9915000D02*
X15435000Y-9945000D01*
X15445000Y-9795000D02*
X15475000Y-9825000D01*
X15475000Y-9795000D02*
X15445000Y-9825000D01*
X15582500Y-9362500D02*
X15612500Y-9392500D01*
X15612500Y-9362500D02*
X15582500Y-9392500D01*
X15585000Y-9175000D02*
X15615000Y-9205000D01*
X15615000Y-9175000D02*
X15585000Y-9205000D01*
X15660000Y-8135000D02*
X15690000Y-8165000D01*
X15690000Y-8135000D02*
X15660000Y-8165000D01*
X15695000Y-10185000D02*
X15725000Y-10215000D01*
X15725000Y-10185000D02*
X15695000Y-10215000D01*
X15695000Y-11555000D02*
X15725000Y-11585000D01*
X15725000Y-11555000D02*
X15695000Y-11585000D01*
X15735000Y-8615000D02*
X15765000Y-8645000D01*
X15765000Y-8615000D02*
X15735000Y-8645000D01*
X15745000Y-9715000D02*
X15775000Y-9745000D01*
X15775000Y-9715000D02*
X15745000Y-9745000D01*
X15858125Y-8265625D02*
X15888125Y-8295625D01*
X15888125Y-8265625D02*
X15858125Y-8295625D01*
X15963125Y-8705625D02*
X15993125Y-8735625D01*
X15993125Y-8705625D02*
X15963125Y-8735625D01*
X16085000Y-11535000D02*
X16115000Y-11565000D01*
X16115000Y-11535000D02*
X16085000Y-11565000D01*
X16112500Y-10140000D02*
X16142500Y-10170000D01*
X16142500Y-10140000D02*
X16112500Y-10170000D01*
X16115000Y-9285000D02*
X16145000Y-9315000D01*
X16145000Y-9285000D02*
X16115000Y-9315000D01*
X16115000Y-9455000D02*
X16145000Y-9485000D01*
X16145000Y-9455000D02*
X16115000Y-9485000D01*
X16115000Y-9625000D02*
X16145000Y-9655000D01*
X16145000Y-9625000D02*
X16115000Y-9655000D01*
X16115000Y-9805000D02*
X16145000Y-9835000D01*
X16145000Y-9805000D02*
X16115000Y-9835000D01*
X16115000Y-9945000D02*
X16145000Y-9975000D01*
X16145000Y-9945000D02*
X16115000Y-9975000D01*
X16123125Y-8420625D02*
X16153125Y-8450625D01*
X16153125Y-8420625D02*
X16123125Y-8450625D01*
X16125000Y-10475000D02*
X16155000Y-10505000D01*
X16155000Y-10475000D02*
X16125000Y-10505000D01*
X16375625Y-8558125D02*
X16405625Y-8588125D01*
X16405625Y-8558125D02*
X16375625Y-8588125D01*
X16395000Y-10675000D02*
X16425000Y-10705000D01*
X16425000Y-10675000D02*
X16395000Y-10705000D01*
X16445000Y-11525000D02*
X16475000Y-11555000D01*
X16475000Y-11525000D02*
X16445000Y-11555000D01*
X16562500Y-8925000D02*
X16592500Y-8955000D01*
X16592500Y-8925000D02*
X16562500Y-8955000D01*
X16675000Y-9135000D02*
X16705000Y-9165000D01*
X16705000Y-9135000D02*
X16675000Y-9165000D01*
X16705000Y-9745000D02*
X16735000Y-9775000D01*
X16735000Y-9745000D02*
X16705000Y-9775000D01*
X16725000Y-10035000D02*
X16755000Y-10065000D01*
X16755000Y-10035000D02*
X16725000Y-10065000D01*
X16785000Y-8195000D02*
X16815000Y-8225000D01*
X16815000Y-8195000D02*
X16785000Y-8225000D01*
X16835000Y-10805000D02*
X16865000Y-10835000D01*
X16865000Y-10805000D02*
X16835000Y-10835000D01*
X16935000Y-10435000D02*
X16965000Y-10465000D01*
X16965000Y-10435000D02*
X16935000Y-10465000D01*
X16975000Y-11075000D02*
X17005000Y-11105000D01*
X17005000Y-11075000D02*
X16975000Y-11105000D01*
X17045000Y-9425000D02*
X17075000Y-9455000D01*
X17075000Y-9425000D02*
X17045000Y-9455000D01*
X17095000Y-10335000D02*
X17125000Y-10365000D01*
X17125000Y-10335000D02*
X17095000Y-10365000D01*
X17162500Y-9705000D02*
X17192500Y-9735000D01*
X17192500Y-9705000D02*
X17162500Y-9735000D01*
X17165000Y-8975000D02*
X17195000Y-9005000D01*
X17195000Y-8975000D02*
X17165000Y-9005000D01*
X17375000Y-10095000D02*
X17405000Y-10125000D01*
X17405000Y-10095000D02*
X17375000Y-10125000D01*
X17425000Y-9215000D02*
X17455000Y-9245000D01*
X17455000Y-9215000D02*
X17425000Y-9245000D01*
X17465000Y-10685000D02*
X17495000Y-10715000D01*
X17495000Y-10685000D02*
X17465000Y-10715000D01*
X17467500Y-11135000D02*
X17497500Y-11165000D01*
X17497500Y-11135000D02*
X17467500Y-11165000D01*
X17495000Y-9705000D02*
X17525000Y-9735000D01*
X17525000Y-9705000D02*
X17495000Y-9735000D01*
X17605000Y-9395000D02*
X17635000Y-9425000D01*
X17635000Y-9395000D02*
X17605000Y-9425000D01*
X17655000Y-10155000D02*
X17685000Y-10185000D01*
X17685000Y-10155000D02*
X17655000Y-10185000D01*
X13530000Y-8090000D02*
G75*
G02*
X13450000Y-8090000I-40000J0D01*
G01*
X13450000Y-8090000D02*
G75*
G02*
X13530000Y-8090000I40000J0D01*
G01*
X13530000Y-8340000D02*
G75*
G02*
X13450000Y-8340000I-40000J0D01*
G01*
X13450000Y-8340000D02*
G75*
G02*
X13530000Y-8340000I40000J0D01*
G01*
X17683000Y-8950000D02*
G75*
G02*
X17603000Y-8950000I-40000J0D01*
G01*
X17603000Y-8950000D02*
G75*
G02*
X17683000Y-8950000I40000J0D01*
G01*
X17890000Y-9915000D02*
G75*
G02*
X17810000Y-9915000I-40000J0D01*
G01*
X17810000Y-9915000D02*
G75*
G02*
X17890000Y-9915000I40000J0D01*
G01*
X17890000Y-10169000D02*
G75*
G02*
X17810000Y-10169000I-40000J0D01*
G01*
X17810000Y-10169000D02*
G75*
G02*
X17890000Y-10169000I40000J0D01*
G01*
X17890000Y-10423000D02*
G75*
G02*
X17810000Y-10423000I-40000J0D01*
G01*
X17810000Y-10423000D02*
G75*
G02*
X17890000Y-10423000I40000J0D01*
G01*
X17937000Y-8696000D02*
G75*
G02*
X17857000Y-8696000I-40000J0D01*
G01*
X17857000Y-8696000D02*
G75*
G02*
X17937000Y-8696000I40000J0D01*
G01*
X17937000Y-9204000D02*
G75*
G02*
X17857000Y-9204000I-40000J0D01*
G01*
X17857000Y-9204000D02*
G75*
G02*
X17937000Y-9204000I40000J0D01*
G01*
X14078000Y-7930000D02*
X14078000Y-8030000D01*
X14028000Y-7980000D02*
X14128000Y-7980000D01*
X14332000Y-7930000D02*
X14332000Y-8030000D01*
X14282000Y-7980000D02*
X14382000Y-7980000D01*
X14586000Y-7930000D02*
X14586000Y-8030000D01*
X14536000Y-7980000D02*
X14636000Y-7980000D01*
X14840000Y-7930000D02*
X14840000Y-8030000D01*
X14790000Y-7980000D02*
X14890000Y-7980000D01*
X15290000Y-7930000D02*
X15290000Y-8030000D01*
X15240000Y-7980000D02*
X15340000Y-7980000D01*
X15492000Y-10750000D02*
X15492000Y-10850000D01*
X15442000Y-10800000D02*
X15542000Y-10800000D01*
X15492000Y-11004000D02*
X15492000Y-11104000D01*
X15442000Y-11054000D02*
X15542000Y-11054000D01*
X15544000Y-7930000D02*
X15544000Y-8030000D01*
X15494000Y-7980000D02*
X15594000Y-7980000D01*
X15746000Y-10750000D02*
X15746000Y-10850000D01*
X15696000Y-10800000D02*
X15796000Y-10800000D01*
X15746000Y-11004000D02*
X15746000Y-11104000D01*
X15696000Y-11054000D02*
X15796000Y-11054000D01*
X15798000Y-7930000D02*
X15798000Y-8030000D01*
X15748000Y-7980000D02*
X15848000Y-7980000D01*
X16000000Y-10750000D02*
X16000000Y-10850000D01*
X15950000Y-10800000D02*
X16050000Y-10800000D01*
X16000000Y-11004000D02*
X16000000Y-11104000D01*
X15950000Y-11054000D02*
X16050000Y-11054000D01*
X16052000Y-7930000D02*
X16052000Y-8030000D01*
X16002000Y-7980000D02*
X16102000Y-7980000D01*
D13*
X12873891Y-10053891D02*
X12873891Y-9976109D01*
X12796109Y-9976109D01*
X12796109Y-10053891D01*
X12873891Y-10053891D01*
X12873891Y-10503891D02*
X12873891Y-10426109D01*
X12796109Y-10426109D01*
X12796109Y-10503891D01*
X12873891Y-10503891D01*
X12878891Y-10848891D02*
X12878891Y-10771109D01*
X12801109Y-10771109D01*
X12801109Y-10848891D01*
X12878891Y-10848891D01*
X12878891Y-11298891D02*
X12878891Y-11221109D01*
X12801109Y-11221109D01*
X12801109Y-11298891D01*
X12878891Y-11298891D01*
X13523891Y-10053891D02*
X13523891Y-9976109D01*
X13446109Y-9976109D01*
X13446109Y-10053891D01*
X13523891Y-10053891D01*
X13523891Y-10503891D02*
X13523891Y-10426109D01*
X13446109Y-10426109D01*
X13446109Y-10503891D01*
X13523891Y-10503891D01*
X13528891Y-10848891D02*
X13528891Y-10771109D01*
X13451109Y-10771109D01*
X13451109Y-10848891D01*
X13528891Y-10848891D01*
X13528891Y-11298891D02*
X13528891Y-11221109D01*
X13451109Y-11221109D01*
X13451109Y-11298891D01*
X13528891Y-11298891D01*
D14*
X16662000Y-8039500D02*
X16721500Y-7980000D01*
X16662000Y-7920500D01*
X16602500Y-7980000D01*
X16662000Y-8039500D01*
X16916000Y-8039500D02*
X16975500Y-7980000D01*
X16916000Y-7920500D01*
X16856500Y-7980000D01*
X16916000Y-8039500D01*
X17170000Y-8039500D02*
X17229500Y-7980000D01*
X17170000Y-7920500D01*
X17110500Y-7980000D01*
X17170000Y-8039500D01*
D15*
X12860000Y-8840000D02*
X12980000Y-8960000D01*
X12980000Y-8840000D02*
X12860000Y-8960000D01*
X12980000Y-8900000D02*
G75*
G02*
X12860000Y-8900000I-60000J0D01*
G01*
X12860000Y-8900000D02*
G75*
G02*
X12980000Y-8900000I60000J0D01*
G01*
X12860000Y-9221000D02*
X12980000Y-9341000D01*
X12980000Y-9221000D02*
X12860000Y-9341000D01*
X12980000Y-9281000D02*
G75*
G02*
X12860000Y-9281000I-60000J0D01*
G01*
X12860000Y-9281000D02*
G75*
G02*
X12980000Y-9281000I60000J0D01*
G01*
X13949000Y-11770000D02*
X14069000Y-11890000D01*
X14069000Y-11770000D02*
X13949000Y-11890000D01*
X14069000Y-11830000D02*
G75*
G02*
X13949000Y-11830000I-60000J0D01*
G01*
X13949000Y-11830000D02*
G75*
G02*
X14069000Y-11830000I60000J0D01*
G01*
X14330000Y-11770000D02*
X14450000Y-11890000D01*
X14450000Y-11770000D02*
X14330000Y-11890000D01*
X14450000Y-11830000D02*
G75*
G02*
X14330000Y-11830000I-60000J0D01*
G01*
X14330000Y-11830000D02*
G75*
G02*
X14450000Y-11830000I60000J0D01*
G01*
X14711000Y-11770000D02*
X14831000Y-11890000D01*
X14831000Y-11770000D02*
X14711000Y-11890000D01*
X14831000Y-11830000D02*
G75*
G02*
X14711000Y-11830000I-60000J0D01*
G01*
X14711000Y-11830000D02*
G75*
G02*
X14831000Y-11830000I60000J0D01*
G01*
X15092000Y-11770000D02*
X15212000Y-11890000D01*
X15212000Y-11770000D02*
X15092000Y-11890000D01*
X15212000Y-11830000D02*
G75*
G02*
X15092000Y-11830000I-60000J0D01*
G01*
X15092000Y-11830000D02*
G75*
G02*
X15212000Y-11830000I60000J0D01*
G01*
X15473000Y-11770000D02*
X15593000Y-11890000D01*
X15593000Y-11770000D02*
X15473000Y-11890000D01*
X15593000Y-11830000D02*
G75*
G02*
X15473000Y-11830000I-60000J0D01*
G01*
X15473000Y-11830000D02*
G75*
G02*
X15593000Y-11830000I60000J0D01*
G01*
X15854000Y-11770000D02*
X15974000Y-11890000D01*
X15974000Y-11770000D02*
X15854000Y-11890000D01*
X15974000Y-11830000D02*
G75*
G02*
X15854000Y-11830000I-60000J0D01*
G01*
X15854000Y-11830000D02*
G75*
G02*
X15974000Y-11830000I60000J0D01*
G01*
X16235000Y-11770000D02*
X16355000Y-11890000D01*
X16355000Y-11770000D02*
X16235000Y-11890000D01*
X16355000Y-11830000D02*
G75*
G02*
X16235000Y-11830000I-60000J0D01*
G01*
X16235000Y-11830000D02*
G75*
G02*
X16355000Y-11830000I60000J0D01*
G01*
X16616000Y-11770000D02*
X16736000Y-11890000D01*
X16736000Y-11770000D02*
X16616000Y-11890000D01*
X16736000Y-11830000D02*
G75*
G02*
X16616000Y-11830000I-60000J0D01*
G01*
X16616000Y-11830000D02*
G75*
G02*
X16736000Y-11830000I60000J0D01*
G01*
D11*
X12758277Y-12513984D02*
X12758277Y-12313984D01*
X12758277Y-12313984D02*
X12805896Y-12313984D01*
X12805896Y-12313984D02*
X12834467Y-12323508D01*
X12834467Y-12323508D02*
X12853515Y-12342555D01*
X12853515Y-12342555D02*
X12863039Y-12361603D01*
X12863039Y-12361603D02*
X12872562Y-12399698D01*
X12872562Y-12399698D02*
X12872562Y-12428269D01*
X12872562Y-12428269D02*
X12863039Y-12466365D01*
X12863039Y-12466365D02*
X12853515Y-12485412D01*
X12853515Y-12485412D02*
X12834467Y-12504460D01*
X12834467Y-12504460D02*
X12805896Y-12513984D01*
X12805896Y-12513984D02*
X12758277Y-12513984D01*
X12958277Y-12513984D02*
X12958277Y-12380650D01*
X12958277Y-12418746D02*
X12967801Y-12399698D01*
X12967801Y-12399698D02*
X12977324Y-12390174D01*
X12977324Y-12390174D02*
X12996372Y-12380650D01*
X12996372Y-12380650D02*
X13015420Y-12380650D01*
X13082086Y-12513984D02*
X13082086Y-12380650D01*
X13082086Y-12313984D02*
X13072562Y-12323508D01*
X13072562Y-12323508D02*
X13082086Y-12333031D01*
X13082086Y-12333031D02*
X13091610Y-12323508D01*
X13091610Y-12323508D02*
X13082086Y-12313984D01*
X13082086Y-12313984D02*
X13082086Y-12333031D01*
X13205896Y-12513984D02*
X13186848Y-12504460D01*
X13186848Y-12504460D02*
X13177324Y-12485412D01*
X13177324Y-12485412D02*
X13177324Y-12313984D01*
X13310658Y-12513984D02*
X13291610Y-12504460D01*
X13291610Y-12504460D02*
X13282086Y-12485412D01*
X13282086Y-12485412D02*
X13282086Y-12313984D01*
X13539229Y-12513984D02*
X13539229Y-12313984D01*
X13539229Y-12313984D02*
X13605896Y-12456841D01*
X13605896Y-12456841D02*
X13672562Y-12313984D01*
X13672562Y-12313984D02*
X13672562Y-12513984D01*
X13853515Y-12513984D02*
X13853515Y-12409222D01*
X13853515Y-12409222D02*
X13843991Y-12390174D01*
X13843991Y-12390174D02*
X13824943Y-12380650D01*
X13824943Y-12380650D02*
X13786848Y-12380650D01*
X13786848Y-12380650D02*
X13767801Y-12390174D01*
X13853515Y-12504460D02*
X13834467Y-12513984D01*
X13834467Y-12513984D02*
X13786848Y-12513984D01*
X13786848Y-12513984D02*
X13767801Y-12504460D01*
X13767801Y-12504460D02*
X13758277Y-12485412D01*
X13758277Y-12485412D02*
X13758277Y-12466365D01*
X13758277Y-12466365D02*
X13767801Y-12447317D01*
X13767801Y-12447317D02*
X13786848Y-12437793D01*
X13786848Y-12437793D02*
X13834467Y-12437793D01*
X13834467Y-12437793D02*
X13853515Y-12428269D01*
X13948753Y-12380650D02*
X13948753Y-12580650D01*
X13948753Y-12390174D02*
X13967801Y-12380650D01*
X13967801Y-12380650D02*
X14005896Y-12380650D01*
X14005896Y-12380650D02*
X14024943Y-12390174D01*
X14024943Y-12390174D02*
X14034467Y-12399698D01*
X14034467Y-12399698D02*
X14043991Y-12418746D01*
X14043991Y-12418746D02*
X14043991Y-12475888D01*
X14043991Y-12475888D02*
X14034467Y-12494936D01*
X14034467Y-12494936D02*
X14024943Y-12504460D01*
X14024943Y-12504460D02*
X14005896Y-12513984D01*
X14005896Y-12513984D02*
X13967801Y-12513984D01*
X13967801Y-12513984D02*
X13948753Y-12504460D01*
X14129705Y-12494936D02*
X14139229Y-12504460D01*
X14139229Y-12504460D02*
X14129705Y-12513984D01*
X14129705Y-12513984D02*
X14120182Y-12504460D01*
X14120182Y-12504460D02*
X14129705Y-12494936D01*
X14129705Y-12494936D02*
X14129705Y-12513984D01*
X14129705Y-12390174D02*
X14139229Y-12399698D01*
X14139229Y-12399698D02*
X14129705Y-12409222D01*
X14129705Y-12409222D02*
X14120182Y-12399698D01*
X14120182Y-12399698D02*
X14129705Y-12390174D01*
X14129705Y-12390174D02*
X14129705Y-12409222D01*
D12*
X12467500Y-12827500D02*
X12497500Y-12857500D01*
X12497500Y-12827500D02*
X12467500Y-12857500D01*
D11*
X12796372Y-12733984D02*
X12815420Y-12733984D01*
X12815420Y-12733984D02*
X12834467Y-12743508D01*
X12834467Y-12743508D02*
X12843991Y-12753031D01*
X12843991Y-12753031D02*
X12853515Y-12772079D01*
X12853515Y-12772079D02*
X12863039Y-12810174D01*
X12863039Y-12810174D02*
X12863039Y-12857793D01*
X12863039Y-12857793D02*
X12853515Y-12895888D01*
X12853515Y-12895888D02*
X12843991Y-12914936D01*
X12843991Y-12914936D02*
X12834467Y-12924460D01*
X12834467Y-12924460D02*
X12815420Y-12933984D01*
X12815420Y-12933984D02*
X12796372Y-12933984D01*
X12796372Y-12933984D02*
X12777324Y-12924460D01*
X12777324Y-12924460D02*
X12767801Y-12914936D01*
X12767801Y-12914936D02*
X12758277Y-12895888D01*
X12758277Y-12895888D02*
X12748753Y-12857793D01*
X12748753Y-12857793D02*
X12748753Y-12810174D01*
X12748753Y-12810174D02*
X12758277Y-12772079D01*
X12758277Y-12772079D02*
X12767801Y-12753031D01*
X12767801Y-12753031D02*
X12777324Y-12743508D01*
X12777324Y-12743508D02*
X12796372Y-12733984D01*
X12948753Y-12914936D02*
X12958277Y-12924460D01*
X12958277Y-12924460D02*
X12948753Y-12933984D01*
X12948753Y-12933984D02*
X12939229Y-12924460D01*
X12939229Y-12924460D02*
X12948753Y-12914936D01*
X12948753Y-12914936D02*
X12948753Y-12933984D01*
X13024943Y-12733984D02*
X13148753Y-12733984D01*
X13148753Y-12733984D02*
X13082086Y-12810174D01*
X13082086Y-12810174D02*
X13110658Y-12810174D01*
X13110658Y-12810174D02*
X13129705Y-12819698D01*
X13129705Y-12819698D02*
X13139229Y-12829222D01*
X13139229Y-12829222D02*
X13148753Y-12848269D01*
X13148753Y-12848269D02*
X13148753Y-12895888D01*
X13148753Y-12895888D02*
X13139229Y-12914936D01*
X13139229Y-12914936D02*
X13129705Y-12924460D01*
X13129705Y-12924460D02*
X13110658Y-12933984D01*
X13110658Y-12933984D02*
X13053515Y-12933984D01*
X13053515Y-12933984D02*
X13034467Y-12924460D01*
X13034467Y-12924460D02*
X13024943Y-12914936D01*
X13272562Y-12733984D02*
X13291610Y-12733984D01*
X13291610Y-12733984D02*
X13310658Y-12743508D01*
X13310658Y-12743508D02*
X13320182Y-12753031D01*
X13320182Y-12753031D02*
X13329705Y-12772079D01*
X13329705Y-12772079D02*
X13339229Y-12810174D01*
X13339229Y-12810174D02*
X13339229Y-12857793D01*
X13339229Y-12857793D02*
X13329705Y-12895888D01*
X13329705Y-12895888D02*
X13320182Y-12914936D01*
X13320182Y-12914936D02*
X13310658Y-12924460D01*
X13310658Y-12924460D02*
X13291610Y-12933984D01*
X13291610Y-12933984D02*
X13272562Y-12933984D01*
X13272562Y-12933984D02*
X13253515Y-12924460D01*
X13253515Y-12924460D02*
X13243991Y-12914936D01*
X13243991Y-12914936D02*
X13234467Y-12895888D01*
X13234467Y-12895888D02*
X13224943Y-12857793D01*
X13224943Y-12857793D02*
X13224943Y-12810174D01*
X13224943Y-12810174D02*
X13234467Y-12772079D01*
X13234467Y-12772079D02*
X13243991Y-12753031D01*
X13243991Y-12753031D02*
X13253515Y-12743508D01*
X13253515Y-12743508D02*
X13272562Y-12733984D01*
X13463039Y-12733984D02*
X13482086Y-12733984D01*
X13482086Y-12733984D02*
X13501134Y-12743508D01*
X13501134Y-12743508D02*
X13510658Y-12753031D01*
X13510658Y-12753031D02*
X13520182Y-12772079D01*
X13520182Y-12772079D02*
X13529705Y-12810174D01*
X13529705Y-12810174D02*
X13529705Y-12857793D01*
X13529705Y-12857793D02*
X13520182Y-12895888D01*
X13520182Y-12895888D02*
X13510658Y-12914936D01*
X13510658Y-12914936D02*
X13501134Y-12924460D01*
X13501134Y-12924460D02*
X13482086Y-12933984D01*
X13482086Y-12933984D02*
X13463039Y-12933984D01*
X13463039Y-12933984D02*
X13443991Y-12924460D01*
X13443991Y-12924460D02*
X13434467Y-12914936D01*
X13434467Y-12914936D02*
X13424943Y-12895888D01*
X13424943Y-12895888D02*
X13415420Y-12857793D01*
X13415420Y-12857793D02*
X13415420Y-12810174D01*
X13415420Y-12810174D02*
X13424943Y-12772079D01*
X13424943Y-12772079D02*
X13434467Y-12753031D01*
X13434467Y-12753031D02*
X13443991Y-12743508D01*
X13443991Y-12743508D02*
X13463039Y-12733984D01*
X13615420Y-12933984D02*
X13615420Y-12800650D01*
X13615420Y-12819698D02*
X13624943Y-12810174D01*
X13624943Y-12810174D02*
X13643991Y-12800650D01*
X13643991Y-12800650D02*
X13672563Y-12800650D01*
X13672563Y-12800650D02*
X13691610Y-12810174D01*
X13691610Y-12810174D02*
X13701134Y-12829222D01*
X13701134Y-12829222D02*
X13701134Y-12933984D01*
X13701134Y-12829222D02*
X13710658Y-12810174D01*
X13710658Y-12810174D02*
X13729705Y-12800650D01*
X13729705Y-12800650D02*
X13758277Y-12800650D01*
X13758277Y-12800650D02*
X13777324Y-12810174D01*
X13777324Y-12810174D02*
X13786848Y-12829222D01*
X13786848Y-12829222D02*
X13786848Y-12933984D01*
X13882086Y-12933984D02*
X13882086Y-12800650D01*
X13882086Y-12819698D02*
X13891610Y-12810174D01*
X13891610Y-12810174D02*
X13910658Y-12800650D01*
X13910658Y-12800650D02*
X13939229Y-12800650D01*
X13939229Y-12800650D02*
X13958277Y-12810174D01*
X13958277Y-12810174D02*
X13967801Y-12829222D01*
X13967801Y-12829222D02*
X13967801Y-12933984D01*
X13967801Y-12829222D02*
X13977324Y-12810174D01*
X13977324Y-12810174D02*
X13996372Y-12800650D01*
X13996372Y-12800650D02*
X14024943Y-12800650D01*
X14024943Y-12800650D02*
X14043991Y-12810174D01*
X14043991Y-12810174D02*
X14053515Y-12829222D01*
X14053515Y-12829222D02*
X14053515Y-12933984D01*
X14443991Y-12724460D02*
X14272563Y-12981603D01*
X14701134Y-12733984D02*
X14720182Y-12733984D01*
X14720182Y-12733984D02*
X14739229Y-12743508D01*
X14739229Y-12743508D02*
X14748753Y-12753031D01*
X14748753Y-12753031D02*
X14758277Y-12772079D01*
X14758277Y-12772079D02*
X14767801Y-12810174D01*
X14767801Y-12810174D02*
X14767801Y-12857793D01*
X14767801Y-12857793D02*
X14758277Y-12895888D01*
X14758277Y-12895888D02*
X14748753Y-12914936D01*
X14748753Y-12914936D02*
X14739229Y-12924460D01*
X14739229Y-12924460D02*
X14720182Y-12933984D01*
X14720182Y-12933984D02*
X14701134Y-12933984D01*
X14701134Y-12933984D02*
X14682086Y-12924460D01*
X14682086Y-12924460D02*
X14672563Y-12914936D01*
X14672563Y-12914936D02*
X14663039Y-12895888D01*
X14663039Y-12895888D02*
X14653515Y-12857793D01*
X14653515Y-12857793D02*
X14653515Y-12810174D01*
X14653515Y-12810174D02*
X14663039Y-12772079D01*
X14663039Y-12772079D02*
X14672563Y-12753031D01*
X14672563Y-12753031D02*
X14682086Y-12743508D01*
X14682086Y-12743508D02*
X14701134Y-12733984D01*
X14853515Y-12914936D02*
X14863039Y-12924460D01*
X14863039Y-12924460D02*
X14853515Y-12933984D01*
X14853515Y-12933984D02*
X14843991Y-12924460D01*
X14843991Y-12924460D02*
X14853515Y-12914936D01*
X14853515Y-12914936D02*
X14853515Y-12933984D01*
X14986848Y-12733984D02*
X15005896Y-12733984D01*
X15005896Y-12733984D02*
X15024944Y-12743508D01*
X15024944Y-12743508D02*
X15034467Y-12753031D01*
X15034467Y-12753031D02*
X15043991Y-12772079D01*
X15043991Y-12772079D02*
X15053515Y-12810174D01*
X15053515Y-12810174D02*
X15053515Y-12857793D01*
X15053515Y-12857793D02*
X15043991Y-12895888D01*
X15043991Y-12895888D02*
X15034467Y-12914936D01*
X15034467Y-12914936D02*
X15024944Y-12924460D01*
X15024944Y-12924460D02*
X15005896Y-12933984D01*
X15005896Y-12933984D02*
X14986848Y-12933984D01*
X14986848Y-12933984D02*
X14967801Y-12924460D01*
X14967801Y-12924460D02*
X14958277Y-12914936D01*
X14958277Y-12914936D02*
X14948753Y-12895888D01*
X14948753Y-12895888D02*
X14939229Y-12857793D01*
X14939229Y-12857793D02*
X14939229Y-12810174D01*
X14939229Y-12810174D02*
X14948753Y-12772079D01*
X14948753Y-12772079D02*
X14958277Y-12753031D01*
X14958277Y-12753031D02*
X14967801Y-12743508D01*
X14967801Y-12743508D02*
X14986848Y-12733984D01*
X15243991Y-12933984D02*
X15129706Y-12933984D01*
X15186848Y-12933984D02*
X15186848Y-12733984D01*
X15186848Y-12733984D02*
X15167801Y-12762555D01*
X15167801Y-12762555D02*
X15148753Y-12781603D01*
X15148753Y-12781603D02*
X15129706Y-12791127D01*
X15434467Y-12933984D02*
X15320182Y-12933984D01*
X15377325Y-12933984D02*
X15377325Y-12733984D01*
X15377325Y-12733984D02*
X15358277Y-12762555D01*
X15358277Y-12762555D02*
X15339229Y-12781603D01*
X15339229Y-12781603D02*
X15320182Y-12791127D01*
X15548753Y-12819698D02*
X15529706Y-12810174D01*
X15529706Y-12810174D02*
X15520182Y-12800650D01*
X15520182Y-12800650D02*
X15510658Y-12781603D01*
X15510658Y-12781603D02*
X15510658Y-12772079D01*
X15510658Y-12772079D02*
X15520182Y-12753031D01*
X15520182Y-12753031D02*
X15529706Y-12743508D01*
X15529706Y-12743508D02*
X15548753Y-12733984D01*
X15548753Y-12733984D02*
X15586848Y-12733984D01*
X15586848Y-12733984D02*
X15605896Y-12743508D01*
X15605896Y-12743508D02*
X15615420Y-12753031D01*
X15615420Y-12753031D02*
X15624944Y-12772079D01*
X15624944Y-12772079D02*
X15624944Y-12781603D01*
X15624944Y-12781603D02*
X15615420Y-12800650D01*
X15615420Y-12800650D02*
X15605896Y-12810174D01*
X15605896Y-12810174D02*
X15586848Y-12819698D01*
X15586848Y-12819698D02*
X15548753Y-12819698D01*
X15548753Y-12819698D02*
X15529706Y-12829222D01*
X15529706Y-12829222D02*
X15520182Y-12838746D01*
X15520182Y-12838746D02*
X15510658Y-12857793D01*
X15510658Y-12857793D02*
X15510658Y-12895888D01*
X15510658Y-12895888D02*
X15520182Y-12914936D01*
X15520182Y-12914936D02*
X15529706Y-12924460D01*
X15529706Y-12924460D02*
X15548753Y-12933984D01*
X15548753Y-12933984D02*
X15586848Y-12933984D01*
X15586848Y-12933984D02*
X15605896Y-12924460D01*
X15605896Y-12924460D02*
X15615420Y-12914936D01*
X15615420Y-12914936D02*
X15624944Y-12895888D01*
X15624944Y-12895888D02*
X15624944Y-12857793D01*
X15624944Y-12857793D02*
X15615420Y-12838746D01*
X15615420Y-12838746D02*
X15605896Y-12829222D01*
X15605896Y-12829222D02*
X15586848Y-12819698D01*
X15701134Y-12733984D02*
X15701134Y-12772079D01*
X15777325Y-12733984D02*
X15777325Y-12772079D01*
X16072563Y-13010174D02*
X16063039Y-13000650D01*
X16063039Y-13000650D02*
X16043991Y-12972079D01*
X16043991Y-12972079D02*
X16034468Y-12953031D01*
X16034468Y-12953031D02*
X16024944Y-12924460D01*
X16024944Y-12924460D02*
X16015420Y-12876841D01*
X16015420Y-12876841D02*
X16015420Y-12838746D01*
X16015420Y-12838746D02*
X16024944Y-12791127D01*
X16024944Y-12791127D02*
X16034468Y-12762555D01*
X16034468Y-12762555D02*
X16043991Y-12743508D01*
X16043991Y-12743508D02*
X16063039Y-12714936D01*
X16063039Y-12714936D02*
X16072563Y-12705412D01*
X16177325Y-12819698D02*
X16158277Y-12810174D01*
X16158277Y-12810174D02*
X16148753Y-12800650D01*
X16148753Y-12800650D02*
X16139229Y-12781603D01*
X16139229Y-12781603D02*
X16139229Y-12772079D01*
X16139229Y-12772079D02*
X16148753Y-12753031D01*
X16148753Y-12753031D02*
X16158277Y-12743508D01*
X16158277Y-12743508D02*
X16177325Y-12733984D01*
X16177325Y-12733984D02*
X16215420Y-12733984D01*
X16215420Y-12733984D02*
X16234468Y-12743508D01*
X16234468Y-12743508D02*
X16243991Y-12753031D01*
X16243991Y-12753031D02*
X16253515Y-12772079D01*
X16253515Y-12772079D02*
X16253515Y-12781603D01*
X16253515Y-12781603D02*
X16243991Y-12800650D01*
X16243991Y-12800650D02*
X16234468Y-12810174D01*
X16234468Y-12810174D02*
X16215420Y-12819698D01*
X16215420Y-12819698D02*
X16177325Y-12819698D01*
X16177325Y-12819698D02*
X16158277Y-12829222D01*
X16158277Y-12829222D02*
X16148753Y-12838746D01*
X16148753Y-12838746D02*
X16139229Y-12857793D01*
X16139229Y-12857793D02*
X16139229Y-12895888D01*
X16139229Y-12895888D02*
X16148753Y-12914936D01*
X16148753Y-12914936D02*
X16158277Y-12924460D01*
X16158277Y-12924460D02*
X16177325Y-12933984D01*
X16177325Y-12933984D02*
X16215420Y-12933984D01*
X16215420Y-12933984D02*
X16234468Y-12924460D01*
X16234468Y-12924460D02*
X16243991Y-12914936D01*
X16243991Y-12914936D02*
X16253515Y-12895888D01*
X16253515Y-12895888D02*
X16253515Y-12857793D01*
X16253515Y-12857793D02*
X16243991Y-12838746D01*
X16243991Y-12838746D02*
X16234468Y-12829222D01*
X16234468Y-12829222D02*
X16215420Y-12819698D01*
X16434468Y-12733984D02*
X16339229Y-12733984D01*
X16339229Y-12733984D02*
X16329706Y-12829222D01*
X16329706Y-12829222D02*
X16339229Y-12819698D01*
X16339229Y-12819698D02*
X16358277Y-12810174D01*
X16358277Y-12810174D02*
X16405896Y-12810174D01*
X16405896Y-12810174D02*
X16424944Y-12819698D01*
X16424944Y-12819698D02*
X16434468Y-12829222D01*
X16434468Y-12829222D02*
X16443991Y-12848269D01*
X16443991Y-12848269D02*
X16443991Y-12895888D01*
X16443991Y-12895888D02*
X16434468Y-12914936D01*
X16434468Y-12914936D02*
X16424944Y-12924460D01*
X16424944Y-12924460D02*
X16405896Y-12933984D01*
X16405896Y-12933984D02*
X16358277Y-12933984D01*
X16358277Y-12933984D02*
X16339229Y-12924460D01*
X16339229Y-12924460D02*
X16329706Y-12914936D01*
X16682087Y-12933984D02*
X16682087Y-12733984D01*
X16767801Y-12933984D02*
X16767801Y-12829222D01*
X16767801Y-12829222D02*
X16758277Y-12810174D01*
X16758277Y-12810174D02*
X16739230Y-12800650D01*
X16739230Y-12800650D02*
X16710658Y-12800650D01*
X16710658Y-12800650D02*
X16691610Y-12810174D01*
X16691610Y-12810174D02*
X16682087Y-12819698D01*
X16891611Y-12933984D02*
X16872563Y-12924460D01*
X16872563Y-12924460D02*
X16863039Y-12914936D01*
X16863039Y-12914936D02*
X16853515Y-12895888D01*
X16853515Y-12895888D02*
X16853515Y-12838746D01*
X16853515Y-12838746D02*
X16863039Y-12819698D01*
X16863039Y-12819698D02*
X16872563Y-12810174D01*
X16872563Y-12810174D02*
X16891611Y-12800650D01*
X16891611Y-12800650D02*
X16920182Y-12800650D01*
X16920182Y-12800650D02*
X16939230Y-12810174D01*
X16939230Y-12810174D02*
X16948753Y-12819698D01*
X16948753Y-12819698D02*
X16958277Y-12838746D01*
X16958277Y-12838746D02*
X16958277Y-12895888D01*
X16958277Y-12895888D02*
X16948753Y-12914936D01*
X16948753Y-12914936D02*
X16939230Y-12924460D01*
X16939230Y-12924460D02*
X16920182Y-12933984D01*
X16920182Y-12933984D02*
X16891611Y-12933984D01*
X17072563Y-12933984D02*
X17053515Y-12924460D01*
X17053515Y-12924460D02*
X17043992Y-12905412D01*
X17043992Y-12905412D02*
X17043992Y-12733984D01*
X17224944Y-12924460D02*
X17205896Y-12933984D01*
X17205896Y-12933984D02*
X17167801Y-12933984D01*
X17167801Y-12933984D02*
X17148753Y-12924460D01*
X17148753Y-12924460D02*
X17139230Y-12905412D01*
X17139230Y-12905412D02*
X17139230Y-12829222D01*
X17139230Y-12829222D02*
X17148753Y-12810174D01*
X17148753Y-12810174D02*
X17167801Y-12800650D01*
X17167801Y-12800650D02*
X17205896Y-12800650D01*
X17205896Y-12800650D02*
X17224944Y-12810174D01*
X17224944Y-12810174D02*
X17234468Y-12829222D01*
X17234468Y-12829222D02*
X17234468Y-12848269D01*
X17234468Y-12848269D02*
X17139230Y-12867317D01*
X17310658Y-12924460D02*
X17329706Y-12933984D01*
X17329706Y-12933984D02*
X17367801Y-12933984D01*
X17367801Y-12933984D02*
X17386849Y-12924460D01*
X17386849Y-12924460D02*
X17396373Y-12905412D01*
X17396373Y-12905412D02*
X17396373Y-12895888D01*
X17396373Y-12895888D02*
X17386849Y-12876841D01*
X17386849Y-12876841D02*
X17367801Y-12867317D01*
X17367801Y-12867317D02*
X17339230Y-12867317D01*
X17339230Y-12867317D02*
X17320182Y-12857793D01*
X17320182Y-12857793D02*
X17310658Y-12838746D01*
X17310658Y-12838746D02*
X17310658Y-12829222D01*
X17310658Y-12829222D02*
X17320182Y-12810174D01*
X17320182Y-12810174D02*
X17339230Y-12800650D01*
X17339230Y-12800650D02*
X17367801Y-12800650D01*
X17367801Y-12800650D02*
X17386849Y-12810174D01*
X17463039Y-13010174D02*
X17472563Y-13000650D01*
X17472563Y-13000650D02*
X17491611Y-12972079D01*
X17491611Y-12972079D02*
X17501134Y-12953031D01*
X17501134Y-12953031D02*
X17510658Y-12924460D01*
X17510658Y-12924460D02*
X17520182Y-12876841D01*
X17520182Y-12876841D02*
X17520182Y-12838746D01*
X17520182Y-12838746D02*
X17510658Y-12791127D01*
X17510658Y-12791127D02*
X17501134Y-12762555D01*
X17501134Y-12762555D02*
X17491611Y-12743508D01*
X17491611Y-12743508D02*
X17472563Y-12714936D01*
X17472563Y-12714936D02*
X17463039Y-12705412D01*
D12*
X12497500Y-13106500D02*
G75*
G02*
X12417500Y-13106500I-40000J0D01*
G01*
X12417500Y-13106500D02*
G75*
G02*
X12497500Y-13106500I40000J0D01*
G01*
D11*
X12796372Y-12997984D02*
X12815420Y-12997984D01*
X12815420Y-12997984D02*
X12834467Y-13007508D01*
X12834467Y-13007508D02*
X12843991Y-13017031D01*
X12843991Y-13017031D02*
X12853515Y-13036079D01*
X12853515Y-13036079D02*
X12863039Y-13074174D01*
X12863039Y-13074174D02*
X12863039Y-13121793D01*
X12863039Y-13121793D02*
X12853515Y-13159888D01*
X12853515Y-13159888D02*
X12843991Y-13178936D01*
X12843991Y-13178936D02*
X12834467Y-13188460D01*
X12834467Y-13188460D02*
X12815420Y-13197984D01*
X12815420Y-13197984D02*
X12796372Y-13197984D01*
X12796372Y-13197984D02*
X12777324Y-13188460D01*
X12777324Y-13188460D02*
X12767801Y-13178936D01*
X12767801Y-13178936D02*
X12758277Y-13159888D01*
X12758277Y-13159888D02*
X12748753Y-13121793D01*
X12748753Y-13121793D02*
X12748753Y-13074174D01*
X12748753Y-13074174D02*
X12758277Y-13036079D01*
X12758277Y-13036079D02*
X12767801Y-13017031D01*
X12767801Y-13017031D02*
X12777324Y-13007508D01*
X12777324Y-13007508D02*
X12796372Y-12997984D01*
X12948753Y-13178936D02*
X12958277Y-13188460D01*
X12958277Y-13188460D02*
X12948753Y-13197984D01*
X12948753Y-13197984D02*
X12939229Y-13188460D01*
X12939229Y-13188460D02*
X12948753Y-13178936D01*
X12948753Y-13178936D02*
X12948753Y-13197984D01*
X13072562Y-13083698D02*
X13053515Y-13074174D01*
X13053515Y-13074174D02*
X13043991Y-13064650D01*
X13043991Y-13064650D02*
X13034467Y-13045603D01*
X13034467Y-13045603D02*
X13034467Y-13036079D01*
X13034467Y-13036079D02*
X13043991Y-13017031D01*
X13043991Y-13017031D02*
X13053515Y-13007508D01*
X13053515Y-13007508D02*
X13072562Y-12997984D01*
X13072562Y-12997984D02*
X13110658Y-12997984D01*
X13110658Y-12997984D02*
X13129705Y-13007508D01*
X13129705Y-13007508D02*
X13139229Y-13017031D01*
X13139229Y-13017031D02*
X13148753Y-13036079D01*
X13148753Y-13036079D02*
X13148753Y-13045603D01*
X13148753Y-13045603D02*
X13139229Y-13064650D01*
X13139229Y-13064650D02*
X13129705Y-13074174D01*
X13129705Y-13074174D02*
X13110658Y-13083698D01*
X13110658Y-13083698D02*
X13072562Y-13083698D01*
X13072562Y-13083698D02*
X13053515Y-13093222D01*
X13053515Y-13093222D02*
X13043991Y-13102746D01*
X13043991Y-13102746D02*
X13034467Y-13121793D01*
X13034467Y-13121793D02*
X13034467Y-13159888D01*
X13034467Y-13159888D02*
X13043991Y-13178936D01*
X13043991Y-13178936D02*
X13053515Y-13188460D01*
X13053515Y-13188460D02*
X13072562Y-13197984D01*
X13072562Y-13197984D02*
X13110658Y-13197984D01*
X13110658Y-13197984D02*
X13129705Y-13188460D01*
X13129705Y-13188460D02*
X13139229Y-13178936D01*
X13139229Y-13178936D02*
X13148753Y-13159888D01*
X13148753Y-13159888D02*
X13148753Y-13121793D01*
X13148753Y-13121793D02*
X13139229Y-13102746D01*
X13139229Y-13102746D02*
X13129705Y-13093222D01*
X13129705Y-13093222D02*
X13110658Y-13083698D01*
X13272562Y-12997984D02*
X13291610Y-12997984D01*
X13291610Y-12997984D02*
X13310658Y-13007508D01*
X13310658Y-13007508D02*
X13320182Y-13017031D01*
X13320182Y-13017031D02*
X13329705Y-13036079D01*
X13329705Y-13036079D02*
X13339229Y-13074174D01*
X13339229Y-13074174D02*
X13339229Y-13121793D01*
X13339229Y-13121793D02*
X13329705Y-13159888D01*
X13329705Y-13159888D02*
X13320182Y-13178936D01*
X13320182Y-13178936D02*
X13310658Y-13188460D01*
X13310658Y-13188460D02*
X13291610Y-13197984D01*
X13291610Y-13197984D02*
X13272562Y-13197984D01*
X13272562Y-13197984D02*
X13253515Y-13188460D01*
X13253515Y-13188460D02*
X13243991Y-13178936D01*
X13243991Y-13178936D02*
X13234467Y-13159888D01*
X13234467Y-13159888D02*
X13224943Y-13121793D01*
X13224943Y-13121793D02*
X13224943Y-13074174D01*
X13224943Y-13074174D02*
X13234467Y-13036079D01*
X13234467Y-13036079D02*
X13243991Y-13017031D01*
X13243991Y-13017031D02*
X13253515Y-13007508D01*
X13253515Y-13007508D02*
X13272562Y-12997984D01*
X13463039Y-12997984D02*
X13482086Y-12997984D01*
X13482086Y-12997984D02*
X13501134Y-13007508D01*
X13501134Y-13007508D02*
X13510658Y-13017031D01*
X13510658Y-13017031D02*
X13520182Y-13036079D01*
X13520182Y-13036079D02*
X13529705Y-13074174D01*
X13529705Y-13074174D02*
X13529705Y-13121793D01*
X13529705Y-13121793D02*
X13520182Y-13159888D01*
X13520182Y-13159888D02*
X13510658Y-13178936D01*
X13510658Y-13178936D02*
X13501134Y-13188460D01*
X13501134Y-13188460D02*
X13482086Y-13197984D01*
X13482086Y-13197984D02*
X13463039Y-13197984D01*
X13463039Y-13197984D02*
X13443991Y-13188460D01*
X13443991Y-13188460D02*
X13434467Y-13178936D01*
X13434467Y-13178936D02*
X13424943Y-13159888D01*
X13424943Y-13159888D02*
X13415420Y-13121793D01*
X13415420Y-13121793D02*
X13415420Y-13074174D01*
X13415420Y-13074174D02*
X13424943Y-13036079D01*
X13424943Y-13036079D02*
X13434467Y-13017031D01*
X13434467Y-13017031D02*
X13443991Y-13007508D01*
X13443991Y-13007508D02*
X13463039Y-12997984D01*
X13615420Y-13197984D02*
X13615420Y-13064650D01*
X13615420Y-13083698D02*
X13624943Y-13074174D01*
X13624943Y-13074174D02*
X13643991Y-13064650D01*
X13643991Y-13064650D02*
X13672563Y-13064650D01*
X13672563Y-13064650D02*
X13691610Y-13074174D01*
X13691610Y-13074174D02*
X13701134Y-13093222D01*
X13701134Y-13093222D02*
X13701134Y-13197984D01*
X13701134Y-13093222D02*
X13710658Y-13074174D01*
X13710658Y-13074174D02*
X13729705Y-13064650D01*
X13729705Y-13064650D02*
X13758277Y-13064650D01*
X13758277Y-13064650D02*
X13777324Y-13074174D01*
X13777324Y-13074174D02*
X13786848Y-13093222D01*
X13786848Y-13093222D02*
X13786848Y-13197984D01*
X13882086Y-13197984D02*
X13882086Y-13064650D01*
X13882086Y-13083698D02*
X13891610Y-13074174D01*
X13891610Y-13074174D02*
X13910658Y-13064650D01*
X13910658Y-13064650D02*
X13939229Y-13064650D01*
X13939229Y-13064650D02*
X13958277Y-13074174D01*
X13958277Y-13074174D02*
X13967801Y-13093222D01*
X13967801Y-13093222D02*
X13967801Y-13197984D01*
X13967801Y-13093222D02*
X13977324Y-13074174D01*
X13977324Y-13074174D02*
X13996372Y-13064650D01*
X13996372Y-13064650D02*
X14024943Y-13064650D01*
X14024943Y-13064650D02*
X14043991Y-13074174D01*
X14043991Y-13074174D02*
X14053515Y-13093222D01*
X14053515Y-13093222D02*
X14053515Y-13197984D01*
X14443991Y-12988460D02*
X14272563Y-13245603D01*
X14701134Y-12997984D02*
X14720182Y-12997984D01*
X14720182Y-12997984D02*
X14739229Y-13007508D01*
X14739229Y-13007508D02*
X14748753Y-13017031D01*
X14748753Y-13017031D02*
X14758277Y-13036079D01*
X14758277Y-13036079D02*
X14767801Y-13074174D01*
X14767801Y-13074174D02*
X14767801Y-13121793D01*
X14767801Y-13121793D02*
X14758277Y-13159888D01*
X14758277Y-13159888D02*
X14748753Y-13178936D01*
X14748753Y-13178936D02*
X14739229Y-13188460D01*
X14739229Y-13188460D02*
X14720182Y-13197984D01*
X14720182Y-13197984D02*
X14701134Y-13197984D01*
X14701134Y-13197984D02*
X14682086Y-13188460D01*
X14682086Y-13188460D02*
X14672563Y-13178936D01*
X14672563Y-13178936D02*
X14663039Y-13159888D01*
X14663039Y-13159888D02*
X14653515Y-13121793D01*
X14653515Y-13121793D02*
X14653515Y-13074174D01*
X14653515Y-13074174D02*
X14663039Y-13036079D01*
X14663039Y-13036079D02*
X14672563Y-13017031D01*
X14672563Y-13017031D02*
X14682086Y-13007508D01*
X14682086Y-13007508D02*
X14701134Y-12997984D01*
X14853515Y-13178936D02*
X14863039Y-13188460D01*
X14863039Y-13188460D02*
X14853515Y-13197984D01*
X14853515Y-13197984D02*
X14843991Y-13188460D01*
X14843991Y-13188460D02*
X14853515Y-13178936D01*
X14853515Y-13178936D02*
X14853515Y-13197984D01*
X14986848Y-12997984D02*
X15005896Y-12997984D01*
X15005896Y-12997984D02*
X15024944Y-13007508D01*
X15024944Y-13007508D02*
X15034467Y-13017031D01*
X15034467Y-13017031D02*
X15043991Y-13036079D01*
X15043991Y-13036079D02*
X15053515Y-13074174D01*
X15053515Y-13074174D02*
X15053515Y-13121793D01*
X15053515Y-13121793D02*
X15043991Y-13159888D01*
X15043991Y-13159888D02*
X15034467Y-13178936D01*
X15034467Y-13178936D02*
X15024944Y-13188460D01*
X15024944Y-13188460D02*
X15005896Y-13197984D01*
X15005896Y-13197984D02*
X14986848Y-13197984D01*
X14986848Y-13197984D02*
X14967801Y-13188460D01*
X14967801Y-13188460D02*
X14958277Y-13178936D01*
X14958277Y-13178936D02*
X14948753Y-13159888D01*
X14948753Y-13159888D02*
X14939229Y-13121793D01*
X14939229Y-13121793D02*
X14939229Y-13074174D01*
X14939229Y-13074174D02*
X14948753Y-13036079D01*
X14948753Y-13036079D02*
X14958277Y-13017031D01*
X14958277Y-13017031D02*
X14967801Y-13007508D01*
X14967801Y-13007508D02*
X14986848Y-12997984D01*
X15120182Y-12997984D02*
X15243991Y-12997984D01*
X15243991Y-12997984D02*
X15177325Y-13074174D01*
X15177325Y-13074174D02*
X15205896Y-13074174D01*
X15205896Y-13074174D02*
X15224944Y-13083698D01*
X15224944Y-13083698D02*
X15234467Y-13093222D01*
X15234467Y-13093222D02*
X15243991Y-13112269D01*
X15243991Y-13112269D02*
X15243991Y-13159888D01*
X15243991Y-13159888D02*
X15234467Y-13178936D01*
X15234467Y-13178936D02*
X15224944Y-13188460D01*
X15224944Y-13188460D02*
X15205896Y-13197984D01*
X15205896Y-13197984D02*
X15148753Y-13197984D01*
X15148753Y-13197984D02*
X15129706Y-13188460D01*
X15129706Y-13188460D02*
X15120182Y-13178936D01*
X15434467Y-13197984D02*
X15320182Y-13197984D01*
X15377325Y-13197984D02*
X15377325Y-12997984D01*
X15377325Y-12997984D02*
X15358277Y-13026555D01*
X15358277Y-13026555D02*
X15339229Y-13045603D01*
X15339229Y-13045603D02*
X15320182Y-13055127D01*
X15615420Y-12997984D02*
X15520182Y-12997984D01*
X15520182Y-12997984D02*
X15510658Y-13093222D01*
X15510658Y-13093222D02*
X15520182Y-13083698D01*
X15520182Y-13083698D02*
X15539229Y-13074174D01*
X15539229Y-13074174D02*
X15586848Y-13074174D01*
X15586848Y-13074174D02*
X15605896Y-13083698D01*
X15605896Y-13083698D02*
X15615420Y-13093222D01*
X15615420Y-13093222D02*
X15624944Y-13112269D01*
X15624944Y-13112269D02*
X15624944Y-13159888D01*
X15624944Y-13159888D02*
X15615420Y-13178936D01*
X15615420Y-13178936D02*
X15605896Y-13188460D01*
X15605896Y-13188460D02*
X15586848Y-13197984D01*
X15586848Y-13197984D02*
X15539229Y-13197984D01*
X15539229Y-13197984D02*
X15520182Y-13188460D01*
X15520182Y-13188460D02*
X15510658Y-13178936D01*
X15701134Y-12997984D02*
X15701134Y-13036079D01*
X15777325Y-12997984D02*
X15777325Y-13036079D01*
X16072563Y-13274174D02*
X16063039Y-13264650D01*
X16063039Y-13264650D02*
X16043991Y-13236079D01*
X16043991Y-13236079D02*
X16034468Y-13217031D01*
X16034468Y-13217031D02*
X16024944Y-13188460D01*
X16024944Y-13188460D02*
X16015420Y-13140841D01*
X16015420Y-13140841D02*
X16015420Y-13102746D01*
X16015420Y-13102746D02*
X16024944Y-13055127D01*
X16024944Y-13055127D02*
X16034468Y-13026555D01*
X16034468Y-13026555D02*
X16043991Y-13007508D01*
X16043991Y-13007508D02*
X16063039Y-12978936D01*
X16063039Y-12978936D02*
X16072563Y-12969412D01*
X16177325Y-13083698D02*
X16158277Y-13074174D01*
X16158277Y-13074174D02*
X16148753Y-13064650D01*
X16148753Y-13064650D02*
X16139229Y-13045603D01*
X16139229Y-13045603D02*
X16139229Y-13036079D01*
X16139229Y-13036079D02*
X16148753Y-13017031D01*
X16148753Y-13017031D02*
X16158277Y-13007508D01*
X16158277Y-13007508D02*
X16177325Y-12997984D01*
X16177325Y-12997984D02*
X16215420Y-12997984D01*
X16215420Y-12997984D02*
X16234468Y-13007508D01*
X16234468Y-13007508D02*
X16243991Y-13017031D01*
X16243991Y-13017031D02*
X16253515Y-13036079D01*
X16253515Y-13036079D02*
X16253515Y-13045603D01*
X16253515Y-13045603D02*
X16243991Y-13064650D01*
X16243991Y-13064650D02*
X16234468Y-13074174D01*
X16234468Y-13074174D02*
X16215420Y-13083698D01*
X16215420Y-13083698D02*
X16177325Y-13083698D01*
X16177325Y-13083698D02*
X16158277Y-13093222D01*
X16158277Y-13093222D02*
X16148753Y-13102746D01*
X16148753Y-13102746D02*
X16139229Y-13121793D01*
X16139229Y-13121793D02*
X16139229Y-13159888D01*
X16139229Y-13159888D02*
X16148753Y-13178936D01*
X16148753Y-13178936D02*
X16158277Y-13188460D01*
X16158277Y-13188460D02*
X16177325Y-13197984D01*
X16177325Y-13197984D02*
X16215420Y-13197984D01*
X16215420Y-13197984D02*
X16234468Y-13188460D01*
X16234468Y-13188460D02*
X16243991Y-13178936D01*
X16243991Y-13178936D02*
X16253515Y-13159888D01*
X16253515Y-13159888D02*
X16253515Y-13121793D01*
X16253515Y-13121793D02*
X16243991Y-13102746D01*
X16243991Y-13102746D02*
X16234468Y-13093222D01*
X16234468Y-13093222D02*
X16215420Y-13083698D01*
X16491610Y-13197984D02*
X16491610Y-12997984D01*
X16577325Y-13197984D02*
X16577325Y-13093222D01*
X16577325Y-13093222D02*
X16567801Y-13074174D01*
X16567801Y-13074174D02*
X16548753Y-13064650D01*
X16548753Y-13064650D02*
X16520182Y-13064650D01*
X16520182Y-13064650D02*
X16501134Y-13074174D01*
X16501134Y-13074174D02*
X16491610Y-13083698D01*
X16701134Y-13197984D02*
X16682087Y-13188460D01*
X16682087Y-13188460D02*
X16672563Y-13178936D01*
X16672563Y-13178936D02*
X16663039Y-13159888D01*
X16663039Y-13159888D02*
X16663039Y-13102746D01*
X16663039Y-13102746D02*
X16672563Y-13083698D01*
X16672563Y-13083698D02*
X16682087Y-13074174D01*
X16682087Y-13074174D02*
X16701134Y-13064650D01*
X16701134Y-13064650D02*
X16729706Y-13064650D01*
X16729706Y-13064650D02*
X16748753Y-13074174D01*
X16748753Y-13074174D02*
X16758277Y-13083698D01*
X16758277Y-13083698D02*
X16767801Y-13102746D01*
X16767801Y-13102746D02*
X16767801Y-13159888D01*
X16767801Y-13159888D02*
X16758277Y-13178936D01*
X16758277Y-13178936D02*
X16748753Y-13188460D01*
X16748753Y-13188460D02*
X16729706Y-13197984D01*
X16729706Y-13197984D02*
X16701134Y-13197984D01*
X16882087Y-13197984D02*
X16863039Y-13188460D01*
X16863039Y-13188460D02*
X16853515Y-13169412D01*
X16853515Y-13169412D02*
X16853515Y-12997984D01*
X17034468Y-13188460D02*
X17015420Y-13197984D01*
X17015420Y-13197984D02*
X16977325Y-13197984D01*
X16977325Y-13197984D02*
X16958277Y-13188460D01*
X16958277Y-13188460D02*
X16948753Y-13169412D01*
X16948753Y-13169412D02*
X16948753Y-13093222D01*
X16948753Y-13093222D02*
X16958277Y-13074174D01*
X16958277Y-13074174D02*
X16977325Y-13064650D01*
X16977325Y-13064650D02*
X17015420Y-13064650D01*
X17015420Y-13064650D02*
X17034468Y-13074174D01*
X17034468Y-13074174D02*
X17043992Y-13093222D01*
X17043992Y-13093222D02*
X17043992Y-13112269D01*
X17043992Y-13112269D02*
X16948753Y-13131317D01*
X17120182Y-13188460D02*
X17139230Y-13197984D01*
X17139230Y-13197984D02*
X17177325Y-13197984D01*
X17177325Y-13197984D02*
X17196373Y-13188460D01*
X17196373Y-13188460D02*
X17205896Y-13169412D01*
X17205896Y-13169412D02*
X17205896Y-13159888D01*
X17205896Y-13159888D02*
X17196373Y-13140841D01*
X17196373Y-13140841D02*
X17177325Y-13131317D01*
X17177325Y-13131317D02*
X17148753Y-13131317D01*
X17148753Y-13131317D02*
X17129706Y-13121793D01*
X17129706Y-13121793D02*
X17120182Y-13102746D01*
X17120182Y-13102746D02*
X17120182Y-13093222D01*
X17120182Y-13093222D02*
X17129706Y-13074174D01*
X17129706Y-13074174D02*
X17148753Y-13064650D01*
X17148753Y-13064650D02*
X17177325Y-13064650D01*
X17177325Y-13064650D02*
X17196373Y-13074174D01*
X17272563Y-13274174D02*
X17282087Y-13264650D01*
X17282087Y-13264650D02*
X17301134Y-13236079D01*
X17301134Y-13236079D02*
X17310658Y-13217031D01*
X17310658Y-13217031D02*
X17320182Y-13188460D01*
X17320182Y-13188460D02*
X17329706Y-13140841D01*
X17329706Y-13140841D02*
X17329706Y-13102746D01*
X17329706Y-13102746D02*
X17320182Y-13055127D01*
X17320182Y-13055127D02*
X17310658Y-13026555D01*
X17310658Y-13026555D02*
X17301134Y-13007508D01*
X17301134Y-13007508D02*
X17282087Y-12978936D01*
X17282087Y-12978936D02*
X17272563Y-12969412D01*
D12*
X12447500Y-13320500D02*
X12447500Y-13420500D01*
X12397500Y-13370500D02*
X12497500Y-13370500D01*
D11*
X12863039Y-13461984D02*
X12748753Y-13461984D01*
X12805896Y-13461984D02*
X12805896Y-13261984D01*
X12805896Y-13261984D02*
X12786848Y-13290555D01*
X12786848Y-13290555D02*
X12767801Y-13309603D01*
X12767801Y-13309603D02*
X12748753Y-13319127D01*
X12948753Y-13442936D02*
X12958277Y-13452460D01*
X12958277Y-13452460D02*
X12948753Y-13461984D01*
X12948753Y-13461984D02*
X12939229Y-13452460D01*
X12939229Y-13452460D02*
X12948753Y-13442936D01*
X12948753Y-13442936D02*
X12948753Y-13461984D01*
X13082086Y-13261984D02*
X13101134Y-13261984D01*
X13101134Y-13261984D02*
X13120182Y-13271508D01*
X13120182Y-13271508D02*
X13129705Y-13281031D01*
X13129705Y-13281031D02*
X13139229Y-13300079D01*
X13139229Y-13300079D02*
X13148753Y-13338174D01*
X13148753Y-13338174D02*
X13148753Y-13385793D01*
X13148753Y-13385793D02*
X13139229Y-13423888D01*
X13139229Y-13423888D02*
X13129705Y-13442936D01*
X13129705Y-13442936D02*
X13120182Y-13452460D01*
X13120182Y-13452460D02*
X13101134Y-13461984D01*
X13101134Y-13461984D02*
X13082086Y-13461984D01*
X13082086Y-13461984D02*
X13063039Y-13452460D01*
X13063039Y-13452460D02*
X13053515Y-13442936D01*
X13053515Y-13442936D02*
X13043991Y-13423888D01*
X13043991Y-13423888D02*
X13034467Y-13385793D01*
X13034467Y-13385793D02*
X13034467Y-13338174D01*
X13034467Y-13338174D02*
X13043991Y-13300079D01*
X13043991Y-13300079D02*
X13053515Y-13281031D01*
X13053515Y-13281031D02*
X13063039Y-13271508D01*
X13063039Y-13271508D02*
X13082086Y-13261984D01*
X13272562Y-13261984D02*
X13291610Y-13261984D01*
X13291610Y-13261984D02*
X13310658Y-13271508D01*
X13310658Y-13271508D02*
X13320182Y-13281031D01*
X13320182Y-13281031D02*
X13329705Y-13300079D01*
X13329705Y-13300079D02*
X13339229Y-13338174D01*
X13339229Y-13338174D02*
X13339229Y-13385793D01*
X13339229Y-13385793D02*
X13329705Y-13423888D01*
X13329705Y-13423888D02*
X13320182Y-13442936D01*
X13320182Y-13442936D02*
X13310658Y-13452460D01*
X13310658Y-13452460D02*
X13291610Y-13461984D01*
X13291610Y-13461984D02*
X13272562Y-13461984D01*
X13272562Y-13461984D02*
X13253515Y-13452460D01*
X13253515Y-13452460D02*
X13243991Y-13442936D01*
X13243991Y-13442936D02*
X13234467Y-13423888D01*
X13234467Y-13423888D02*
X13224943Y-13385793D01*
X13224943Y-13385793D02*
X13224943Y-13338174D01*
X13224943Y-13338174D02*
X13234467Y-13300079D01*
X13234467Y-13300079D02*
X13243991Y-13281031D01*
X13243991Y-13281031D02*
X13253515Y-13271508D01*
X13253515Y-13271508D02*
X13272562Y-13261984D01*
X13463039Y-13261984D02*
X13482086Y-13261984D01*
X13482086Y-13261984D02*
X13501134Y-13271508D01*
X13501134Y-13271508D02*
X13510658Y-13281031D01*
X13510658Y-13281031D02*
X13520182Y-13300079D01*
X13520182Y-13300079D02*
X13529705Y-13338174D01*
X13529705Y-13338174D02*
X13529705Y-13385793D01*
X13529705Y-13385793D02*
X13520182Y-13423888D01*
X13520182Y-13423888D02*
X13510658Y-13442936D01*
X13510658Y-13442936D02*
X13501134Y-13452460D01*
X13501134Y-13452460D02*
X13482086Y-13461984D01*
X13482086Y-13461984D02*
X13463039Y-13461984D01*
X13463039Y-13461984D02*
X13443991Y-13452460D01*
X13443991Y-13452460D02*
X13434467Y-13442936D01*
X13434467Y-13442936D02*
X13424943Y-13423888D01*
X13424943Y-13423888D02*
X13415420Y-13385793D01*
X13415420Y-13385793D02*
X13415420Y-13338174D01*
X13415420Y-13338174D02*
X13424943Y-13300079D01*
X13424943Y-13300079D02*
X13434467Y-13281031D01*
X13434467Y-13281031D02*
X13443991Y-13271508D01*
X13443991Y-13271508D02*
X13463039Y-13261984D01*
X13615420Y-13461984D02*
X13615420Y-13328650D01*
X13615420Y-13347698D02*
X13624943Y-13338174D01*
X13624943Y-13338174D02*
X13643991Y-13328650D01*
X13643991Y-13328650D02*
X13672563Y-13328650D01*
X13672563Y-13328650D02*
X13691610Y-13338174D01*
X13691610Y-13338174D02*
X13701134Y-13357222D01*
X13701134Y-13357222D02*
X13701134Y-13461984D01*
X13701134Y-13357222D02*
X13710658Y-13338174D01*
X13710658Y-13338174D02*
X13729705Y-13328650D01*
X13729705Y-13328650D02*
X13758277Y-13328650D01*
X13758277Y-13328650D02*
X13777324Y-13338174D01*
X13777324Y-13338174D02*
X13786848Y-13357222D01*
X13786848Y-13357222D02*
X13786848Y-13461984D01*
X13882086Y-13461984D02*
X13882086Y-13328650D01*
X13882086Y-13347698D02*
X13891610Y-13338174D01*
X13891610Y-13338174D02*
X13910658Y-13328650D01*
X13910658Y-13328650D02*
X13939229Y-13328650D01*
X13939229Y-13328650D02*
X13958277Y-13338174D01*
X13958277Y-13338174D02*
X13967801Y-13357222D01*
X13967801Y-13357222D02*
X13967801Y-13461984D01*
X13967801Y-13357222D02*
X13977324Y-13338174D01*
X13977324Y-13338174D02*
X13996372Y-13328650D01*
X13996372Y-13328650D02*
X14024943Y-13328650D01*
X14024943Y-13328650D02*
X14043991Y-13338174D01*
X14043991Y-13338174D02*
X14053515Y-13357222D01*
X14053515Y-13357222D02*
X14053515Y-13461984D01*
X14443991Y-13252460D02*
X14272563Y-13509603D01*
X14701134Y-13261984D02*
X14720182Y-13261984D01*
X14720182Y-13261984D02*
X14739229Y-13271508D01*
X14739229Y-13271508D02*
X14748753Y-13281031D01*
X14748753Y-13281031D02*
X14758277Y-13300079D01*
X14758277Y-13300079D02*
X14767801Y-13338174D01*
X14767801Y-13338174D02*
X14767801Y-13385793D01*
X14767801Y-13385793D02*
X14758277Y-13423888D01*
X14758277Y-13423888D02*
X14748753Y-13442936D01*
X14748753Y-13442936D02*
X14739229Y-13452460D01*
X14739229Y-13452460D02*
X14720182Y-13461984D01*
X14720182Y-13461984D02*
X14701134Y-13461984D01*
X14701134Y-13461984D02*
X14682086Y-13452460D01*
X14682086Y-13452460D02*
X14672563Y-13442936D01*
X14672563Y-13442936D02*
X14663039Y-13423888D01*
X14663039Y-13423888D02*
X14653515Y-13385793D01*
X14653515Y-13385793D02*
X14653515Y-13338174D01*
X14653515Y-13338174D02*
X14663039Y-13300079D01*
X14663039Y-13300079D02*
X14672563Y-13281031D01*
X14672563Y-13281031D02*
X14682086Y-13271508D01*
X14682086Y-13271508D02*
X14701134Y-13261984D01*
X14853515Y-13442936D02*
X14863039Y-13452460D01*
X14863039Y-13452460D02*
X14853515Y-13461984D01*
X14853515Y-13461984D02*
X14843991Y-13452460D01*
X14843991Y-13452460D02*
X14853515Y-13442936D01*
X14853515Y-13442936D02*
X14853515Y-13461984D01*
X14986848Y-13261984D02*
X15005896Y-13261984D01*
X15005896Y-13261984D02*
X15024944Y-13271508D01*
X15024944Y-13271508D02*
X15034467Y-13281031D01*
X15034467Y-13281031D02*
X15043991Y-13300079D01*
X15043991Y-13300079D02*
X15053515Y-13338174D01*
X15053515Y-13338174D02*
X15053515Y-13385793D01*
X15053515Y-13385793D02*
X15043991Y-13423888D01*
X15043991Y-13423888D02*
X15034467Y-13442936D01*
X15034467Y-13442936D02*
X15024944Y-13452460D01*
X15024944Y-13452460D02*
X15005896Y-13461984D01*
X15005896Y-13461984D02*
X14986848Y-13461984D01*
X14986848Y-13461984D02*
X14967801Y-13452460D01*
X14967801Y-13452460D02*
X14958277Y-13442936D01*
X14958277Y-13442936D02*
X14948753Y-13423888D01*
X14948753Y-13423888D02*
X14939229Y-13385793D01*
X14939229Y-13385793D02*
X14939229Y-13338174D01*
X14939229Y-13338174D02*
X14948753Y-13300079D01*
X14948753Y-13300079D02*
X14958277Y-13281031D01*
X14958277Y-13281031D02*
X14967801Y-13271508D01*
X14967801Y-13271508D02*
X14986848Y-13261984D01*
X15120182Y-13261984D02*
X15243991Y-13261984D01*
X15243991Y-13261984D02*
X15177325Y-13338174D01*
X15177325Y-13338174D02*
X15205896Y-13338174D01*
X15205896Y-13338174D02*
X15224944Y-13347698D01*
X15224944Y-13347698D02*
X15234467Y-13357222D01*
X15234467Y-13357222D02*
X15243991Y-13376269D01*
X15243991Y-13376269D02*
X15243991Y-13423888D01*
X15243991Y-13423888D02*
X15234467Y-13442936D01*
X15234467Y-13442936D02*
X15224944Y-13452460D01*
X15224944Y-13452460D02*
X15205896Y-13461984D01*
X15205896Y-13461984D02*
X15148753Y-13461984D01*
X15148753Y-13461984D02*
X15129706Y-13452460D01*
X15129706Y-13452460D02*
X15120182Y-13442936D01*
X15339229Y-13461984D02*
X15377325Y-13461984D01*
X15377325Y-13461984D02*
X15396372Y-13452460D01*
X15396372Y-13452460D02*
X15405896Y-13442936D01*
X15405896Y-13442936D02*
X15424944Y-13414365D01*
X15424944Y-13414365D02*
X15434467Y-13376269D01*
X15434467Y-13376269D02*
X15434467Y-13300079D01*
X15434467Y-13300079D02*
X15424944Y-13281031D01*
X15424944Y-13281031D02*
X15415420Y-13271508D01*
X15415420Y-13271508D02*
X15396372Y-13261984D01*
X15396372Y-13261984D02*
X15358277Y-13261984D01*
X15358277Y-13261984D02*
X15339229Y-13271508D01*
X15339229Y-13271508D02*
X15329706Y-13281031D01*
X15329706Y-13281031D02*
X15320182Y-13300079D01*
X15320182Y-13300079D02*
X15320182Y-13347698D01*
X15320182Y-13347698D02*
X15329706Y-13366746D01*
X15329706Y-13366746D02*
X15339229Y-13376269D01*
X15339229Y-13376269D02*
X15358277Y-13385793D01*
X15358277Y-13385793D02*
X15396372Y-13385793D01*
X15396372Y-13385793D02*
X15415420Y-13376269D01*
X15415420Y-13376269D02*
X15424944Y-13366746D01*
X15424944Y-13366746D02*
X15434467Y-13347698D01*
X15605896Y-13328650D02*
X15605896Y-13461984D01*
X15558277Y-13252460D02*
X15510658Y-13395317D01*
X15510658Y-13395317D02*
X15634467Y-13395317D01*
X15701134Y-13261984D02*
X15701134Y-13300079D01*
X15777325Y-13261984D02*
X15777325Y-13300079D01*
X16072563Y-13538174D02*
X16063039Y-13528650D01*
X16063039Y-13528650D02*
X16043991Y-13500079D01*
X16043991Y-13500079D02*
X16034468Y-13481031D01*
X16034468Y-13481031D02*
X16024944Y-13452460D01*
X16024944Y-13452460D02*
X16015420Y-13404841D01*
X16015420Y-13404841D02*
X16015420Y-13366746D01*
X16015420Y-13366746D02*
X16024944Y-13319127D01*
X16024944Y-13319127D02*
X16034468Y-13290555D01*
X16034468Y-13290555D02*
X16043991Y-13271508D01*
X16043991Y-13271508D02*
X16063039Y-13242936D01*
X16063039Y-13242936D02*
X16072563Y-13233412D01*
X16253515Y-13461984D02*
X16139229Y-13461984D01*
X16196372Y-13461984D02*
X16196372Y-13261984D01*
X16196372Y-13261984D02*
X16177325Y-13290555D01*
X16177325Y-13290555D02*
X16158277Y-13309603D01*
X16158277Y-13309603D02*
X16139229Y-13319127D01*
X16424944Y-13328650D02*
X16424944Y-13461984D01*
X16377325Y-13252460D02*
X16329706Y-13395317D01*
X16329706Y-13395317D02*
X16453515Y-13395317D01*
X16682087Y-13461984D02*
X16682087Y-13261984D01*
X16767801Y-13461984D02*
X16767801Y-13357222D01*
X16767801Y-13357222D02*
X16758277Y-13338174D01*
X16758277Y-13338174D02*
X16739230Y-13328650D01*
X16739230Y-13328650D02*
X16710658Y-13328650D01*
X16710658Y-13328650D02*
X16691610Y-13338174D01*
X16691610Y-13338174D02*
X16682087Y-13347698D01*
X16891611Y-13461984D02*
X16872563Y-13452460D01*
X16872563Y-13452460D02*
X16863039Y-13442936D01*
X16863039Y-13442936D02*
X16853515Y-13423888D01*
X16853515Y-13423888D02*
X16853515Y-13366746D01*
X16853515Y-13366746D02*
X16863039Y-13347698D01*
X16863039Y-13347698D02*
X16872563Y-13338174D01*
X16872563Y-13338174D02*
X16891611Y-13328650D01*
X16891611Y-13328650D02*
X16920182Y-13328650D01*
X16920182Y-13328650D02*
X16939230Y-13338174D01*
X16939230Y-13338174D02*
X16948753Y-13347698D01*
X16948753Y-13347698D02*
X16958277Y-13366746D01*
X16958277Y-13366746D02*
X16958277Y-13423888D01*
X16958277Y-13423888D02*
X16948753Y-13442936D01*
X16948753Y-13442936D02*
X16939230Y-13452460D01*
X16939230Y-13452460D02*
X16920182Y-13461984D01*
X16920182Y-13461984D02*
X16891611Y-13461984D01*
X17072563Y-13461984D02*
X17053515Y-13452460D01*
X17053515Y-13452460D02*
X17043992Y-13433412D01*
X17043992Y-13433412D02*
X17043992Y-13261984D01*
X17224944Y-13452460D02*
X17205896Y-13461984D01*
X17205896Y-13461984D02*
X17167801Y-13461984D01*
X17167801Y-13461984D02*
X17148753Y-13452460D01*
X17148753Y-13452460D02*
X17139230Y-13433412D01*
X17139230Y-13433412D02*
X17139230Y-13357222D01*
X17139230Y-13357222D02*
X17148753Y-13338174D01*
X17148753Y-13338174D02*
X17167801Y-13328650D01*
X17167801Y-13328650D02*
X17205896Y-13328650D01*
X17205896Y-13328650D02*
X17224944Y-13338174D01*
X17224944Y-13338174D02*
X17234468Y-13357222D01*
X17234468Y-13357222D02*
X17234468Y-13376269D01*
X17234468Y-13376269D02*
X17139230Y-13395317D01*
X17310658Y-13452460D02*
X17329706Y-13461984D01*
X17329706Y-13461984D02*
X17367801Y-13461984D01*
X17367801Y-13461984D02*
X17386849Y-13452460D01*
X17386849Y-13452460D02*
X17396373Y-13433412D01*
X17396373Y-13433412D02*
X17396373Y-13423888D01*
X17396373Y-13423888D02*
X17386849Y-13404841D01*
X17386849Y-13404841D02*
X17367801Y-13395317D01*
X17367801Y-13395317D02*
X17339230Y-13395317D01*
X17339230Y-13395317D02*
X17320182Y-13385793D01*
X17320182Y-13385793D02*
X17310658Y-13366746D01*
X17310658Y-13366746D02*
X17310658Y-13357222D01*
X17310658Y-13357222D02*
X17320182Y-13338174D01*
X17320182Y-13338174D02*
X17339230Y-13328650D01*
X17339230Y-13328650D02*
X17367801Y-13328650D01*
X17367801Y-13328650D02*
X17386849Y-13338174D01*
X17463039Y-13538174D02*
X17472563Y-13528650D01*
X17472563Y-13528650D02*
X17491611Y-13500079D01*
X17491611Y-13500079D02*
X17501134Y-13481031D01*
X17501134Y-13481031D02*
X17510658Y-13452460D01*
X17510658Y-13452460D02*
X17520182Y-13404841D01*
X17520182Y-13404841D02*
X17520182Y-13366746D01*
X17520182Y-13366746D02*
X17510658Y-13319127D01*
X17510658Y-13319127D02*
X17501134Y-13290555D01*
X17501134Y-13290555D02*
X17491611Y-13271508D01*
X17491611Y-13271508D02*
X17472563Y-13242936D01*
X17472563Y-13242936D02*
X17463039Y-13233412D01*
D13*
X12481391Y-13673391D02*
X12481391Y-13595609D01*
X12403609Y-13595609D01*
X12403609Y-13673391D01*
X12481391Y-13673391D01*
D11*
X12863039Y-13725984D02*
X12748753Y-13725984D01*
X12805896Y-13725984D02*
X12805896Y-13525984D01*
X12805896Y-13525984D02*
X12786848Y-13554555D01*
X12786848Y-13554555D02*
X12767801Y-13573603D01*
X12767801Y-13573603D02*
X12748753Y-13583127D01*
X12948753Y-13706936D02*
X12958277Y-13716460D01*
X12958277Y-13716460D02*
X12948753Y-13725984D01*
X12948753Y-13725984D02*
X12939229Y-13716460D01*
X12939229Y-13716460D02*
X12948753Y-13706936D01*
X12948753Y-13706936D02*
X12948753Y-13725984D01*
X13148753Y-13725984D02*
X13034467Y-13725984D01*
X13091610Y-13725984D02*
X13091610Y-13525984D01*
X13091610Y-13525984D02*
X13072562Y-13554555D01*
X13072562Y-13554555D02*
X13053515Y-13573603D01*
X13053515Y-13573603D02*
X13034467Y-13583127D01*
X13272562Y-13525984D02*
X13291610Y-13525984D01*
X13291610Y-13525984D02*
X13310658Y-13535508D01*
X13310658Y-13535508D02*
X13320182Y-13545031D01*
X13320182Y-13545031D02*
X13329705Y-13564079D01*
X13329705Y-13564079D02*
X13339229Y-13602174D01*
X13339229Y-13602174D02*
X13339229Y-13649793D01*
X13339229Y-13649793D02*
X13329705Y-13687888D01*
X13329705Y-13687888D02*
X13320182Y-13706936D01*
X13320182Y-13706936D02*
X13310658Y-13716460D01*
X13310658Y-13716460D02*
X13291610Y-13725984D01*
X13291610Y-13725984D02*
X13272562Y-13725984D01*
X13272562Y-13725984D02*
X13253515Y-13716460D01*
X13253515Y-13716460D02*
X13243991Y-13706936D01*
X13243991Y-13706936D02*
X13234467Y-13687888D01*
X13234467Y-13687888D02*
X13224943Y-13649793D01*
X13224943Y-13649793D02*
X13224943Y-13602174D01*
X13224943Y-13602174D02*
X13234467Y-13564079D01*
X13234467Y-13564079D02*
X13243991Y-13545031D01*
X13243991Y-13545031D02*
X13253515Y-13535508D01*
X13253515Y-13535508D02*
X13272562Y-13525984D01*
X13463039Y-13525984D02*
X13482086Y-13525984D01*
X13482086Y-13525984D02*
X13501134Y-13535508D01*
X13501134Y-13535508D02*
X13510658Y-13545031D01*
X13510658Y-13545031D02*
X13520182Y-13564079D01*
X13520182Y-13564079D02*
X13529705Y-13602174D01*
X13529705Y-13602174D02*
X13529705Y-13649793D01*
X13529705Y-13649793D02*
X13520182Y-13687888D01*
X13520182Y-13687888D02*
X13510658Y-13706936D01*
X13510658Y-13706936D02*
X13501134Y-13716460D01*
X13501134Y-13716460D02*
X13482086Y-13725984D01*
X13482086Y-13725984D02*
X13463039Y-13725984D01*
X13463039Y-13725984D02*
X13443991Y-13716460D01*
X13443991Y-13716460D02*
X13434467Y-13706936D01*
X13434467Y-13706936D02*
X13424943Y-13687888D01*
X13424943Y-13687888D02*
X13415420Y-13649793D01*
X13415420Y-13649793D02*
X13415420Y-13602174D01*
X13415420Y-13602174D02*
X13424943Y-13564079D01*
X13424943Y-13564079D02*
X13434467Y-13545031D01*
X13434467Y-13545031D02*
X13443991Y-13535508D01*
X13443991Y-13535508D02*
X13463039Y-13525984D01*
X13615420Y-13725984D02*
X13615420Y-13592650D01*
X13615420Y-13611698D02*
X13624943Y-13602174D01*
X13624943Y-13602174D02*
X13643991Y-13592650D01*
X13643991Y-13592650D02*
X13672563Y-13592650D01*
X13672563Y-13592650D02*
X13691610Y-13602174D01*
X13691610Y-13602174D02*
X13701134Y-13621222D01*
X13701134Y-13621222D02*
X13701134Y-13725984D01*
X13701134Y-13621222D02*
X13710658Y-13602174D01*
X13710658Y-13602174D02*
X13729705Y-13592650D01*
X13729705Y-13592650D02*
X13758277Y-13592650D01*
X13758277Y-13592650D02*
X13777324Y-13602174D01*
X13777324Y-13602174D02*
X13786848Y-13621222D01*
X13786848Y-13621222D02*
X13786848Y-13725984D01*
X13882086Y-13725984D02*
X13882086Y-13592650D01*
X13882086Y-13611698D02*
X13891610Y-13602174D01*
X13891610Y-13602174D02*
X13910658Y-13592650D01*
X13910658Y-13592650D02*
X13939229Y-13592650D01*
X13939229Y-13592650D02*
X13958277Y-13602174D01*
X13958277Y-13602174D02*
X13967801Y-13621222D01*
X13967801Y-13621222D02*
X13967801Y-13725984D01*
X13967801Y-13621222D02*
X13977324Y-13602174D01*
X13977324Y-13602174D02*
X13996372Y-13592650D01*
X13996372Y-13592650D02*
X14024943Y-13592650D01*
X14024943Y-13592650D02*
X14043991Y-13602174D01*
X14043991Y-13602174D02*
X14053515Y-13621222D01*
X14053515Y-13621222D02*
X14053515Y-13725984D01*
X14443991Y-13516460D02*
X14272563Y-13773603D01*
X14701134Y-13525984D02*
X14720182Y-13525984D01*
X14720182Y-13525984D02*
X14739229Y-13535508D01*
X14739229Y-13535508D02*
X14748753Y-13545031D01*
X14748753Y-13545031D02*
X14758277Y-13564079D01*
X14758277Y-13564079D02*
X14767801Y-13602174D01*
X14767801Y-13602174D02*
X14767801Y-13649793D01*
X14767801Y-13649793D02*
X14758277Y-13687888D01*
X14758277Y-13687888D02*
X14748753Y-13706936D01*
X14748753Y-13706936D02*
X14739229Y-13716460D01*
X14739229Y-13716460D02*
X14720182Y-13725984D01*
X14720182Y-13725984D02*
X14701134Y-13725984D01*
X14701134Y-13725984D02*
X14682086Y-13716460D01*
X14682086Y-13716460D02*
X14672563Y-13706936D01*
X14672563Y-13706936D02*
X14663039Y-13687888D01*
X14663039Y-13687888D02*
X14653515Y-13649793D01*
X14653515Y-13649793D02*
X14653515Y-13602174D01*
X14653515Y-13602174D02*
X14663039Y-13564079D01*
X14663039Y-13564079D02*
X14672563Y-13545031D01*
X14672563Y-13545031D02*
X14682086Y-13535508D01*
X14682086Y-13535508D02*
X14701134Y-13525984D01*
X14853515Y-13706936D02*
X14863039Y-13716460D01*
X14863039Y-13716460D02*
X14853515Y-13725984D01*
X14853515Y-13725984D02*
X14843991Y-13716460D01*
X14843991Y-13716460D02*
X14853515Y-13706936D01*
X14853515Y-13706936D02*
X14853515Y-13725984D01*
X14986848Y-13525984D02*
X15005896Y-13525984D01*
X15005896Y-13525984D02*
X15024944Y-13535508D01*
X15024944Y-13535508D02*
X15034467Y-13545031D01*
X15034467Y-13545031D02*
X15043991Y-13564079D01*
X15043991Y-13564079D02*
X15053515Y-13602174D01*
X15053515Y-13602174D02*
X15053515Y-13649793D01*
X15053515Y-13649793D02*
X15043991Y-13687888D01*
X15043991Y-13687888D02*
X15034467Y-13706936D01*
X15034467Y-13706936D02*
X15024944Y-13716460D01*
X15024944Y-13716460D02*
X15005896Y-13725984D01*
X15005896Y-13725984D02*
X14986848Y-13725984D01*
X14986848Y-13725984D02*
X14967801Y-13716460D01*
X14967801Y-13716460D02*
X14958277Y-13706936D01*
X14958277Y-13706936D02*
X14948753Y-13687888D01*
X14948753Y-13687888D02*
X14939229Y-13649793D01*
X14939229Y-13649793D02*
X14939229Y-13602174D01*
X14939229Y-13602174D02*
X14948753Y-13564079D01*
X14948753Y-13564079D02*
X14958277Y-13545031D01*
X14958277Y-13545031D02*
X14967801Y-13535508D01*
X14967801Y-13535508D02*
X14986848Y-13525984D01*
X15224944Y-13592650D02*
X15224944Y-13725984D01*
X15177325Y-13516460D02*
X15129706Y-13659317D01*
X15129706Y-13659317D02*
X15253515Y-13659317D01*
X15310658Y-13525984D02*
X15434467Y-13525984D01*
X15434467Y-13525984D02*
X15367801Y-13602174D01*
X15367801Y-13602174D02*
X15396372Y-13602174D01*
X15396372Y-13602174D02*
X15415420Y-13611698D01*
X15415420Y-13611698D02*
X15424944Y-13621222D01*
X15424944Y-13621222D02*
X15434467Y-13640269D01*
X15434467Y-13640269D02*
X15434467Y-13687888D01*
X15434467Y-13687888D02*
X15424944Y-13706936D01*
X15424944Y-13706936D02*
X15415420Y-13716460D01*
X15415420Y-13716460D02*
X15396372Y-13725984D01*
X15396372Y-13725984D02*
X15339229Y-13725984D01*
X15339229Y-13725984D02*
X15320182Y-13716460D01*
X15320182Y-13716460D02*
X15310658Y-13706936D01*
X15501134Y-13525984D02*
X15624944Y-13525984D01*
X15624944Y-13525984D02*
X15558277Y-13602174D01*
X15558277Y-13602174D02*
X15586848Y-13602174D01*
X15586848Y-13602174D02*
X15605896Y-13611698D01*
X15605896Y-13611698D02*
X15615420Y-13621222D01*
X15615420Y-13621222D02*
X15624944Y-13640269D01*
X15624944Y-13640269D02*
X15624944Y-13687888D01*
X15624944Y-13687888D02*
X15615420Y-13706936D01*
X15615420Y-13706936D02*
X15605896Y-13716460D01*
X15605896Y-13716460D02*
X15586848Y-13725984D01*
X15586848Y-13725984D02*
X15529706Y-13725984D01*
X15529706Y-13725984D02*
X15510658Y-13716460D01*
X15510658Y-13716460D02*
X15501134Y-13706936D01*
X15701134Y-13525984D02*
X15701134Y-13564079D01*
X15777325Y-13525984D02*
X15777325Y-13564079D01*
X16072563Y-13802174D02*
X16063039Y-13792650D01*
X16063039Y-13792650D02*
X16043991Y-13764079D01*
X16043991Y-13764079D02*
X16034468Y-13745031D01*
X16034468Y-13745031D02*
X16024944Y-13716460D01*
X16024944Y-13716460D02*
X16015420Y-13668841D01*
X16015420Y-13668841D02*
X16015420Y-13630746D01*
X16015420Y-13630746D02*
X16024944Y-13583127D01*
X16024944Y-13583127D02*
X16034468Y-13554555D01*
X16034468Y-13554555D02*
X16043991Y-13535508D01*
X16043991Y-13535508D02*
X16063039Y-13506936D01*
X16063039Y-13506936D02*
X16072563Y-13497412D01*
X16177325Y-13611698D02*
X16158277Y-13602174D01*
X16158277Y-13602174D02*
X16148753Y-13592650D01*
X16148753Y-13592650D02*
X16139229Y-13573603D01*
X16139229Y-13573603D02*
X16139229Y-13564079D01*
X16139229Y-13564079D02*
X16148753Y-13545031D01*
X16148753Y-13545031D02*
X16158277Y-13535508D01*
X16158277Y-13535508D02*
X16177325Y-13525984D01*
X16177325Y-13525984D02*
X16215420Y-13525984D01*
X16215420Y-13525984D02*
X16234468Y-13535508D01*
X16234468Y-13535508D02*
X16243991Y-13545031D01*
X16243991Y-13545031D02*
X16253515Y-13564079D01*
X16253515Y-13564079D02*
X16253515Y-13573603D01*
X16253515Y-13573603D02*
X16243991Y-13592650D01*
X16243991Y-13592650D02*
X16234468Y-13602174D01*
X16234468Y-13602174D02*
X16215420Y-13611698D01*
X16215420Y-13611698D02*
X16177325Y-13611698D01*
X16177325Y-13611698D02*
X16158277Y-13621222D01*
X16158277Y-13621222D02*
X16148753Y-13630746D01*
X16148753Y-13630746D02*
X16139229Y-13649793D01*
X16139229Y-13649793D02*
X16139229Y-13687888D01*
X16139229Y-13687888D02*
X16148753Y-13706936D01*
X16148753Y-13706936D02*
X16158277Y-13716460D01*
X16158277Y-13716460D02*
X16177325Y-13725984D01*
X16177325Y-13725984D02*
X16215420Y-13725984D01*
X16215420Y-13725984D02*
X16234468Y-13716460D01*
X16234468Y-13716460D02*
X16243991Y-13706936D01*
X16243991Y-13706936D02*
X16253515Y-13687888D01*
X16253515Y-13687888D02*
X16253515Y-13649793D01*
X16253515Y-13649793D02*
X16243991Y-13630746D01*
X16243991Y-13630746D02*
X16234468Y-13621222D01*
X16234468Y-13621222D02*
X16215420Y-13611698D01*
X16491610Y-13725984D02*
X16491610Y-13525984D01*
X16577325Y-13725984D02*
X16577325Y-13621222D01*
X16577325Y-13621222D02*
X16567801Y-13602174D01*
X16567801Y-13602174D02*
X16548753Y-13592650D01*
X16548753Y-13592650D02*
X16520182Y-13592650D01*
X16520182Y-13592650D02*
X16501134Y-13602174D01*
X16501134Y-13602174D02*
X16491610Y-13611698D01*
X16701134Y-13725984D02*
X16682087Y-13716460D01*
X16682087Y-13716460D02*
X16672563Y-13706936D01*
X16672563Y-13706936D02*
X16663039Y-13687888D01*
X16663039Y-13687888D02*
X16663039Y-13630746D01*
X16663039Y-13630746D02*
X16672563Y-13611698D01*
X16672563Y-13611698D02*
X16682087Y-13602174D01*
X16682087Y-13602174D02*
X16701134Y-13592650D01*
X16701134Y-13592650D02*
X16729706Y-13592650D01*
X16729706Y-13592650D02*
X16748753Y-13602174D01*
X16748753Y-13602174D02*
X16758277Y-13611698D01*
X16758277Y-13611698D02*
X16767801Y-13630746D01*
X16767801Y-13630746D02*
X16767801Y-13687888D01*
X16767801Y-13687888D02*
X16758277Y-13706936D01*
X16758277Y-13706936D02*
X16748753Y-13716460D01*
X16748753Y-13716460D02*
X16729706Y-13725984D01*
X16729706Y-13725984D02*
X16701134Y-13725984D01*
X16882087Y-13725984D02*
X16863039Y-13716460D01*
X16863039Y-13716460D02*
X16853515Y-13697412D01*
X16853515Y-13697412D02*
X16853515Y-13525984D01*
X17034468Y-13716460D02*
X17015420Y-13725984D01*
X17015420Y-13725984D02*
X16977325Y-13725984D01*
X16977325Y-13725984D02*
X16958277Y-13716460D01*
X16958277Y-13716460D02*
X16948753Y-13697412D01*
X16948753Y-13697412D02*
X16948753Y-13621222D01*
X16948753Y-13621222D02*
X16958277Y-13602174D01*
X16958277Y-13602174D02*
X16977325Y-13592650D01*
X16977325Y-13592650D02*
X17015420Y-13592650D01*
X17015420Y-13592650D02*
X17034468Y-13602174D01*
X17034468Y-13602174D02*
X17043992Y-13621222D01*
X17043992Y-13621222D02*
X17043992Y-13640269D01*
X17043992Y-13640269D02*
X16948753Y-13659317D01*
X17120182Y-13716460D02*
X17139230Y-13725984D01*
X17139230Y-13725984D02*
X17177325Y-13725984D01*
X17177325Y-13725984D02*
X17196373Y-13716460D01*
X17196373Y-13716460D02*
X17205896Y-13697412D01*
X17205896Y-13697412D02*
X17205896Y-13687888D01*
X17205896Y-13687888D02*
X17196373Y-13668841D01*
X17196373Y-13668841D02*
X17177325Y-13659317D01*
X17177325Y-13659317D02*
X17148753Y-13659317D01*
X17148753Y-13659317D02*
X17129706Y-13649793D01*
X17129706Y-13649793D02*
X17120182Y-13630746D01*
X17120182Y-13630746D02*
X17120182Y-13621222D01*
X17120182Y-13621222D02*
X17129706Y-13602174D01*
X17129706Y-13602174D02*
X17148753Y-13592650D01*
X17148753Y-13592650D02*
X17177325Y-13592650D01*
X17177325Y-13592650D02*
X17196373Y-13602174D01*
X17272563Y-13802174D02*
X17282087Y-13792650D01*
X17282087Y-13792650D02*
X17301134Y-13764079D01*
X17301134Y-13764079D02*
X17310658Y-13745031D01*
X17310658Y-13745031D02*
X17320182Y-13716460D01*
X17320182Y-13716460D02*
X17329706Y-13668841D01*
X17329706Y-13668841D02*
X17329706Y-13630746D01*
X17329706Y-13630746D02*
X17320182Y-13583127D01*
X17320182Y-13583127D02*
X17310658Y-13554555D01*
X17310658Y-13554555D02*
X17301134Y-13535508D01*
X17301134Y-13535508D02*
X17282087Y-13506936D01*
X17282087Y-13506936D02*
X17272563Y-13497412D01*
D14*
X12438000Y-13958000D02*
X12497500Y-13898500D01*
X12438000Y-13839000D01*
X12378500Y-13898500D01*
X12438000Y-13958000D01*
D11*
X12863039Y-13989984D02*
X12748753Y-13989984D01*
X12805896Y-13989984D02*
X12805896Y-13789984D01*
X12805896Y-13789984D02*
X12786848Y-13818555D01*
X12786848Y-13818555D02*
X12767801Y-13837603D01*
X12767801Y-13837603D02*
X12748753Y-13847127D01*
X12948753Y-13970936D02*
X12958277Y-13980460D01*
X12958277Y-13980460D02*
X12948753Y-13989984D01*
X12948753Y-13989984D02*
X12939229Y-13980460D01*
X12939229Y-13980460D02*
X12948753Y-13970936D01*
X12948753Y-13970936D02*
X12948753Y-13989984D01*
X13148753Y-13989984D02*
X13034467Y-13989984D01*
X13091610Y-13989984D02*
X13091610Y-13789984D01*
X13091610Y-13789984D02*
X13072562Y-13818555D01*
X13072562Y-13818555D02*
X13053515Y-13837603D01*
X13053515Y-13837603D02*
X13034467Y-13847127D01*
X13243991Y-13989984D02*
X13282086Y-13989984D01*
X13282086Y-13989984D02*
X13301134Y-13980460D01*
X13301134Y-13980460D02*
X13310658Y-13970936D01*
X13310658Y-13970936D02*
X13329705Y-13942365D01*
X13329705Y-13942365D02*
X13339229Y-13904269D01*
X13339229Y-13904269D02*
X13339229Y-13828079D01*
X13339229Y-13828079D02*
X13329705Y-13809031D01*
X13329705Y-13809031D02*
X13320182Y-13799508D01*
X13320182Y-13799508D02*
X13301134Y-13789984D01*
X13301134Y-13789984D02*
X13263039Y-13789984D01*
X13263039Y-13789984D02*
X13243991Y-13799508D01*
X13243991Y-13799508D02*
X13234467Y-13809031D01*
X13234467Y-13809031D02*
X13224943Y-13828079D01*
X13224943Y-13828079D02*
X13224943Y-13875698D01*
X13224943Y-13875698D02*
X13234467Y-13894746D01*
X13234467Y-13894746D02*
X13243991Y-13904269D01*
X13243991Y-13904269D02*
X13263039Y-13913793D01*
X13263039Y-13913793D02*
X13301134Y-13913793D01*
X13301134Y-13913793D02*
X13320182Y-13904269D01*
X13320182Y-13904269D02*
X13329705Y-13894746D01*
X13329705Y-13894746D02*
X13339229Y-13875698D01*
X13463039Y-13789984D02*
X13482086Y-13789984D01*
X13482086Y-13789984D02*
X13501134Y-13799508D01*
X13501134Y-13799508D02*
X13510658Y-13809031D01*
X13510658Y-13809031D02*
X13520182Y-13828079D01*
X13520182Y-13828079D02*
X13529705Y-13866174D01*
X13529705Y-13866174D02*
X13529705Y-13913793D01*
X13529705Y-13913793D02*
X13520182Y-13951888D01*
X13520182Y-13951888D02*
X13510658Y-13970936D01*
X13510658Y-13970936D02*
X13501134Y-13980460D01*
X13501134Y-13980460D02*
X13482086Y-13989984D01*
X13482086Y-13989984D02*
X13463039Y-13989984D01*
X13463039Y-13989984D02*
X13443991Y-13980460D01*
X13443991Y-13980460D02*
X13434467Y-13970936D01*
X13434467Y-13970936D02*
X13424943Y-13951888D01*
X13424943Y-13951888D02*
X13415420Y-13913793D01*
X13415420Y-13913793D02*
X13415420Y-13866174D01*
X13415420Y-13866174D02*
X13424943Y-13828079D01*
X13424943Y-13828079D02*
X13434467Y-13809031D01*
X13434467Y-13809031D02*
X13443991Y-13799508D01*
X13443991Y-13799508D02*
X13463039Y-13789984D01*
X13615420Y-13989984D02*
X13615420Y-13856650D01*
X13615420Y-13875698D02*
X13624943Y-13866174D01*
X13624943Y-13866174D02*
X13643991Y-13856650D01*
X13643991Y-13856650D02*
X13672563Y-13856650D01*
X13672563Y-13856650D02*
X13691610Y-13866174D01*
X13691610Y-13866174D02*
X13701134Y-13885222D01*
X13701134Y-13885222D02*
X13701134Y-13989984D01*
X13701134Y-13885222D02*
X13710658Y-13866174D01*
X13710658Y-13866174D02*
X13729705Y-13856650D01*
X13729705Y-13856650D02*
X13758277Y-13856650D01*
X13758277Y-13856650D02*
X13777324Y-13866174D01*
X13777324Y-13866174D02*
X13786848Y-13885222D01*
X13786848Y-13885222D02*
X13786848Y-13989984D01*
X13882086Y-13989984D02*
X13882086Y-13856650D01*
X13882086Y-13875698D02*
X13891610Y-13866174D01*
X13891610Y-13866174D02*
X13910658Y-13856650D01*
X13910658Y-13856650D02*
X13939229Y-13856650D01*
X13939229Y-13856650D02*
X13958277Y-13866174D01*
X13958277Y-13866174D02*
X13967801Y-13885222D01*
X13967801Y-13885222D02*
X13967801Y-13989984D01*
X13967801Y-13885222D02*
X13977324Y-13866174D01*
X13977324Y-13866174D02*
X13996372Y-13856650D01*
X13996372Y-13856650D02*
X14024943Y-13856650D01*
X14024943Y-13856650D02*
X14043991Y-13866174D01*
X14043991Y-13866174D02*
X14053515Y-13885222D01*
X14053515Y-13885222D02*
X14053515Y-13989984D01*
X14443991Y-13780460D02*
X14272563Y-14037603D01*
X14701134Y-13789984D02*
X14720182Y-13789984D01*
X14720182Y-13789984D02*
X14739229Y-13799508D01*
X14739229Y-13799508D02*
X14748753Y-13809031D01*
X14748753Y-13809031D02*
X14758277Y-13828079D01*
X14758277Y-13828079D02*
X14767801Y-13866174D01*
X14767801Y-13866174D02*
X14767801Y-13913793D01*
X14767801Y-13913793D02*
X14758277Y-13951888D01*
X14758277Y-13951888D02*
X14748753Y-13970936D01*
X14748753Y-13970936D02*
X14739229Y-13980460D01*
X14739229Y-13980460D02*
X14720182Y-13989984D01*
X14720182Y-13989984D02*
X14701134Y-13989984D01*
X14701134Y-13989984D02*
X14682086Y-13980460D01*
X14682086Y-13980460D02*
X14672563Y-13970936D01*
X14672563Y-13970936D02*
X14663039Y-13951888D01*
X14663039Y-13951888D02*
X14653515Y-13913793D01*
X14653515Y-13913793D02*
X14653515Y-13866174D01*
X14653515Y-13866174D02*
X14663039Y-13828079D01*
X14663039Y-13828079D02*
X14672563Y-13809031D01*
X14672563Y-13809031D02*
X14682086Y-13799508D01*
X14682086Y-13799508D02*
X14701134Y-13789984D01*
X14853515Y-13970936D02*
X14863039Y-13980460D01*
X14863039Y-13980460D02*
X14853515Y-13989984D01*
X14853515Y-13989984D02*
X14843991Y-13980460D01*
X14843991Y-13980460D02*
X14853515Y-13970936D01*
X14853515Y-13970936D02*
X14853515Y-13989984D01*
X14986848Y-13789984D02*
X15005896Y-13789984D01*
X15005896Y-13789984D02*
X15024944Y-13799508D01*
X15024944Y-13799508D02*
X15034467Y-13809031D01*
X15034467Y-13809031D02*
X15043991Y-13828079D01*
X15043991Y-13828079D02*
X15053515Y-13866174D01*
X15053515Y-13866174D02*
X15053515Y-13913793D01*
X15053515Y-13913793D02*
X15043991Y-13951888D01*
X15043991Y-13951888D02*
X15034467Y-13970936D01*
X15034467Y-13970936D02*
X15024944Y-13980460D01*
X15024944Y-13980460D02*
X15005896Y-13989984D01*
X15005896Y-13989984D02*
X14986848Y-13989984D01*
X14986848Y-13989984D02*
X14967801Y-13980460D01*
X14967801Y-13980460D02*
X14958277Y-13970936D01*
X14958277Y-13970936D02*
X14948753Y-13951888D01*
X14948753Y-13951888D02*
X14939229Y-13913793D01*
X14939229Y-13913793D02*
X14939229Y-13866174D01*
X14939229Y-13866174D02*
X14948753Y-13828079D01*
X14948753Y-13828079D02*
X14958277Y-13809031D01*
X14958277Y-13809031D02*
X14967801Y-13799508D01*
X14967801Y-13799508D02*
X14986848Y-13789984D01*
X15224944Y-13856650D02*
X15224944Y-13989984D01*
X15177325Y-13780460D02*
X15129706Y-13923317D01*
X15129706Y-13923317D02*
X15253515Y-13923317D01*
X15415420Y-13789984D02*
X15377325Y-13789984D01*
X15377325Y-13789984D02*
X15358277Y-13799508D01*
X15358277Y-13799508D02*
X15348753Y-13809031D01*
X15348753Y-13809031D02*
X15329706Y-13837603D01*
X15329706Y-13837603D02*
X15320182Y-13875698D01*
X15320182Y-13875698D02*
X15320182Y-13951888D01*
X15320182Y-13951888D02*
X15329706Y-13970936D01*
X15329706Y-13970936D02*
X15339229Y-13980460D01*
X15339229Y-13980460D02*
X15358277Y-13989984D01*
X15358277Y-13989984D02*
X15396372Y-13989984D01*
X15396372Y-13989984D02*
X15415420Y-13980460D01*
X15415420Y-13980460D02*
X15424944Y-13970936D01*
X15424944Y-13970936D02*
X15434467Y-13951888D01*
X15434467Y-13951888D02*
X15434467Y-13904269D01*
X15434467Y-13904269D02*
X15424944Y-13885222D01*
X15424944Y-13885222D02*
X15415420Y-13875698D01*
X15415420Y-13875698D02*
X15396372Y-13866174D01*
X15396372Y-13866174D02*
X15358277Y-13866174D01*
X15358277Y-13866174D02*
X15339229Y-13875698D01*
X15339229Y-13875698D02*
X15329706Y-13885222D01*
X15329706Y-13885222D02*
X15320182Y-13904269D01*
X15529706Y-13989984D02*
X15567801Y-13989984D01*
X15567801Y-13989984D02*
X15586848Y-13980460D01*
X15586848Y-13980460D02*
X15596372Y-13970936D01*
X15596372Y-13970936D02*
X15615420Y-13942365D01*
X15615420Y-13942365D02*
X15624944Y-13904269D01*
X15624944Y-13904269D02*
X15624944Y-13828079D01*
X15624944Y-13828079D02*
X15615420Y-13809031D01*
X15615420Y-13809031D02*
X15605896Y-13799508D01*
X15605896Y-13799508D02*
X15586848Y-13789984D01*
X15586848Y-13789984D02*
X15548753Y-13789984D01*
X15548753Y-13789984D02*
X15529706Y-13799508D01*
X15529706Y-13799508D02*
X15520182Y-13809031D01*
X15520182Y-13809031D02*
X15510658Y-13828079D01*
X15510658Y-13828079D02*
X15510658Y-13875698D01*
X15510658Y-13875698D02*
X15520182Y-13894746D01*
X15520182Y-13894746D02*
X15529706Y-13904269D01*
X15529706Y-13904269D02*
X15548753Y-13913793D01*
X15548753Y-13913793D02*
X15586848Y-13913793D01*
X15586848Y-13913793D02*
X15605896Y-13904269D01*
X15605896Y-13904269D02*
X15615420Y-13894746D01*
X15615420Y-13894746D02*
X15624944Y-13875698D01*
X15701134Y-13789984D02*
X15701134Y-13828079D01*
X15777325Y-13789984D02*
X15777325Y-13828079D01*
X16072563Y-14066174D02*
X16063039Y-14056650D01*
X16063039Y-14056650D02*
X16043991Y-14028079D01*
X16043991Y-14028079D02*
X16034468Y-14009031D01*
X16034468Y-14009031D02*
X16024944Y-13980460D01*
X16024944Y-13980460D02*
X16015420Y-13932841D01*
X16015420Y-13932841D02*
X16015420Y-13894746D01*
X16015420Y-13894746D02*
X16024944Y-13847127D01*
X16024944Y-13847127D02*
X16034468Y-13818555D01*
X16034468Y-13818555D02*
X16043991Y-13799508D01*
X16043991Y-13799508D02*
X16063039Y-13770936D01*
X16063039Y-13770936D02*
X16072563Y-13761412D01*
X16129706Y-13789984D02*
X16253515Y-13789984D01*
X16253515Y-13789984D02*
X16186848Y-13866174D01*
X16186848Y-13866174D02*
X16215420Y-13866174D01*
X16215420Y-13866174D02*
X16234468Y-13875698D01*
X16234468Y-13875698D02*
X16243991Y-13885222D01*
X16243991Y-13885222D02*
X16253515Y-13904269D01*
X16253515Y-13904269D02*
X16253515Y-13951888D01*
X16253515Y-13951888D02*
X16243991Y-13970936D01*
X16243991Y-13970936D02*
X16234468Y-13980460D01*
X16234468Y-13980460D02*
X16215420Y-13989984D01*
X16215420Y-13989984D02*
X16158277Y-13989984D01*
X16158277Y-13989984D02*
X16139229Y-13980460D01*
X16139229Y-13980460D02*
X16129706Y-13970936D01*
X16491610Y-13989984D02*
X16491610Y-13789984D01*
X16577325Y-13989984D02*
X16577325Y-13885222D01*
X16577325Y-13885222D02*
X16567801Y-13866174D01*
X16567801Y-13866174D02*
X16548753Y-13856650D01*
X16548753Y-13856650D02*
X16520182Y-13856650D01*
X16520182Y-13856650D02*
X16501134Y-13866174D01*
X16501134Y-13866174D02*
X16491610Y-13875698D01*
X16701134Y-13989984D02*
X16682087Y-13980460D01*
X16682087Y-13980460D02*
X16672563Y-13970936D01*
X16672563Y-13970936D02*
X16663039Y-13951888D01*
X16663039Y-13951888D02*
X16663039Y-13894746D01*
X16663039Y-13894746D02*
X16672563Y-13875698D01*
X16672563Y-13875698D02*
X16682087Y-13866174D01*
X16682087Y-13866174D02*
X16701134Y-13856650D01*
X16701134Y-13856650D02*
X16729706Y-13856650D01*
X16729706Y-13856650D02*
X16748753Y-13866174D01*
X16748753Y-13866174D02*
X16758277Y-13875698D01*
X16758277Y-13875698D02*
X16767801Y-13894746D01*
X16767801Y-13894746D02*
X16767801Y-13951888D01*
X16767801Y-13951888D02*
X16758277Y-13970936D01*
X16758277Y-13970936D02*
X16748753Y-13980460D01*
X16748753Y-13980460D02*
X16729706Y-13989984D01*
X16729706Y-13989984D02*
X16701134Y-13989984D01*
X16882087Y-13989984D02*
X16863039Y-13980460D01*
X16863039Y-13980460D02*
X16853515Y-13961412D01*
X16853515Y-13961412D02*
X16853515Y-13789984D01*
X17034468Y-13980460D02*
X17015420Y-13989984D01*
X17015420Y-13989984D02*
X16977325Y-13989984D01*
X16977325Y-13989984D02*
X16958277Y-13980460D01*
X16958277Y-13980460D02*
X16948753Y-13961412D01*
X16948753Y-13961412D02*
X16948753Y-13885222D01*
X16948753Y-13885222D02*
X16958277Y-13866174D01*
X16958277Y-13866174D02*
X16977325Y-13856650D01*
X16977325Y-13856650D02*
X17015420Y-13856650D01*
X17015420Y-13856650D02*
X17034468Y-13866174D01*
X17034468Y-13866174D02*
X17043992Y-13885222D01*
X17043992Y-13885222D02*
X17043992Y-13904269D01*
X17043992Y-13904269D02*
X16948753Y-13923317D01*
X17120182Y-13980460D02*
X17139230Y-13989984D01*
X17139230Y-13989984D02*
X17177325Y-13989984D01*
X17177325Y-13989984D02*
X17196373Y-13980460D01*
X17196373Y-13980460D02*
X17205896Y-13961412D01*
X17205896Y-13961412D02*
X17205896Y-13951888D01*
X17205896Y-13951888D02*
X17196373Y-13932841D01*
X17196373Y-13932841D02*
X17177325Y-13923317D01*
X17177325Y-13923317D02*
X17148753Y-13923317D01*
X17148753Y-13923317D02*
X17129706Y-13913793D01*
X17129706Y-13913793D02*
X17120182Y-13894746D01*
X17120182Y-13894746D02*
X17120182Y-13885222D01*
X17120182Y-13885222D02*
X17129706Y-13866174D01*
X17129706Y-13866174D02*
X17148753Y-13856650D01*
X17148753Y-13856650D02*
X17177325Y-13856650D01*
X17177325Y-13856650D02*
X17196373Y-13866174D01*
X17272563Y-14066174D02*
X17282087Y-14056650D01*
X17282087Y-14056650D02*
X17301134Y-14028079D01*
X17301134Y-14028079D02*
X17310658Y-14009031D01*
X17310658Y-14009031D02*
X17320182Y-13980460D01*
X17320182Y-13980460D02*
X17329706Y-13932841D01*
X17329706Y-13932841D02*
X17329706Y-13894746D01*
X17329706Y-13894746D02*
X17320182Y-13847127D01*
X17320182Y-13847127D02*
X17310658Y-13818555D01*
X17310658Y-13818555D02*
X17301134Y-13799508D01*
X17301134Y-13799508D02*
X17282087Y-13770936D01*
X17282087Y-13770936D02*
X17272563Y-13761412D01*
D15*
X12377500Y-14102500D02*
X12497500Y-14222500D01*
X12497500Y-14102500D02*
X12377500Y-14222500D01*
X12497500Y-14162500D02*
G75*
G02*
X12377500Y-14162500I-60000J0D01*
G01*
X12377500Y-14162500D02*
G75*
G02*
X12497500Y-14162500I60000J0D01*
G01*
D11*
X12863039Y-14253984D02*
X12748753Y-14253984D01*
X12805896Y-14253984D02*
X12805896Y-14053984D01*
X12805896Y-14053984D02*
X12786848Y-14082555D01*
X12786848Y-14082555D02*
X12767801Y-14101603D01*
X12767801Y-14101603D02*
X12748753Y-14111127D01*
X12948753Y-14234936D02*
X12958277Y-14244460D01*
X12958277Y-14244460D02*
X12948753Y-14253984D01*
X12948753Y-14253984D02*
X12939229Y-14244460D01*
X12939229Y-14244460D02*
X12948753Y-14234936D01*
X12948753Y-14234936D02*
X12948753Y-14253984D01*
X13034467Y-14073031D02*
X13043991Y-14063508D01*
X13043991Y-14063508D02*
X13063039Y-14053984D01*
X13063039Y-14053984D02*
X13110658Y-14053984D01*
X13110658Y-14053984D02*
X13129705Y-14063508D01*
X13129705Y-14063508D02*
X13139229Y-14073031D01*
X13139229Y-14073031D02*
X13148753Y-14092079D01*
X13148753Y-14092079D02*
X13148753Y-14111127D01*
X13148753Y-14111127D02*
X13139229Y-14139698D01*
X13139229Y-14139698D02*
X13024943Y-14253984D01*
X13024943Y-14253984D02*
X13148753Y-14253984D01*
X13272562Y-14053984D02*
X13291610Y-14053984D01*
X13291610Y-14053984D02*
X13310658Y-14063508D01*
X13310658Y-14063508D02*
X13320182Y-14073031D01*
X13320182Y-14073031D02*
X13329705Y-14092079D01*
X13329705Y-14092079D02*
X13339229Y-14130174D01*
X13339229Y-14130174D02*
X13339229Y-14177793D01*
X13339229Y-14177793D02*
X13329705Y-14215888D01*
X13329705Y-14215888D02*
X13320182Y-14234936D01*
X13320182Y-14234936D02*
X13310658Y-14244460D01*
X13310658Y-14244460D02*
X13291610Y-14253984D01*
X13291610Y-14253984D02*
X13272562Y-14253984D01*
X13272562Y-14253984D02*
X13253515Y-14244460D01*
X13253515Y-14244460D02*
X13243991Y-14234936D01*
X13243991Y-14234936D02*
X13234467Y-14215888D01*
X13234467Y-14215888D02*
X13224943Y-14177793D01*
X13224943Y-14177793D02*
X13224943Y-14130174D01*
X13224943Y-14130174D02*
X13234467Y-14092079D01*
X13234467Y-14092079D02*
X13243991Y-14073031D01*
X13243991Y-14073031D02*
X13253515Y-14063508D01*
X13253515Y-14063508D02*
X13272562Y-14053984D01*
X13463039Y-14053984D02*
X13482086Y-14053984D01*
X13482086Y-14053984D02*
X13501134Y-14063508D01*
X13501134Y-14063508D02*
X13510658Y-14073031D01*
X13510658Y-14073031D02*
X13520182Y-14092079D01*
X13520182Y-14092079D02*
X13529705Y-14130174D01*
X13529705Y-14130174D02*
X13529705Y-14177793D01*
X13529705Y-14177793D02*
X13520182Y-14215888D01*
X13520182Y-14215888D02*
X13510658Y-14234936D01*
X13510658Y-14234936D02*
X13501134Y-14244460D01*
X13501134Y-14244460D02*
X13482086Y-14253984D01*
X13482086Y-14253984D02*
X13463039Y-14253984D01*
X13463039Y-14253984D02*
X13443991Y-14244460D01*
X13443991Y-14244460D02*
X13434467Y-14234936D01*
X13434467Y-14234936D02*
X13424943Y-14215888D01*
X13424943Y-14215888D02*
X13415420Y-14177793D01*
X13415420Y-14177793D02*
X13415420Y-14130174D01*
X13415420Y-14130174D02*
X13424943Y-14092079D01*
X13424943Y-14092079D02*
X13434467Y-14073031D01*
X13434467Y-14073031D02*
X13443991Y-14063508D01*
X13443991Y-14063508D02*
X13463039Y-14053984D01*
X13615420Y-14253984D02*
X13615420Y-14120650D01*
X13615420Y-14139698D02*
X13624943Y-14130174D01*
X13624943Y-14130174D02*
X13643991Y-14120650D01*
X13643991Y-14120650D02*
X13672563Y-14120650D01*
X13672563Y-14120650D02*
X13691610Y-14130174D01*
X13691610Y-14130174D02*
X13701134Y-14149222D01*
X13701134Y-14149222D02*
X13701134Y-14253984D01*
X13701134Y-14149222D02*
X13710658Y-14130174D01*
X13710658Y-14130174D02*
X13729705Y-14120650D01*
X13729705Y-14120650D02*
X13758277Y-14120650D01*
X13758277Y-14120650D02*
X13777324Y-14130174D01*
X13777324Y-14130174D02*
X13786848Y-14149222D01*
X13786848Y-14149222D02*
X13786848Y-14253984D01*
X13882086Y-14253984D02*
X13882086Y-14120650D01*
X13882086Y-14139698D02*
X13891610Y-14130174D01*
X13891610Y-14130174D02*
X13910658Y-14120650D01*
X13910658Y-14120650D02*
X13939229Y-14120650D01*
X13939229Y-14120650D02*
X13958277Y-14130174D01*
X13958277Y-14130174D02*
X13967801Y-14149222D01*
X13967801Y-14149222D02*
X13967801Y-14253984D01*
X13967801Y-14149222D02*
X13977324Y-14130174D01*
X13977324Y-14130174D02*
X13996372Y-14120650D01*
X13996372Y-14120650D02*
X14024943Y-14120650D01*
X14024943Y-14120650D02*
X14043991Y-14130174D01*
X14043991Y-14130174D02*
X14053515Y-14149222D01*
X14053515Y-14149222D02*
X14053515Y-14253984D01*
X14443991Y-14044460D02*
X14272563Y-14301603D01*
X14701134Y-14053984D02*
X14720182Y-14053984D01*
X14720182Y-14053984D02*
X14739229Y-14063508D01*
X14739229Y-14063508D02*
X14748753Y-14073031D01*
X14748753Y-14073031D02*
X14758277Y-14092079D01*
X14758277Y-14092079D02*
X14767801Y-14130174D01*
X14767801Y-14130174D02*
X14767801Y-14177793D01*
X14767801Y-14177793D02*
X14758277Y-14215888D01*
X14758277Y-14215888D02*
X14748753Y-14234936D01*
X14748753Y-14234936D02*
X14739229Y-14244460D01*
X14739229Y-14244460D02*
X14720182Y-14253984D01*
X14720182Y-14253984D02*
X14701134Y-14253984D01*
X14701134Y-14253984D02*
X14682086Y-14244460D01*
X14682086Y-14244460D02*
X14672563Y-14234936D01*
X14672563Y-14234936D02*
X14663039Y-14215888D01*
X14663039Y-14215888D02*
X14653515Y-14177793D01*
X14653515Y-14177793D02*
X14653515Y-14130174D01*
X14653515Y-14130174D02*
X14663039Y-14092079D01*
X14663039Y-14092079D02*
X14672563Y-14073031D01*
X14672563Y-14073031D02*
X14682086Y-14063508D01*
X14682086Y-14063508D02*
X14701134Y-14053984D01*
X14853515Y-14234936D02*
X14863039Y-14244460D01*
X14863039Y-14244460D02*
X14853515Y-14253984D01*
X14853515Y-14253984D02*
X14843991Y-14244460D01*
X14843991Y-14244460D02*
X14853515Y-14234936D01*
X14853515Y-14234936D02*
X14853515Y-14253984D01*
X14986848Y-14053984D02*
X15005896Y-14053984D01*
X15005896Y-14053984D02*
X15024944Y-14063508D01*
X15024944Y-14063508D02*
X15034467Y-14073031D01*
X15034467Y-14073031D02*
X15043991Y-14092079D01*
X15043991Y-14092079D02*
X15053515Y-14130174D01*
X15053515Y-14130174D02*
X15053515Y-14177793D01*
X15053515Y-14177793D02*
X15043991Y-14215888D01*
X15043991Y-14215888D02*
X15034467Y-14234936D01*
X15034467Y-14234936D02*
X15024944Y-14244460D01*
X15024944Y-14244460D02*
X15005896Y-14253984D01*
X15005896Y-14253984D02*
X14986848Y-14253984D01*
X14986848Y-14253984D02*
X14967801Y-14244460D01*
X14967801Y-14244460D02*
X14958277Y-14234936D01*
X14958277Y-14234936D02*
X14948753Y-14215888D01*
X14948753Y-14215888D02*
X14939229Y-14177793D01*
X14939229Y-14177793D02*
X14939229Y-14130174D01*
X14939229Y-14130174D02*
X14948753Y-14092079D01*
X14948753Y-14092079D02*
X14958277Y-14073031D01*
X14958277Y-14073031D02*
X14967801Y-14063508D01*
X14967801Y-14063508D02*
X14986848Y-14053984D01*
X15224944Y-14120650D02*
X15224944Y-14253984D01*
X15177325Y-14044460D02*
X15129706Y-14187317D01*
X15129706Y-14187317D02*
X15253515Y-14187317D01*
X15310658Y-14053984D02*
X15443991Y-14053984D01*
X15443991Y-14053984D02*
X15358277Y-14253984D01*
X15510658Y-14073031D02*
X15520182Y-14063508D01*
X15520182Y-14063508D02*
X15539229Y-14053984D01*
X15539229Y-14053984D02*
X15586848Y-14053984D01*
X15586848Y-14053984D02*
X15605896Y-14063508D01*
X15605896Y-14063508D02*
X15615420Y-14073031D01*
X15615420Y-14073031D02*
X15624944Y-14092079D01*
X15624944Y-14092079D02*
X15624944Y-14111127D01*
X15624944Y-14111127D02*
X15615420Y-14139698D01*
X15615420Y-14139698D02*
X15501134Y-14253984D01*
X15501134Y-14253984D02*
X15624944Y-14253984D01*
X15701134Y-14053984D02*
X15701134Y-14092079D01*
X15777325Y-14053984D02*
X15777325Y-14092079D01*
X16072563Y-14330174D02*
X16063039Y-14320650D01*
X16063039Y-14320650D02*
X16043991Y-14292079D01*
X16043991Y-14292079D02*
X16034468Y-14273031D01*
X16034468Y-14273031D02*
X16024944Y-14244460D01*
X16024944Y-14244460D02*
X16015420Y-14196841D01*
X16015420Y-14196841D02*
X16015420Y-14158746D01*
X16015420Y-14158746D02*
X16024944Y-14111127D01*
X16024944Y-14111127D02*
X16034468Y-14082555D01*
X16034468Y-14082555D02*
X16043991Y-14063508D01*
X16043991Y-14063508D02*
X16063039Y-14034936D01*
X16063039Y-14034936D02*
X16072563Y-14025412D01*
X16253515Y-14253984D02*
X16139229Y-14253984D01*
X16196372Y-14253984D02*
X16196372Y-14053984D01*
X16196372Y-14053984D02*
X16177325Y-14082555D01*
X16177325Y-14082555D02*
X16158277Y-14101603D01*
X16158277Y-14101603D02*
X16139229Y-14111127D01*
X16377325Y-14053984D02*
X16396372Y-14053984D01*
X16396372Y-14053984D02*
X16415420Y-14063508D01*
X16415420Y-14063508D02*
X16424944Y-14073031D01*
X16424944Y-14073031D02*
X16434468Y-14092079D01*
X16434468Y-14092079D02*
X16443991Y-14130174D01*
X16443991Y-14130174D02*
X16443991Y-14177793D01*
X16443991Y-14177793D02*
X16434468Y-14215888D01*
X16434468Y-14215888D02*
X16424944Y-14234936D01*
X16424944Y-14234936D02*
X16415420Y-14244460D01*
X16415420Y-14244460D02*
X16396372Y-14253984D01*
X16396372Y-14253984D02*
X16377325Y-14253984D01*
X16377325Y-14253984D02*
X16358277Y-14244460D01*
X16358277Y-14244460D02*
X16348753Y-14234936D01*
X16348753Y-14234936D02*
X16339229Y-14215888D01*
X16339229Y-14215888D02*
X16329706Y-14177793D01*
X16329706Y-14177793D02*
X16329706Y-14130174D01*
X16329706Y-14130174D02*
X16339229Y-14092079D01*
X16339229Y-14092079D02*
X16348753Y-14073031D01*
X16348753Y-14073031D02*
X16358277Y-14063508D01*
X16358277Y-14063508D02*
X16377325Y-14053984D01*
X16682087Y-14253984D02*
X16682087Y-14053984D01*
X16767801Y-14253984D02*
X16767801Y-14149222D01*
X16767801Y-14149222D02*
X16758277Y-14130174D01*
X16758277Y-14130174D02*
X16739230Y-14120650D01*
X16739230Y-14120650D02*
X16710658Y-14120650D01*
X16710658Y-14120650D02*
X16691610Y-14130174D01*
X16691610Y-14130174D02*
X16682087Y-14139698D01*
X16891611Y-14253984D02*
X16872563Y-14244460D01*
X16872563Y-14244460D02*
X16863039Y-14234936D01*
X16863039Y-14234936D02*
X16853515Y-14215888D01*
X16853515Y-14215888D02*
X16853515Y-14158746D01*
X16853515Y-14158746D02*
X16863039Y-14139698D01*
X16863039Y-14139698D02*
X16872563Y-14130174D01*
X16872563Y-14130174D02*
X16891611Y-14120650D01*
X16891611Y-14120650D02*
X16920182Y-14120650D01*
X16920182Y-14120650D02*
X16939230Y-14130174D01*
X16939230Y-14130174D02*
X16948753Y-14139698D01*
X16948753Y-14139698D02*
X16958277Y-14158746D01*
X16958277Y-14158746D02*
X16958277Y-14215888D01*
X16958277Y-14215888D02*
X16948753Y-14234936D01*
X16948753Y-14234936D02*
X16939230Y-14244460D01*
X16939230Y-14244460D02*
X16920182Y-14253984D01*
X16920182Y-14253984D02*
X16891611Y-14253984D01*
X17072563Y-14253984D02*
X17053515Y-14244460D01*
X17053515Y-14244460D02*
X17043992Y-14225412D01*
X17043992Y-14225412D02*
X17043992Y-14053984D01*
X17224944Y-14244460D02*
X17205896Y-14253984D01*
X17205896Y-14253984D02*
X17167801Y-14253984D01*
X17167801Y-14253984D02*
X17148753Y-14244460D01*
X17148753Y-14244460D02*
X17139230Y-14225412D01*
X17139230Y-14225412D02*
X17139230Y-14149222D01*
X17139230Y-14149222D02*
X17148753Y-14130174D01*
X17148753Y-14130174D02*
X17167801Y-14120650D01*
X17167801Y-14120650D02*
X17205896Y-14120650D01*
X17205896Y-14120650D02*
X17224944Y-14130174D01*
X17224944Y-14130174D02*
X17234468Y-14149222D01*
X17234468Y-14149222D02*
X17234468Y-14168269D01*
X17234468Y-14168269D02*
X17139230Y-14187317D01*
X17310658Y-14244460D02*
X17329706Y-14253984D01*
X17329706Y-14253984D02*
X17367801Y-14253984D01*
X17367801Y-14253984D02*
X17386849Y-14244460D01*
X17386849Y-14244460D02*
X17396373Y-14225412D01*
X17396373Y-14225412D02*
X17396373Y-14215888D01*
X17396373Y-14215888D02*
X17386849Y-14196841D01*
X17386849Y-14196841D02*
X17367801Y-14187317D01*
X17367801Y-14187317D02*
X17339230Y-14187317D01*
X17339230Y-14187317D02*
X17320182Y-14177793D01*
X17320182Y-14177793D02*
X17310658Y-14158746D01*
X17310658Y-14158746D02*
X17310658Y-14149222D01*
X17310658Y-14149222D02*
X17320182Y-14130174D01*
X17320182Y-14130174D02*
X17339230Y-14120650D01*
X17339230Y-14120650D02*
X17367801Y-14120650D01*
X17367801Y-14120650D02*
X17386849Y-14130174D01*
X17463039Y-14330174D02*
X17472563Y-14320650D01*
X17472563Y-14320650D02*
X17491611Y-14292079D01*
X17491611Y-14292079D02*
X17501134Y-14273031D01*
X17501134Y-14273031D02*
X17510658Y-14244460D01*
X17510658Y-14244460D02*
X17520182Y-14196841D01*
X17520182Y-14196841D02*
X17520182Y-14158746D01*
X17520182Y-14158746D02*
X17510658Y-14111127D01*
X17510658Y-14111127D02*
X17501134Y-14082555D01*
X17501134Y-14082555D02*
X17491611Y-14063508D01*
X17491611Y-14063508D02*
X17472563Y-14034936D01*
X17472563Y-14034936D02*
X17463039Y-14025412D01*
M02*
