%TF.GenerationSoftware,KiCad,Pcbnew,8.0.3*%
%TF.CreationDate,2025-09-27T20:00:00+12:00*%
%TF.ProjectId,aircon-control,61697263-6f6e-42d6-936f-6e74726f6c2e,rev?*%
%TF.SameCoordinates,Original*%
%TF.FileFunction,Drillmap*%
%TF.FilePolarity,Positive*%
%FSLAX45Y45*%
G04 Gerber Fmt 4.5, Leading zero omitted, Abs format (unit mm)*
G04 Created by KiCad (PCBNEW 8.0.3) date 2025-09-27 20:00:00*
%MOMM*%
%LPD*%
G01*
G04 APERTURE LIST*
%ADD10C,0.050000*%
%ADD11C,0.200000*%
%ADD12C,0.320000*%
G04 APERTURE END LIST*
D10*
X18300000Y-7800000D02*
X18300000Y-12000000D01*
X12700000Y-12200000D02*
G75*
G02*
X12500000Y-12000000I0J200000D01*
G01*
X18100000Y-12200000D02*
X12700000Y-12200000D01*
X12500000Y-12000000D02*
X12500000Y-7800000D01*
X12700000Y-7600000D02*
X18100000Y-7600000D01*
X18300000Y-12000000D02*
G75*
G02*
X18100000Y-12200000I-200000J0D01*
G01*
X18100000Y-7600000D02*
G75*
G02*
X18300000Y-7800000I0J-200000D01*
G01*
X12500000Y-7800000D02*
G75*
G02*
X12700000Y-7600000I200000J0D01*
G01*
D11*
D12*
X12725000Y-7840000D02*
X13045000Y-8160000D01*
X13045000Y-7840000D02*
X12725000Y-8160000D01*
X12725000Y-11640000D02*
X13045000Y-11960000D01*
X13045000Y-11640000D02*
X12725000Y-11960000D01*
X17740000Y-7840000D02*
X18060000Y-8160000D01*
X18060000Y-7840000D02*
X17740000Y-8160000D01*
X17740000Y-11640000D02*
X18060000Y-11960000D01*
X18060000Y-11640000D02*
X17740000Y-11960000D01*
D11*
X12758277Y-12513984D02*
X12758277Y-12313984D01*
X12758277Y-12313984D02*
X12805896Y-12313984D01*
X12805896Y-12313984D02*
X12834467Y-12323508D01*
X12834467Y-12323508D02*
X12853515Y-12342555D01*
X12853515Y-12342555D02*
X12863039Y-12361603D01*
X12863039Y-12361603D02*
X12872562Y-12399698D01*
X12872562Y-12399698D02*
X12872562Y-12428269D01*
X12872562Y-12428269D02*
X12863039Y-12466365D01*
X12863039Y-12466365D02*
X12853515Y-12485412D01*
X12853515Y-12485412D02*
X12834467Y-12504460D01*
X12834467Y-12504460D02*
X12805896Y-12513984D01*
X12805896Y-12513984D02*
X12758277Y-12513984D01*
X12958277Y-12513984D02*
X12958277Y-12380650D01*
X12958277Y-12418746D02*
X12967801Y-12399698D01*
X12967801Y-12399698D02*
X12977324Y-12390174D01*
X12977324Y-12390174D02*
X12996372Y-12380650D01*
X12996372Y-12380650D02*
X13015420Y-12380650D01*
X13082086Y-12513984D02*
X13082086Y-12380650D01*
X13082086Y-12313984D02*
X13072562Y-12323508D01*
X13072562Y-12323508D02*
X13082086Y-12333031D01*
X13082086Y-12333031D02*
X13091610Y-12323508D01*
X13091610Y-12323508D02*
X13082086Y-12313984D01*
X13082086Y-12313984D02*
X13082086Y-12333031D01*
X13205896Y-12513984D02*
X13186848Y-12504460D01*
X13186848Y-12504460D02*
X13177324Y-12485412D01*
X13177324Y-12485412D02*
X13177324Y-12313984D01*
X13310658Y-12513984D02*
X13291610Y-12504460D01*
X13291610Y-12504460D02*
X13282086Y-12485412D01*
X13282086Y-12485412D02*
X13282086Y-12313984D01*
X13539229Y-12513984D02*
X13539229Y-12313984D01*
X13539229Y-12313984D02*
X13605896Y-12456841D01*
X13605896Y-12456841D02*
X13672562Y-12313984D01*
X13672562Y-12313984D02*
X13672562Y-12513984D01*
X13853515Y-12513984D02*
X13853515Y-12409222D01*
X13853515Y-12409222D02*
X13843991Y-12390174D01*
X13843991Y-12390174D02*
X13824943Y-12380650D01*
X13824943Y-12380650D02*
X13786848Y-12380650D01*
X13786848Y-12380650D02*
X13767801Y-12390174D01*
X13853515Y-12504460D02*
X13834467Y-12513984D01*
X13834467Y-12513984D02*
X13786848Y-12513984D01*
X13786848Y-12513984D02*
X13767801Y-12504460D01*
X13767801Y-12504460D02*
X13758277Y-12485412D01*
X13758277Y-12485412D02*
X13758277Y-12466365D01*
X13758277Y-12466365D02*
X13767801Y-12447317D01*
X13767801Y-12447317D02*
X13786848Y-12437793D01*
X13786848Y-12437793D02*
X13834467Y-12437793D01*
X13834467Y-12437793D02*
X13853515Y-12428269D01*
X13948753Y-12380650D02*
X13948753Y-12580650D01*
X13948753Y-12390174D02*
X13967801Y-12380650D01*
X13967801Y-12380650D02*
X14005896Y-12380650D01*
X14005896Y-12380650D02*
X14024943Y-12390174D01*
X14024943Y-12390174D02*
X14034467Y-12399698D01*
X14034467Y-12399698D02*
X14043991Y-12418746D01*
X14043991Y-12418746D02*
X14043991Y-12475888D01*
X14043991Y-12475888D02*
X14034467Y-12494936D01*
X14034467Y-12494936D02*
X14024943Y-12504460D01*
X14024943Y-12504460D02*
X14005896Y-12513984D01*
X14005896Y-12513984D02*
X13967801Y-12513984D01*
X13967801Y-12513984D02*
X13948753Y-12504460D01*
X14129705Y-12494936D02*
X14139229Y-12504460D01*
X14139229Y-12504460D02*
X14129705Y-12513984D01*
X14129705Y-12513984D02*
X14120182Y-12504460D01*
X14120182Y-12504460D02*
X14129705Y-12494936D01*
X14129705Y-12494936D02*
X14129705Y-12513984D01*
X14129705Y-12390174D02*
X14139229Y-12399698D01*
X14139229Y-12399698D02*
X14129705Y-12409222D01*
X14129705Y-12409222D02*
X14120182Y-12399698D01*
X14120182Y-12399698D02*
X14129705Y-12390174D01*
X14129705Y-12390174D02*
X14129705Y-12409222D01*
X12297500Y-12742500D02*
X12497500Y-12942500D01*
X12497500Y-12742500D02*
X12297500Y-12942500D01*
X12739229Y-12733984D02*
X12863039Y-12733984D01*
X12863039Y-12733984D02*
X12796372Y-12810174D01*
X12796372Y-12810174D02*
X12824943Y-12810174D01*
X12824943Y-12810174D02*
X12843991Y-12819698D01*
X12843991Y-12819698D02*
X12853515Y-12829222D01*
X12853515Y-12829222D02*
X12863039Y-12848269D01*
X12863039Y-12848269D02*
X12863039Y-12895888D01*
X12863039Y-12895888D02*
X12853515Y-12914936D01*
X12853515Y-12914936D02*
X12843991Y-12924460D01*
X12843991Y-12924460D02*
X12824943Y-12933984D01*
X12824943Y-12933984D02*
X12767801Y-12933984D01*
X12767801Y-12933984D02*
X12748753Y-12924460D01*
X12748753Y-12924460D02*
X12739229Y-12914936D01*
X12948753Y-12914936D02*
X12958277Y-12924460D01*
X12958277Y-12924460D02*
X12948753Y-12933984D01*
X12948753Y-12933984D02*
X12939229Y-12924460D01*
X12939229Y-12924460D02*
X12948753Y-12914936D01*
X12948753Y-12914936D02*
X12948753Y-12933984D01*
X13034467Y-12753031D02*
X13043991Y-12743508D01*
X13043991Y-12743508D02*
X13063039Y-12733984D01*
X13063039Y-12733984D02*
X13110658Y-12733984D01*
X13110658Y-12733984D02*
X13129705Y-12743508D01*
X13129705Y-12743508D02*
X13139229Y-12753031D01*
X13139229Y-12753031D02*
X13148753Y-12772079D01*
X13148753Y-12772079D02*
X13148753Y-12791127D01*
X13148753Y-12791127D02*
X13139229Y-12819698D01*
X13139229Y-12819698D02*
X13024943Y-12933984D01*
X13024943Y-12933984D02*
X13148753Y-12933984D01*
X13272562Y-12733984D02*
X13291610Y-12733984D01*
X13291610Y-12733984D02*
X13310658Y-12743508D01*
X13310658Y-12743508D02*
X13320182Y-12753031D01*
X13320182Y-12753031D02*
X13329705Y-12772079D01*
X13329705Y-12772079D02*
X13339229Y-12810174D01*
X13339229Y-12810174D02*
X13339229Y-12857793D01*
X13339229Y-12857793D02*
X13329705Y-12895888D01*
X13329705Y-12895888D02*
X13320182Y-12914936D01*
X13320182Y-12914936D02*
X13310658Y-12924460D01*
X13310658Y-12924460D02*
X13291610Y-12933984D01*
X13291610Y-12933984D02*
X13272562Y-12933984D01*
X13272562Y-12933984D02*
X13253515Y-12924460D01*
X13253515Y-12924460D02*
X13243991Y-12914936D01*
X13243991Y-12914936D02*
X13234467Y-12895888D01*
X13234467Y-12895888D02*
X13224943Y-12857793D01*
X13224943Y-12857793D02*
X13224943Y-12810174D01*
X13224943Y-12810174D02*
X13234467Y-12772079D01*
X13234467Y-12772079D02*
X13243991Y-12753031D01*
X13243991Y-12753031D02*
X13253515Y-12743508D01*
X13253515Y-12743508D02*
X13272562Y-12733984D01*
X13463039Y-12733984D02*
X13482086Y-12733984D01*
X13482086Y-12733984D02*
X13501134Y-12743508D01*
X13501134Y-12743508D02*
X13510658Y-12753031D01*
X13510658Y-12753031D02*
X13520182Y-12772079D01*
X13520182Y-12772079D02*
X13529705Y-12810174D01*
X13529705Y-12810174D02*
X13529705Y-12857793D01*
X13529705Y-12857793D02*
X13520182Y-12895888D01*
X13520182Y-12895888D02*
X13510658Y-12914936D01*
X13510658Y-12914936D02*
X13501134Y-12924460D01*
X13501134Y-12924460D02*
X13482086Y-12933984D01*
X13482086Y-12933984D02*
X13463039Y-12933984D01*
X13463039Y-12933984D02*
X13443991Y-12924460D01*
X13443991Y-12924460D02*
X13434467Y-12914936D01*
X13434467Y-12914936D02*
X13424943Y-12895888D01*
X13424943Y-12895888D02*
X13415420Y-12857793D01*
X13415420Y-12857793D02*
X13415420Y-12810174D01*
X13415420Y-12810174D02*
X13424943Y-12772079D01*
X13424943Y-12772079D02*
X13434467Y-12753031D01*
X13434467Y-12753031D02*
X13443991Y-12743508D01*
X13443991Y-12743508D02*
X13463039Y-12733984D01*
X13615420Y-12933984D02*
X13615420Y-12800650D01*
X13615420Y-12819698D02*
X13624943Y-12810174D01*
X13624943Y-12810174D02*
X13643991Y-12800650D01*
X13643991Y-12800650D02*
X13672563Y-12800650D01*
X13672563Y-12800650D02*
X13691610Y-12810174D01*
X13691610Y-12810174D02*
X13701134Y-12829222D01*
X13701134Y-12829222D02*
X13701134Y-12933984D01*
X13701134Y-12829222D02*
X13710658Y-12810174D01*
X13710658Y-12810174D02*
X13729705Y-12800650D01*
X13729705Y-12800650D02*
X13758277Y-12800650D01*
X13758277Y-12800650D02*
X13777324Y-12810174D01*
X13777324Y-12810174D02*
X13786848Y-12829222D01*
X13786848Y-12829222D02*
X13786848Y-12933984D01*
X13882086Y-12933984D02*
X13882086Y-12800650D01*
X13882086Y-12819698D02*
X13891610Y-12810174D01*
X13891610Y-12810174D02*
X13910658Y-12800650D01*
X13910658Y-12800650D02*
X13939229Y-12800650D01*
X13939229Y-12800650D02*
X13958277Y-12810174D01*
X13958277Y-12810174D02*
X13967801Y-12829222D01*
X13967801Y-12829222D02*
X13967801Y-12933984D01*
X13967801Y-12829222D02*
X13977324Y-12810174D01*
X13977324Y-12810174D02*
X13996372Y-12800650D01*
X13996372Y-12800650D02*
X14024943Y-12800650D01*
X14024943Y-12800650D02*
X14043991Y-12810174D01*
X14043991Y-12810174D02*
X14053515Y-12829222D01*
X14053515Y-12829222D02*
X14053515Y-12933984D01*
X14443991Y-12724460D02*
X14272563Y-12981603D01*
X14701134Y-12733984D02*
X14720182Y-12733984D01*
X14720182Y-12733984D02*
X14739229Y-12743508D01*
X14739229Y-12743508D02*
X14748753Y-12753031D01*
X14748753Y-12753031D02*
X14758277Y-12772079D01*
X14758277Y-12772079D02*
X14767801Y-12810174D01*
X14767801Y-12810174D02*
X14767801Y-12857793D01*
X14767801Y-12857793D02*
X14758277Y-12895888D01*
X14758277Y-12895888D02*
X14748753Y-12914936D01*
X14748753Y-12914936D02*
X14739229Y-12924460D01*
X14739229Y-12924460D02*
X14720182Y-12933984D01*
X14720182Y-12933984D02*
X14701134Y-12933984D01*
X14701134Y-12933984D02*
X14682086Y-12924460D01*
X14682086Y-12924460D02*
X14672563Y-12914936D01*
X14672563Y-12914936D02*
X14663039Y-12895888D01*
X14663039Y-12895888D02*
X14653515Y-12857793D01*
X14653515Y-12857793D02*
X14653515Y-12810174D01*
X14653515Y-12810174D02*
X14663039Y-12772079D01*
X14663039Y-12772079D02*
X14672563Y-12753031D01*
X14672563Y-12753031D02*
X14682086Y-12743508D01*
X14682086Y-12743508D02*
X14701134Y-12733984D01*
X14853515Y-12914936D02*
X14863039Y-12924460D01*
X14863039Y-12924460D02*
X14853515Y-12933984D01*
X14853515Y-12933984D02*
X14843991Y-12924460D01*
X14843991Y-12924460D02*
X14853515Y-12914936D01*
X14853515Y-12914936D02*
X14853515Y-12933984D01*
X15053515Y-12933984D02*
X14939229Y-12933984D01*
X14996372Y-12933984D02*
X14996372Y-12733984D01*
X14996372Y-12733984D02*
X14977325Y-12762555D01*
X14977325Y-12762555D02*
X14958277Y-12781603D01*
X14958277Y-12781603D02*
X14939229Y-12791127D01*
X15129706Y-12753031D02*
X15139229Y-12743508D01*
X15139229Y-12743508D02*
X15158277Y-12733984D01*
X15158277Y-12733984D02*
X15205896Y-12733984D01*
X15205896Y-12733984D02*
X15224944Y-12743508D01*
X15224944Y-12743508D02*
X15234467Y-12753031D01*
X15234467Y-12753031D02*
X15243991Y-12772079D01*
X15243991Y-12772079D02*
X15243991Y-12791127D01*
X15243991Y-12791127D02*
X15234467Y-12819698D01*
X15234467Y-12819698D02*
X15120182Y-12933984D01*
X15120182Y-12933984D02*
X15243991Y-12933984D01*
X15415420Y-12733984D02*
X15377325Y-12733984D01*
X15377325Y-12733984D02*
X15358277Y-12743508D01*
X15358277Y-12743508D02*
X15348753Y-12753031D01*
X15348753Y-12753031D02*
X15329706Y-12781603D01*
X15329706Y-12781603D02*
X15320182Y-12819698D01*
X15320182Y-12819698D02*
X15320182Y-12895888D01*
X15320182Y-12895888D02*
X15329706Y-12914936D01*
X15329706Y-12914936D02*
X15339229Y-12924460D01*
X15339229Y-12924460D02*
X15358277Y-12933984D01*
X15358277Y-12933984D02*
X15396372Y-12933984D01*
X15396372Y-12933984D02*
X15415420Y-12924460D01*
X15415420Y-12924460D02*
X15424944Y-12914936D01*
X15424944Y-12914936D02*
X15434467Y-12895888D01*
X15434467Y-12895888D02*
X15434467Y-12848269D01*
X15434467Y-12848269D02*
X15424944Y-12829222D01*
X15424944Y-12829222D02*
X15415420Y-12819698D01*
X15415420Y-12819698D02*
X15396372Y-12810174D01*
X15396372Y-12810174D02*
X15358277Y-12810174D01*
X15358277Y-12810174D02*
X15339229Y-12819698D01*
X15339229Y-12819698D02*
X15329706Y-12829222D01*
X15329706Y-12829222D02*
X15320182Y-12848269D01*
X15558277Y-12733984D02*
X15577325Y-12733984D01*
X15577325Y-12733984D02*
X15596372Y-12743508D01*
X15596372Y-12743508D02*
X15605896Y-12753031D01*
X15605896Y-12753031D02*
X15615420Y-12772079D01*
X15615420Y-12772079D02*
X15624944Y-12810174D01*
X15624944Y-12810174D02*
X15624944Y-12857793D01*
X15624944Y-12857793D02*
X15615420Y-12895888D01*
X15615420Y-12895888D02*
X15605896Y-12914936D01*
X15605896Y-12914936D02*
X15596372Y-12924460D01*
X15596372Y-12924460D02*
X15577325Y-12933984D01*
X15577325Y-12933984D02*
X15558277Y-12933984D01*
X15558277Y-12933984D02*
X15539229Y-12924460D01*
X15539229Y-12924460D02*
X15529706Y-12914936D01*
X15529706Y-12914936D02*
X15520182Y-12895888D01*
X15520182Y-12895888D02*
X15510658Y-12857793D01*
X15510658Y-12857793D02*
X15510658Y-12810174D01*
X15510658Y-12810174D02*
X15520182Y-12772079D01*
X15520182Y-12772079D02*
X15529706Y-12753031D01*
X15529706Y-12753031D02*
X15539229Y-12743508D01*
X15539229Y-12743508D02*
X15558277Y-12733984D01*
X15701134Y-12733984D02*
X15701134Y-12772079D01*
X15777325Y-12733984D02*
X15777325Y-12772079D01*
X16072563Y-13010174D02*
X16063039Y-13000650D01*
X16063039Y-13000650D02*
X16043991Y-12972079D01*
X16043991Y-12972079D02*
X16034468Y-12953031D01*
X16034468Y-12953031D02*
X16024944Y-12924460D01*
X16024944Y-12924460D02*
X16015420Y-12876841D01*
X16015420Y-12876841D02*
X16015420Y-12838746D01*
X16015420Y-12838746D02*
X16024944Y-12791127D01*
X16024944Y-12791127D02*
X16034468Y-12762555D01*
X16034468Y-12762555D02*
X16043991Y-12743508D01*
X16043991Y-12743508D02*
X16063039Y-12714936D01*
X16063039Y-12714936D02*
X16072563Y-12705412D01*
X16234468Y-12800650D02*
X16234468Y-12933984D01*
X16186848Y-12724460D02*
X16139229Y-12867317D01*
X16139229Y-12867317D02*
X16263039Y-12867317D01*
X16491610Y-12933984D02*
X16491610Y-12733984D01*
X16577325Y-12933984D02*
X16577325Y-12829222D01*
X16577325Y-12829222D02*
X16567801Y-12810174D01*
X16567801Y-12810174D02*
X16548753Y-12800650D01*
X16548753Y-12800650D02*
X16520182Y-12800650D01*
X16520182Y-12800650D02*
X16501134Y-12810174D01*
X16501134Y-12810174D02*
X16491610Y-12819698D01*
X16701134Y-12933984D02*
X16682087Y-12924460D01*
X16682087Y-12924460D02*
X16672563Y-12914936D01*
X16672563Y-12914936D02*
X16663039Y-12895888D01*
X16663039Y-12895888D02*
X16663039Y-12838746D01*
X16663039Y-12838746D02*
X16672563Y-12819698D01*
X16672563Y-12819698D02*
X16682087Y-12810174D01*
X16682087Y-12810174D02*
X16701134Y-12800650D01*
X16701134Y-12800650D02*
X16729706Y-12800650D01*
X16729706Y-12800650D02*
X16748753Y-12810174D01*
X16748753Y-12810174D02*
X16758277Y-12819698D01*
X16758277Y-12819698D02*
X16767801Y-12838746D01*
X16767801Y-12838746D02*
X16767801Y-12895888D01*
X16767801Y-12895888D02*
X16758277Y-12914936D01*
X16758277Y-12914936D02*
X16748753Y-12924460D01*
X16748753Y-12924460D02*
X16729706Y-12933984D01*
X16729706Y-12933984D02*
X16701134Y-12933984D01*
X16882087Y-12933984D02*
X16863039Y-12924460D01*
X16863039Y-12924460D02*
X16853515Y-12905412D01*
X16853515Y-12905412D02*
X16853515Y-12733984D01*
X17034468Y-12924460D02*
X17015420Y-12933984D01*
X17015420Y-12933984D02*
X16977325Y-12933984D01*
X16977325Y-12933984D02*
X16958277Y-12924460D01*
X16958277Y-12924460D02*
X16948753Y-12905412D01*
X16948753Y-12905412D02*
X16948753Y-12829222D01*
X16948753Y-12829222D02*
X16958277Y-12810174D01*
X16958277Y-12810174D02*
X16977325Y-12800650D01*
X16977325Y-12800650D02*
X17015420Y-12800650D01*
X17015420Y-12800650D02*
X17034468Y-12810174D01*
X17034468Y-12810174D02*
X17043992Y-12829222D01*
X17043992Y-12829222D02*
X17043992Y-12848269D01*
X17043992Y-12848269D02*
X16948753Y-12867317D01*
X17120182Y-12924460D02*
X17139230Y-12933984D01*
X17139230Y-12933984D02*
X17177325Y-12933984D01*
X17177325Y-12933984D02*
X17196373Y-12924460D01*
X17196373Y-12924460D02*
X17205896Y-12905412D01*
X17205896Y-12905412D02*
X17205896Y-12895888D01*
X17205896Y-12895888D02*
X17196373Y-12876841D01*
X17196373Y-12876841D02*
X17177325Y-12867317D01*
X17177325Y-12867317D02*
X17148753Y-12867317D01*
X17148753Y-12867317D02*
X17129706Y-12857793D01*
X17129706Y-12857793D02*
X17120182Y-12838746D01*
X17120182Y-12838746D02*
X17120182Y-12829222D01*
X17120182Y-12829222D02*
X17129706Y-12810174D01*
X17129706Y-12810174D02*
X17148753Y-12800650D01*
X17148753Y-12800650D02*
X17177325Y-12800650D01*
X17177325Y-12800650D02*
X17196373Y-12810174D01*
X17272563Y-13010174D02*
X17282087Y-13000650D01*
X17282087Y-13000650D02*
X17301134Y-12972079D01*
X17301134Y-12972079D02*
X17310658Y-12953031D01*
X17310658Y-12953031D02*
X17320182Y-12924460D01*
X17320182Y-12924460D02*
X17329706Y-12876841D01*
X17329706Y-12876841D02*
X17329706Y-12838746D01*
X17329706Y-12838746D02*
X17320182Y-12791127D01*
X17320182Y-12791127D02*
X17310658Y-12762555D01*
X17310658Y-12762555D02*
X17301134Y-12743508D01*
X17301134Y-12743508D02*
X17282087Y-12714936D01*
X17282087Y-12714936D02*
X17272563Y-12705412D01*
X17634468Y-13010174D02*
X17624944Y-13000650D01*
X17624944Y-13000650D02*
X17605896Y-12972079D01*
X17605896Y-12972079D02*
X17596373Y-12953031D01*
X17596373Y-12953031D02*
X17586849Y-12924460D01*
X17586849Y-12924460D02*
X17577325Y-12876841D01*
X17577325Y-12876841D02*
X17577325Y-12838746D01*
X17577325Y-12838746D02*
X17586849Y-12791127D01*
X17586849Y-12791127D02*
X17596373Y-12762555D01*
X17596373Y-12762555D02*
X17605896Y-12743508D01*
X17605896Y-12743508D02*
X17624944Y-12714936D01*
X17624944Y-12714936D02*
X17634468Y-12705412D01*
X17710658Y-12800650D02*
X17710658Y-12933984D01*
X17710658Y-12819698D02*
X17720182Y-12810174D01*
X17720182Y-12810174D02*
X17739230Y-12800650D01*
X17739230Y-12800650D02*
X17767801Y-12800650D01*
X17767801Y-12800650D02*
X17786849Y-12810174D01*
X17786849Y-12810174D02*
X17796373Y-12829222D01*
X17796373Y-12829222D02*
X17796373Y-12933984D01*
X17920182Y-12933984D02*
X17901134Y-12924460D01*
X17901134Y-12924460D02*
X17891611Y-12914936D01*
X17891611Y-12914936D02*
X17882087Y-12895888D01*
X17882087Y-12895888D02*
X17882087Y-12838746D01*
X17882087Y-12838746D02*
X17891611Y-12819698D01*
X17891611Y-12819698D02*
X17901134Y-12810174D01*
X17901134Y-12810174D02*
X17920182Y-12800650D01*
X17920182Y-12800650D02*
X17948754Y-12800650D01*
X17948754Y-12800650D02*
X17967801Y-12810174D01*
X17967801Y-12810174D02*
X17977325Y-12819698D01*
X17977325Y-12819698D02*
X17986849Y-12838746D01*
X17986849Y-12838746D02*
X17986849Y-12895888D01*
X17986849Y-12895888D02*
X17977325Y-12914936D01*
X17977325Y-12914936D02*
X17967801Y-12924460D01*
X17967801Y-12924460D02*
X17948754Y-12933984D01*
X17948754Y-12933984D02*
X17920182Y-12933984D01*
X18043992Y-12800650D02*
X18120182Y-12800650D01*
X18072563Y-12733984D02*
X18072563Y-12905412D01*
X18072563Y-12905412D02*
X18082087Y-12924460D01*
X18082087Y-12924460D02*
X18101134Y-12933984D01*
X18101134Y-12933984D02*
X18120182Y-12933984D01*
X18339230Y-12800650D02*
X18339230Y-13000650D01*
X18339230Y-12810174D02*
X18358277Y-12800650D01*
X18358277Y-12800650D02*
X18396373Y-12800650D01*
X18396373Y-12800650D02*
X18415420Y-12810174D01*
X18415420Y-12810174D02*
X18424944Y-12819698D01*
X18424944Y-12819698D02*
X18434468Y-12838746D01*
X18434468Y-12838746D02*
X18434468Y-12895888D01*
X18434468Y-12895888D02*
X18424944Y-12914936D01*
X18424944Y-12914936D02*
X18415420Y-12924460D01*
X18415420Y-12924460D02*
X18396373Y-12933984D01*
X18396373Y-12933984D02*
X18358277Y-12933984D01*
X18358277Y-12933984D02*
X18339230Y-12924460D01*
X18548754Y-12933984D02*
X18529706Y-12924460D01*
X18529706Y-12924460D02*
X18520182Y-12905412D01*
X18520182Y-12905412D02*
X18520182Y-12733984D01*
X18710658Y-12933984D02*
X18710658Y-12829222D01*
X18710658Y-12829222D02*
X18701135Y-12810174D01*
X18701135Y-12810174D02*
X18682087Y-12800650D01*
X18682087Y-12800650D02*
X18643992Y-12800650D01*
X18643992Y-12800650D02*
X18624944Y-12810174D01*
X18710658Y-12924460D02*
X18691611Y-12933984D01*
X18691611Y-12933984D02*
X18643992Y-12933984D01*
X18643992Y-12933984D02*
X18624944Y-12924460D01*
X18624944Y-12924460D02*
X18615420Y-12905412D01*
X18615420Y-12905412D02*
X18615420Y-12886365D01*
X18615420Y-12886365D02*
X18624944Y-12867317D01*
X18624944Y-12867317D02*
X18643992Y-12857793D01*
X18643992Y-12857793D02*
X18691611Y-12857793D01*
X18691611Y-12857793D02*
X18710658Y-12848269D01*
X18777325Y-12800650D02*
X18853515Y-12800650D01*
X18805896Y-12733984D02*
X18805896Y-12905412D01*
X18805896Y-12905412D02*
X18815420Y-12924460D01*
X18815420Y-12924460D02*
X18834468Y-12933984D01*
X18834468Y-12933984D02*
X18853515Y-12933984D01*
X18996373Y-12924460D02*
X18977325Y-12933984D01*
X18977325Y-12933984D02*
X18939230Y-12933984D01*
X18939230Y-12933984D02*
X18920182Y-12924460D01*
X18920182Y-12924460D02*
X18910658Y-12905412D01*
X18910658Y-12905412D02*
X18910658Y-12829222D01*
X18910658Y-12829222D02*
X18920182Y-12810174D01*
X18920182Y-12810174D02*
X18939230Y-12800650D01*
X18939230Y-12800650D02*
X18977325Y-12800650D01*
X18977325Y-12800650D02*
X18996373Y-12810174D01*
X18996373Y-12810174D02*
X19005896Y-12829222D01*
X19005896Y-12829222D02*
X19005896Y-12848269D01*
X19005896Y-12848269D02*
X18910658Y-12867317D01*
X19177325Y-12933984D02*
X19177325Y-12733984D01*
X19177325Y-12924460D02*
X19158277Y-12933984D01*
X19158277Y-12933984D02*
X19120182Y-12933984D01*
X19120182Y-12933984D02*
X19101135Y-12924460D01*
X19101135Y-12924460D02*
X19091611Y-12914936D01*
X19091611Y-12914936D02*
X19082087Y-12895888D01*
X19082087Y-12895888D02*
X19082087Y-12838746D01*
X19082087Y-12838746D02*
X19091611Y-12819698D01*
X19091611Y-12819698D02*
X19101135Y-12810174D01*
X19101135Y-12810174D02*
X19120182Y-12800650D01*
X19120182Y-12800650D02*
X19158277Y-12800650D01*
X19158277Y-12800650D02*
X19177325Y-12810174D01*
X19253516Y-13010174D02*
X19263039Y-13000650D01*
X19263039Y-13000650D02*
X19282087Y-12972079D01*
X19282087Y-12972079D02*
X19291611Y-12953031D01*
X19291611Y-12953031D02*
X19301135Y-12924460D01*
X19301135Y-12924460D02*
X19310658Y-12876841D01*
X19310658Y-12876841D02*
X19310658Y-12838746D01*
X19310658Y-12838746D02*
X19301135Y-12791127D01*
X19301135Y-12791127D02*
X19291611Y-12762555D01*
X19291611Y-12762555D02*
X19282087Y-12743508D01*
X19282087Y-12743508D02*
X19263039Y-12714936D01*
X19263039Y-12714936D02*
X19253516Y-12705412D01*
M02*
