%TF.GenerationSoftware,KiCad,Pcbnew,8.0.3*%
%TF.CreationDate,2025-09-27T19:59:55+12:00*%
%TF.ProjectId,aircon-control,61697263-6f6e-42d6-936f-6e74726f6c2e,rev?*%
%TF.SameCoordinates,Original*%
%TF.FileFunction,Soldermask,Top*%
%TF.FilePolarity,Negative*%
%FSLAX46Y46*%
G04 Gerber Fmt 4.6, Leading zero omitted, Abs format (unit mm)*
G04 Created by KiCad (PCBNEW 8.0.3) date 2025-09-27 19:59:55*
%MOMM*%
%LPD*%
G01*
G04 APERTURE LIST*
G04 Aperture macros list*
%AMRoundRect*
0 Rectangle with rounded corners*
0 $1 Rounding radius*
0 $2 $3 $4 $5 $6 $7 $8 $9 X,Y pos of 4 corners*
0 Add a 4 corners polygon primitive as box body*
4,1,4,$2,$3,$4,$5,$6,$7,$8,$9,$2,$3,0*
0 Add four circle primitives for the rounded corners*
1,1,$1+$1,$2,$3*
1,1,$1+$1,$4,$5*
1,1,$1+$1,$6,$7*
1,1,$1+$1,$8,$9*
0 Add four rect primitives between the rounded corners*
20,1,$1+$1,$2,$3,$4,$5,0*
20,1,$1+$1,$4,$5,$6,$7,0*
20,1,$1+$1,$6,$7,$8,$9,0*
20,1,$1+$1,$8,$9,$2,$3,0*%
G04 Aperture macros list end*
%ADD10RoundRect,0.218750X-0.218750X-0.256250X0.218750X-0.256250X0.218750X0.256250X-0.218750X0.256250X0*%
%ADD11RoundRect,0.225000X-0.225000X-0.250000X0.225000X-0.250000X0.225000X0.250000X-0.225000X0.250000X0*%
%ADD12RoundRect,0.250000X-0.325000X-0.650000X0.325000X-0.650000X0.325000X0.650000X-0.325000X0.650000X0*%
%ADD13RoundRect,0.200000X0.200000X0.275000X-0.200000X0.275000X-0.200000X-0.275000X0.200000X-0.275000X0*%
%ADD14RoundRect,0.250000X-0.650000X-1.550000X0.650000X-1.550000X0.650000X1.550000X-0.650000X1.550000X0*%
%ADD15O,1.800000X3.600000*%
%ADD16RoundRect,0.200000X-0.200000X-0.275000X0.200000X-0.275000X0.200000X0.275000X-0.200000X0.275000X0*%
%ADD17RoundRect,0.225000X0.250000X-0.225000X0.250000X0.225000X-0.250000X0.225000X-0.250000X-0.225000X0*%
%ADD18RoundRect,0.200000X0.275000X-0.200000X0.275000X0.200000X-0.275000X0.200000X-0.275000X-0.200000X0*%
%ADD19C,3.200000*%
%ADD20RoundRect,0.200000X-0.275000X0.200000X-0.275000X-0.200000X0.275000X-0.200000X0.275000X0.200000X0*%
%ADD21RoundRect,0.250000X0.312500X0.625000X-0.312500X0.625000X-0.312500X-0.625000X0.312500X-0.625000X0*%
%ADD22RoundRect,0.225000X0.225000X0.250000X-0.225000X0.250000X-0.225000X-0.250000X0.225000X-0.250000X0*%
%ADD23C,1.440000*%
%ADD24RoundRect,0.250000X0.625000X-0.312500X0.625000X0.312500X-0.625000X0.312500X-0.625000X-0.312500X0*%
%ADD25RoundRect,0.135000X0.135000X0.185000X-0.135000X0.185000X-0.135000X-0.185000X0.135000X-0.185000X0*%
%ADD26RoundRect,0.250000X-0.650000X0.325000X-0.650000X-0.325000X0.650000X-0.325000X0.650000X0.325000X0*%
%ADD27RoundRect,0.250000X-0.620000X-0.845000X0.620000X-0.845000X0.620000X0.845000X-0.620000X0.845000X0*%
%ADD28O,1.740000X2.190000*%
%ADD29RoundRect,0.125000X-0.125000X0.687500X-0.125000X-0.687500X0.125000X-0.687500X0.125000X0.687500X0*%
%ADD30C,2.000000*%
%ADD31RoundRect,0.225000X-0.250000X0.225000X-0.250000X-0.225000X0.250000X-0.225000X0.250000X0.225000X0*%
%ADD32RoundRect,0.150000X-0.150000X0.512500X-0.150000X-0.512500X0.150000X-0.512500X0.150000X0.512500X0*%
%ADD33RoundRect,0.150000X-0.150000X0.825000X-0.150000X-0.825000X0.150000X-0.825000X0.150000X0.825000X0*%
%ADD34R,1.700000X1.700000*%
%ADD35O,1.700000X1.700000*%
%ADD36RoundRect,0.250000X-0.625000X0.312500X-0.625000X-0.312500X0.625000X-0.312500X0.625000X0.312500X0*%
%ADD37RoundRect,0.140000X0.170000X-0.140000X0.170000X0.140000X-0.170000X0.140000X-0.170000X-0.140000X0*%
%ADD38R,1.600000X1.600000*%
%ADD39C,1.600000*%
%ADD40RoundRect,0.250000X-1.550000X0.650000X-1.550000X-0.650000X1.550000X-0.650000X1.550000X0.650000X0*%
%ADD41O,3.600000X1.800000*%
%ADD42RoundRect,0.250000X-0.375000X-1.075000X0.375000X-1.075000X0.375000X1.075000X-0.375000X1.075000X0*%
%ADD43R,1.500000X1.500000*%
%ADD44C,1.500000*%
%ADD45R,1.600000X0.550000*%
%ADD46R,0.550000X1.600000*%
G04 APERTURE END LIST*
D10*
%TO.C,D2*%
X143412500Y-82500000D03*
X144987500Y-82500000D03*
%TD*%
D11*
%TO.C,C2*%
X158525000Y-101500000D03*
X160075000Y-101500000D03*
%TD*%
D12*
%TO.C,C5*%
X135625000Y-91037500D03*
X138575000Y-91037500D03*
%TD*%
D13*
%TO.C,R28*%
X138925000Y-105700000D03*
X137275000Y-105700000D03*
%TD*%
%TO.C,R24*%
X137900000Y-77900000D03*
X136250000Y-77900000D03*
%TD*%
D14*
%TO.C,J6*%
X140090000Y-118300000D03*
D15*
X143900000Y-118300000D03*
X147710000Y-118300000D03*
X151520000Y-118300000D03*
X155330000Y-118300000D03*
X159140000Y-118300000D03*
X162950000Y-118300000D03*
X166760000Y-118300000D03*
%TD*%
D16*
%TO.C,R1*%
X158450000Y-103250000D03*
X160100000Y-103250000D03*
%TD*%
D13*
%TO.C,R3*%
X148375000Y-85000000D03*
X146725000Y-85000000D03*
%TD*%
D17*
%TO.C,C11*%
X171590000Y-95762500D03*
X171590000Y-94212500D03*
%TD*%
D13*
%TO.C,R4*%
X148362500Y-82520000D03*
X146712500Y-82520000D03*
%TD*%
D10*
%TO.C,D1*%
X143425000Y-84900000D03*
X145000000Y-84900000D03*
%TD*%
D11*
%TO.C,C9*%
X158500000Y-93000000D03*
X160050000Y-93000000D03*
%TD*%
D18*
%TO.C,R13*%
X152900000Y-91125000D03*
X152900000Y-89475000D03*
%TD*%
D19*
%TO.C,H3*%
X128850000Y-80000000D03*
%TD*%
D16*
%TO.C,R15*%
X163675000Y-97300000D03*
X165325000Y-97300000D03*
%TD*%
D20*
%TO.C,R9*%
X174800000Y-104275000D03*
X174800000Y-105925000D03*
%TD*%
D21*
%TO.C,R26*%
X141862500Y-99300000D03*
X138937500Y-99300000D03*
%TD*%
D16*
%TO.C,R14*%
X163775000Y-100600000D03*
X165425000Y-100600000D03*
%TD*%
D18*
%TO.C,R19*%
X151250000Y-91050000D03*
X151250000Y-89400000D03*
%TD*%
%TO.C,R20*%
X149600000Y-91075000D03*
X149600000Y-89425000D03*
%TD*%
D19*
%TO.C,H4*%
X128850000Y-118000000D03*
%TD*%
D13*
%TO.C,R18*%
X160100000Y-89600000D03*
X158450000Y-89600000D03*
%TD*%
D22*
%TO.C,C1*%
X145775000Y-99000000D03*
X144225000Y-99000000D03*
%TD*%
D23*
%TO.C,RV1*%
X178500000Y-99150000D03*
X178500000Y-101690000D03*
X178500000Y-104230000D03*
%TD*%
D22*
%TO.C,C18*%
X162381249Y-87206249D03*
X160831249Y-87206249D03*
%TD*%
D18*
%TO.C,R12*%
X154500000Y-91125000D03*
X154500000Y-89475000D03*
%TD*%
D22*
%TO.C,C3*%
X145775000Y-97250000D03*
X144225000Y-97250000D03*
%TD*%
%TO.C,C12*%
X168450000Y-89400000D03*
X166900000Y-89400000D03*
%TD*%
D16*
%TO.C,R7*%
X158425000Y-91300000D03*
X160075000Y-91300000D03*
%TD*%
D20*
%TO.C,R17*%
X171100000Y-100675000D03*
X171100000Y-102325000D03*
%TD*%
D11*
%TO.C,C15*%
X158500000Y-96400000D03*
X160050000Y-96400000D03*
%TD*%
D18*
%TO.C,R2*%
X152100000Y-110525000D03*
X152100000Y-108875000D03*
%TD*%
D24*
%TO.C,R16*%
X173100000Y-111025000D03*
X173100000Y-108100000D03*
%TD*%
D18*
%TO.C,R29*%
X137300000Y-108825000D03*
X137300000Y-107175000D03*
%TD*%
D17*
%TO.C,C17*%
X171100000Y-106150000D03*
X171100000Y-104600000D03*
%TD*%
D25*
%TO.C,R5*%
X138350000Y-97287500D03*
X137330000Y-97287500D03*
%TD*%
D26*
%TO.C,C7*%
X141350000Y-88125000D03*
X141350000Y-91075000D03*
%TD*%
D27*
%TO.C,J1*%
X166620000Y-79800000D03*
D28*
X169160000Y-79800000D03*
X171700000Y-79800000D03*
%TD*%
D11*
%TO.C,C8*%
X158525000Y-98100000D03*
X160075000Y-98100000D03*
%TD*%
D29*
%TO.C,U3*%
X169675000Y-91487500D03*
X169025000Y-91487500D03*
X168375000Y-91487500D03*
X167725000Y-91487500D03*
X167725000Y-95712500D03*
X168375000Y-95712500D03*
X169025000Y-95712500D03*
X169675000Y-95712500D03*
%TD*%
D18*
%TO.C,R21*%
X171100000Y-109350000D03*
X171100000Y-107700000D03*
%TD*%
D11*
%TO.C,C14*%
X158500000Y-99800000D03*
X160050000Y-99800000D03*
%TD*%
D25*
%TO.C,R6*%
X136350000Y-97287500D03*
X135330000Y-97287500D03*
%TD*%
D16*
%TO.C,R11*%
X153775000Y-82500000D03*
X155425000Y-82500000D03*
%TD*%
D30*
%TO.C,SW2*%
X128400000Y-108100000D03*
X134900000Y-108100000D03*
X128400000Y-112600000D03*
X134900000Y-112600000D03*
%TD*%
D31*
%TO.C,C20*%
X137300000Y-102600000D03*
X137300000Y-104150000D03*
%TD*%
D32*
%TO.C,U7*%
X162356249Y-83156249D03*
X161406249Y-83156249D03*
X160456249Y-83156249D03*
X160456249Y-85431249D03*
X162356249Y-85431249D03*
%TD*%
D22*
%TO.C,C13*%
X178975000Y-94100000D03*
X177425000Y-94100000D03*
%TD*%
D10*
%TO.C,D3*%
X128912500Y-84700000D03*
X130487500Y-84700000D03*
%TD*%
D33*
%TO.C,U5*%
X150210000Y-106600000D03*
X148940000Y-106600000D03*
X147670000Y-106600000D03*
X146400000Y-106600000D03*
X145130000Y-106600000D03*
X143860000Y-106600000D03*
X142590000Y-106600000D03*
X141320000Y-106600000D03*
X141320000Y-111550000D03*
X142590000Y-111550000D03*
X143860000Y-111550000D03*
X145130000Y-111550000D03*
X146400000Y-111550000D03*
X147670000Y-111550000D03*
X148940000Y-111550000D03*
X150210000Y-111550000D03*
%TD*%
D16*
%TO.C,R10*%
X153775000Y-84150000D03*
X155425000Y-84150000D03*
%TD*%
D19*
%TO.C,H2*%
X179000000Y-80000000D03*
%TD*%
D31*
%TO.C,C21*%
X137300000Y-110425000D03*
X137300000Y-111975000D03*
%TD*%
D34*
%TO.C,J3*%
X154920000Y-110540000D03*
D35*
X154920000Y-108000000D03*
X157460000Y-110540000D03*
X157460000Y-108000000D03*
X160000000Y-110540000D03*
X160000000Y-108000000D03*
%TD*%
D13*
%TO.C,R25*%
X144825000Y-94100000D03*
X143175000Y-94100000D03*
%TD*%
D17*
%TO.C,C19*%
X158856249Y-85456249D03*
X158856249Y-83906249D03*
%TD*%
D16*
%TO.C,R8*%
X163675000Y-93800000D03*
X165325000Y-93800000D03*
%TD*%
D36*
%TO.C,R23*%
X165700000Y-108100000D03*
X165700000Y-111025000D03*
%TD*%
D10*
%TO.C,D4*%
X128912500Y-97300000D03*
X130487500Y-97300000D03*
%TD*%
D37*
%TO.C,C6*%
X139700000Y-95517500D03*
X139700000Y-94557500D03*
%TD*%
D32*
%TO.C,U2*%
X138300000Y-93400000D03*
X137350000Y-93400000D03*
X136400000Y-93400000D03*
X136400000Y-95675000D03*
X137350000Y-95675000D03*
X138300000Y-95675000D03*
%TD*%
D38*
%TO.C,C4*%
X134900000Y-83400000D03*
D39*
X134900000Y-80900000D03*
%TD*%
D13*
%TO.C,R22*%
X175125000Y-95700000D03*
X173475000Y-95700000D03*
%TD*%
D31*
%TO.C,C16*%
X163931249Y-83156249D03*
X163931249Y-84706249D03*
%TD*%
D18*
%TO.C,R27*%
X137300000Y-101000000D03*
X137300000Y-99350000D03*
%TD*%
D34*
%TO.C,J4*%
X148400000Y-79800000D03*
D35*
X145860000Y-79800000D03*
X143320000Y-79800000D03*
X140780000Y-79800000D03*
%TD*%
D40*
%TO.C,J7*%
X129200000Y-89000000D03*
D41*
X129200000Y-92810000D03*
%TD*%
D42*
%TO.C,L1*%
X136200000Y-88100000D03*
X139000000Y-88100000D03*
%TD*%
D43*
%TO.C,U4*%
X178970000Y-92040000D03*
D44*
X176430000Y-89500000D03*
X178970000Y-86960000D03*
%TD*%
D45*
%TO.C,U1*%
X147750000Y-94890000D03*
X147750000Y-95690000D03*
X147750000Y-96490000D03*
X147750000Y-97290000D03*
X147750000Y-98090000D03*
X147750000Y-98890000D03*
X147750000Y-99690000D03*
X147750000Y-100490000D03*
D46*
X149200000Y-101940000D03*
X150000000Y-101940000D03*
X150800000Y-101940000D03*
X151600000Y-101940000D03*
X152400000Y-101940000D03*
X153200000Y-101940000D03*
X154000000Y-101940000D03*
X154800000Y-101940000D03*
D45*
X156250000Y-100490000D03*
X156250000Y-99690000D03*
X156250000Y-98890000D03*
X156250000Y-98090000D03*
X156250000Y-97290000D03*
X156250000Y-96490000D03*
X156250000Y-95690000D03*
X156250000Y-94890000D03*
D46*
X154800000Y-93440000D03*
X154000000Y-93440000D03*
X153200000Y-93440000D03*
X152400000Y-93440000D03*
X151600000Y-93440000D03*
X150800000Y-93440000D03*
X150000000Y-93440000D03*
X149200000Y-93440000D03*
%TD*%
D30*
%TO.C,SW1*%
X128350000Y-100150000D03*
X134850000Y-100150000D03*
X128350000Y-104650000D03*
X134850000Y-104650000D03*
%TD*%
D11*
%TO.C,C10*%
X158450000Y-94700000D03*
X160000000Y-94700000D03*
%TD*%
D29*
%TO.C,U6*%
X169400000Y-101987500D03*
X168750000Y-101987500D03*
X168100000Y-101987500D03*
X167450000Y-101987500D03*
X167450000Y-106212500D03*
X168100000Y-106212500D03*
X168750000Y-106212500D03*
X169400000Y-106212500D03*
%TD*%
D19*
%TO.C,H1*%
X179000000Y-118000000D03*
%TD*%
D34*
%TO.C,J2*%
X160520000Y-79800000D03*
D35*
X157980000Y-79800000D03*
X155440000Y-79800000D03*
X152900000Y-79800000D03*
%TD*%
M02*
