%TF.GenerationSoftware,KiCad,Pcbnew,8.0.3*%
%TF.CreationDate,2025-09-27T19:59:55+12:00*%
%TF.ProjectId,aircon-control,61697263-6f6e-42d6-936f-6e74726f6c2e,rev?*%
%TF.SameCoordinates,Original*%
%TF.FileFunction,Legend,Top*%
%TF.FilePolarity,Positive*%
%FSLAX46Y46*%
G04 Gerber Fmt 4.6, Leading zero omitted, Abs format (unit mm)*
G04 Created by KiCad (PCBNEW 8.0.3) date 2025-09-27 19:59:55*
%MOMM*%
%LPD*%
G01*
G04 APERTURE LIST*
%ADD10C,0.250000*%
%ADD11C,0.200000*%
%ADD12C,0.120000*%
%ADD13C,0.150000*%
G04 APERTURE END LIST*
D10*
X167029949Y-114978904D02*
X167506139Y-114978904D01*
X166934711Y-115264619D02*
X167268044Y-114264619D01*
X167268044Y-114264619D02*
X167601377Y-115264619D01*
X168458520Y-115264619D02*
X167887092Y-115264619D01*
X168172806Y-115264619D02*
X168172806Y-114264619D01*
X168172806Y-114264619D02*
X168077568Y-114407476D01*
X168077568Y-114407476D02*
X167982330Y-114502714D01*
X167982330Y-114502714D02*
X167887092Y-114550333D01*
D11*
X140141101Y-77129790D02*
X140064911Y-77091695D01*
X140064911Y-77091695D02*
X139950625Y-77091695D01*
X139950625Y-77091695D02*
X139836339Y-77129790D01*
X139836339Y-77129790D02*
X139760149Y-77205980D01*
X139760149Y-77205980D02*
X139722054Y-77282171D01*
X139722054Y-77282171D02*
X139683958Y-77434552D01*
X139683958Y-77434552D02*
X139683958Y-77548838D01*
X139683958Y-77548838D02*
X139722054Y-77701219D01*
X139722054Y-77701219D02*
X139760149Y-77777409D01*
X139760149Y-77777409D02*
X139836339Y-77853600D01*
X139836339Y-77853600D02*
X139950625Y-77891695D01*
X139950625Y-77891695D02*
X140026816Y-77891695D01*
X140026816Y-77891695D02*
X140141101Y-77853600D01*
X140141101Y-77853600D02*
X140179197Y-77815504D01*
X140179197Y-77815504D02*
X140179197Y-77548838D01*
X140179197Y-77548838D02*
X140026816Y-77548838D01*
X140522054Y-77891695D02*
X140522054Y-77091695D01*
X140522054Y-77091695D02*
X140979197Y-77891695D01*
X140979197Y-77891695D02*
X140979197Y-77091695D01*
X141360149Y-77891695D02*
X141360149Y-77091695D01*
X141360149Y-77091695D02*
X141550625Y-77091695D01*
X141550625Y-77091695D02*
X141664911Y-77129790D01*
X141664911Y-77129790D02*
X141741101Y-77205980D01*
X141741101Y-77205980D02*
X141779196Y-77282171D01*
X141779196Y-77282171D02*
X141817292Y-77434552D01*
X141817292Y-77434552D02*
X141817292Y-77548838D01*
X141817292Y-77548838D02*
X141779196Y-77701219D01*
X141779196Y-77701219D02*
X141741101Y-77777409D01*
X141741101Y-77777409D02*
X141664911Y-77853600D01*
X141664911Y-77853600D02*
X141550625Y-77891695D01*
X141550625Y-77891695D02*
X141360149Y-77891695D01*
X152241101Y-77129790D02*
X152164911Y-77091695D01*
X152164911Y-77091695D02*
X152050625Y-77091695D01*
X152050625Y-77091695D02*
X151936339Y-77129790D01*
X151936339Y-77129790D02*
X151860149Y-77205980D01*
X151860149Y-77205980D02*
X151822054Y-77282171D01*
X151822054Y-77282171D02*
X151783958Y-77434552D01*
X151783958Y-77434552D02*
X151783958Y-77548838D01*
X151783958Y-77548838D02*
X151822054Y-77701219D01*
X151822054Y-77701219D02*
X151860149Y-77777409D01*
X151860149Y-77777409D02*
X151936339Y-77853600D01*
X151936339Y-77853600D02*
X152050625Y-77891695D01*
X152050625Y-77891695D02*
X152126816Y-77891695D01*
X152126816Y-77891695D02*
X152241101Y-77853600D01*
X152241101Y-77853600D02*
X152279197Y-77815504D01*
X152279197Y-77815504D02*
X152279197Y-77548838D01*
X152279197Y-77548838D02*
X152126816Y-77548838D01*
X152622054Y-77891695D02*
X152622054Y-77091695D01*
X152622054Y-77091695D02*
X153079197Y-77891695D01*
X153079197Y-77891695D02*
X153079197Y-77091695D01*
X153460149Y-77891695D02*
X153460149Y-77091695D01*
X153460149Y-77091695D02*
X153650625Y-77091695D01*
X153650625Y-77091695D02*
X153764911Y-77129790D01*
X153764911Y-77129790D02*
X153841101Y-77205980D01*
X153841101Y-77205980D02*
X153879196Y-77282171D01*
X153879196Y-77282171D02*
X153917292Y-77434552D01*
X153917292Y-77434552D02*
X153917292Y-77548838D01*
X153917292Y-77548838D02*
X153879196Y-77701219D01*
X153879196Y-77701219D02*
X153841101Y-77777409D01*
X153841101Y-77777409D02*
X153764911Y-77853600D01*
X153764911Y-77853600D02*
X153650625Y-77891695D01*
X153650625Y-77891695D02*
X153460149Y-77891695D01*
X148303006Y-77091695D02*
X147922054Y-77091695D01*
X147922054Y-77091695D02*
X147883958Y-77472647D01*
X147883958Y-77472647D02*
X147922054Y-77434552D01*
X147922054Y-77434552D02*
X147998244Y-77396457D01*
X147998244Y-77396457D02*
X148188720Y-77396457D01*
X148188720Y-77396457D02*
X148264911Y-77434552D01*
X148264911Y-77434552D02*
X148303006Y-77472647D01*
X148303006Y-77472647D02*
X148341101Y-77548838D01*
X148341101Y-77548838D02*
X148341101Y-77739314D01*
X148341101Y-77739314D02*
X148303006Y-77815504D01*
X148303006Y-77815504D02*
X148264911Y-77853600D01*
X148264911Y-77853600D02*
X148188720Y-77891695D01*
X148188720Y-77891695D02*
X147998244Y-77891695D01*
X147998244Y-77891695D02*
X147922054Y-77853600D01*
X147922054Y-77853600D02*
X147883958Y-77815504D01*
X148569673Y-77091695D02*
X148836340Y-77891695D01*
X148836340Y-77891695D02*
X149103006Y-77091695D01*
D10*
X132740809Y-90664098D02*
X132788428Y-90521241D01*
X132788428Y-90521241D02*
X132836047Y-90473622D01*
X132836047Y-90473622D02*
X132931285Y-90426003D01*
X132931285Y-90426003D02*
X133074142Y-90426003D01*
X133074142Y-90426003D02*
X133169380Y-90473622D01*
X133169380Y-90473622D02*
X133217000Y-90521241D01*
X133217000Y-90521241D02*
X133264619Y-90616479D01*
X133264619Y-90616479D02*
X133264619Y-90997431D01*
X133264619Y-90997431D02*
X132264619Y-90997431D01*
X132264619Y-90997431D02*
X132264619Y-90664098D01*
X132264619Y-90664098D02*
X132312238Y-90568860D01*
X132312238Y-90568860D02*
X132359857Y-90521241D01*
X132359857Y-90521241D02*
X132455095Y-90473622D01*
X132455095Y-90473622D02*
X132550333Y-90473622D01*
X132550333Y-90473622D02*
X132645571Y-90521241D01*
X132645571Y-90521241D02*
X132693190Y-90568860D01*
X132693190Y-90568860D02*
X132740809Y-90664098D01*
X132740809Y-90664098D02*
X132740809Y-90997431D01*
X132978904Y-90045050D02*
X132978904Y-89568860D01*
X133264619Y-90140288D02*
X132264619Y-89806955D01*
X132264619Y-89806955D02*
X133264619Y-89473622D01*
X132264619Y-89283145D02*
X132264619Y-88711717D01*
X133264619Y-88997431D02*
X132264619Y-88997431D01*
X132264619Y-88521240D02*
X132264619Y-87949812D01*
X133264619Y-88235526D02*
X132264619Y-88235526D01*
X155273996Y-115264619D02*
X154940663Y-114788428D01*
X154702568Y-115264619D02*
X154702568Y-114264619D01*
X154702568Y-114264619D02*
X155083520Y-114264619D01*
X155083520Y-114264619D02*
X155178758Y-114312238D01*
X155178758Y-114312238D02*
X155226377Y-114359857D01*
X155226377Y-114359857D02*
X155273996Y-114455095D01*
X155273996Y-114455095D02*
X155273996Y-114597952D01*
X155273996Y-114597952D02*
X155226377Y-114693190D01*
X155226377Y-114693190D02*
X155178758Y-114740809D01*
X155178758Y-114740809D02*
X155083520Y-114788428D01*
X155083520Y-114788428D02*
X154702568Y-114788428D01*
X156178758Y-114264619D02*
X155702568Y-114264619D01*
X155702568Y-114264619D02*
X155654949Y-114740809D01*
X155654949Y-114740809D02*
X155702568Y-114693190D01*
X155702568Y-114693190D02*
X155797806Y-114645571D01*
X155797806Y-114645571D02*
X156035901Y-114645571D01*
X156035901Y-114645571D02*
X156131139Y-114693190D01*
X156131139Y-114693190D02*
X156178758Y-114740809D01*
X156178758Y-114740809D02*
X156226377Y-114836047D01*
X156226377Y-114836047D02*
X156226377Y-115074142D01*
X156226377Y-115074142D02*
X156178758Y-115169380D01*
X156178758Y-115169380D02*
X156131139Y-115217000D01*
X156131139Y-115217000D02*
X156035901Y-115264619D01*
X156035901Y-115264619D02*
X155797806Y-115264619D01*
X155797806Y-115264619D02*
X155702568Y-115217000D01*
X155702568Y-115217000D02*
X155654949Y-115169380D01*
X126254949Y-97717000D02*
X126397806Y-97764619D01*
X126397806Y-97764619D02*
X126635901Y-97764619D01*
X126635901Y-97764619D02*
X126731139Y-97717000D01*
X126731139Y-97717000D02*
X126778758Y-97669380D01*
X126778758Y-97669380D02*
X126826377Y-97574142D01*
X126826377Y-97574142D02*
X126826377Y-97478904D01*
X126826377Y-97478904D02*
X126778758Y-97383666D01*
X126778758Y-97383666D02*
X126731139Y-97336047D01*
X126731139Y-97336047D02*
X126635901Y-97288428D01*
X126635901Y-97288428D02*
X126445425Y-97240809D01*
X126445425Y-97240809D02*
X126350187Y-97193190D01*
X126350187Y-97193190D02*
X126302568Y-97145571D01*
X126302568Y-97145571D02*
X126254949Y-97050333D01*
X126254949Y-97050333D02*
X126254949Y-96955095D01*
X126254949Y-96955095D02*
X126302568Y-96859857D01*
X126302568Y-96859857D02*
X126350187Y-96812238D01*
X126350187Y-96812238D02*
X126445425Y-96764619D01*
X126445425Y-96764619D02*
X126683520Y-96764619D01*
X126683520Y-96764619D02*
X126826377Y-96812238D01*
X127112092Y-96764619D02*
X127683520Y-96764619D01*
X127397806Y-97764619D02*
X127397806Y-96764619D01*
X140073996Y-115264619D02*
X139740663Y-114788428D01*
X139502568Y-115264619D02*
X139502568Y-114264619D01*
X139502568Y-114264619D02*
X139883520Y-114264619D01*
X139883520Y-114264619D02*
X139978758Y-114312238D01*
X139978758Y-114312238D02*
X140026377Y-114359857D01*
X140026377Y-114359857D02*
X140073996Y-114455095D01*
X140073996Y-114455095D02*
X140073996Y-114597952D01*
X140073996Y-114597952D02*
X140026377Y-114693190D01*
X140026377Y-114693190D02*
X139978758Y-114740809D01*
X139978758Y-114740809D02*
X139883520Y-114788428D01*
X139883520Y-114788428D02*
X139502568Y-114788428D01*
X141026377Y-115264619D02*
X140454949Y-115264619D01*
X140740663Y-115264619D02*
X140740663Y-114264619D01*
X140740663Y-114264619D02*
X140645425Y-114407476D01*
X140645425Y-114407476D02*
X140550187Y-114502714D01*
X140550187Y-114502714D02*
X140454949Y-114550333D01*
X162973996Y-115264619D02*
X162640663Y-114788428D01*
X162402568Y-115264619D02*
X162402568Y-114264619D01*
X162402568Y-114264619D02*
X162783520Y-114264619D01*
X162783520Y-114264619D02*
X162878758Y-114312238D01*
X162878758Y-114312238D02*
X162926377Y-114359857D01*
X162926377Y-114359857D02*
X162973996Y-114455095D01*
X162973996Y-114455095D02*
X162973996Y-114597952D01*
X162973996Y-114597952D02*
X162926377Y-114693190D01*
X162926377Y-114693190D02*
X162878758Y-114740809D01*
X162878758Y-114740809D02*
X162783520Y-114788428D01*
X162783520Y-114788428D02*
X162402568Y-114788428D01*
X163307330Y-114264619D02*
X163973996Y-114264619D01*
X163973996Y-114264619D02*
X163545425Y-115264619D01*
X159173996Y-115264619D02*
X158840663Y-114788428D01*
X158602568Y-115264619D02*
X158602568Y-114264619D01*
X158602568Y-114264619D02*
X158983520Y-114264619D01*
X158983520Y-114264619D02*
X159078758Y-114312238D01*
X159078758Y-114312238D02*
X159126377Y-114359857D01*
X159126377Y-114359857D02*
X159173996Y-114455095D01*
X159173996Y-114455095D02*
X159173996Y-114597952D01*
X159173996Y-114597952D02*
X159126377Y-114693190D01*
X159126377Y-114693190D02*
X159078758Y-114740809D01*
X159078758Y-114740809D02*
X158983520Y-114788428D01*
X158983520Y-114788428D02*
X158602568Y-114788428D01*
X160031139Y-114264619D02*
X159840663Y-114264619D01*
X159840663Y-114264619D02*
X159745425Y-114312238D01*
X159745425Y-114312238D02*
X159697806Y-114359857D01*
X159697806Y-114359857D02*
X159602568Y-114502714D01*
X159602568Y-114502714D02*
X159554949Y-114693190D01*
X159554949Y-114693190D02*
X159554949Y-115074142D01*
X159554949Y-115074142D02*
X159602568Y-115169380D01*
X159602568Y-115169380D02*
X159650187Y-115217000D01*
X159650187Y-115217000D02*
X159745425Y-115264619D01*
X159745425Y-115264619D02*
X159935901Y-115264619D01*
X159935901Y-115264619D02*
X160031139Y-115217000D01*
X160031139Y-115217000D02*
X160078758Y-115169380D01*
X160078758Y-115169380D02*
X160126377Y-115074142D01*
X160126377Y-115074142D02*
X160126377Y-114836047D01*
X160126377Y-114836047D02*
X160078758Y-114740809D01*
X160078758Y-114740809D02*
X160031139Y-114693190D01*
X160031139Y-114693190D02*
X159935901Y-114645571D01*
X159935901Y-114645571D02*
X159745425Y-114645571D01*
X159745425Y-114645571D02*
X159650187Y-114693190D01*
X159650187Y-114693190D02*
X159602568Y-114740809D01*
X159602568Y-114740809D02*
X159554949Y-114836047D01*
D11*
X141107768Y-82091695D02*
X141564911Y-82091695D01*
X141336339Y-82891695D02*
X141336339Y-82091695D01*
X141755387Y-82091695D02*
X142288721Y-82891695D01*
X142288721Y-82091695D02*
X141755387Y-82891695D01*
X157083958Y-77853600D02*
X157198244Y-77891695D01*
X157198244Y-77891695D02*
X157388720Y-77891695D01*
X157388720Y-77891695D02*
X157464911Y-77853600D01*
X157464911Y-77853600D02*
X157503006Y-77815504D01*
X157503006Y-77815504D02*
X157541101Y-77739314D01*
X157541101Y-77739314D02*
X157541101Y-77663123D01*
X157541101Y-77663123D02*
X157503006Y-77586933D01*
X157503006Y-77586933D02*
X157464911Y-77548838D01*
X157464911Y-77548838D02*
X157388720Y-77510742D01*
X157388720Y-77510742D02*
X157236339Y-77472647D01*
X157236339Y-77472647D02*
X157160149Y-77434552D01*
X157160149Y-77434552D02*
X157122054Y-77396457D01*
X157122054Y-77396457D02*
X157083958Y-77320266D01*
X157083958Y-77320266D02*
X157083958Y-77244076D01*
X157083958Y-77244076D02*
X157122054Y-77167885D01*
X157122054Y-77167885D02*
X157160149Y-77129790D01*
X157160149Y-77129790D02*
X157236339Y-77091695D01*
X157236339Y-77091695D02*
X157426816Y-77091695D01*
X157426816Y-77091695D02*
X157541101Y-77129790D01*
X157883959Y-77891695D02*
X157883959Y-77091695D01*
X157883959Y-77091695D02*
X158074435Y-77091695D01*
X158074435Y-77091695D02*
X158188721Y-77129790D01*
X158188721Y-77129790D02*
X158264911Y-77205980D01*
X158264911Y-77205980D02*
X158303006Y-77282171D01*
X158303006Y-77282171D02*
X158341102Y-77434552D01*
X158341102Y-77434552D02*
X158341102Y-77548838D01*
X158341102Y-77548838D02*
X158303006Y-77701219D01*
X158303006Y-77701219D02*
X158264911Y-77777409D01*
X158264911Y-77777409D02*
X158188721Y-77853600D01*
X158188721Y-77853600D02*
X158074435Y-77891695D01*
X158074435Y-77891695D02*
X157883959Y-77891695D01*
X158645863Y-77663123D02*
X159026816Y-77663123D01*
X158569673Y-77891695D02*
X158836340Y-77091695D01*
X158836340Y-77091695D02*
X159103006Y-77891695D01*
D10*
X151373996Y-115264619D02*
X151040663Y-114788428D01*
X150802568Y-115264619D02*
X150802568Y-114264619D01*
X150802568Y-114264619D02*
X151183520Y-114264619D01*
X151183520Y-114264619D02*
X151278758Y-114312238D01*
X151278758Y-114312238D02*
X151326377Y-114359857D01*
X151326377Y-114359857D02*
X151373996Y-114455095D01*
X151373996Y-114455095D02*
X151373996Y-114597952D01*
X151373996Y-114597952D02*
X151326377Y-114693190D01*
X151326377Y-114693190D02*
X151278758Y-114740809D01*
X151278758Y-114740809D02*
X151183520Y-114788428D01*
X151183520Y-114788428D02*
X150802568Y-114788428D01*
X152231139Y-114597952D02*
X152231139Y-115264619D01*
X151993044Y-114217000D02*
X151754949Y-114931285D01*
X151754949Y-114931285D02*
X152373996Y-114931285D01*
X143873996Y-115264619D02*
X143540663Y-114788428D01*
X143302568Y-115264619D02*
X143302568Y-114264619D01*
X143302568Y-114264619D02*
X143683520Y-114264619D01*
X143683520Y-114264619D02*
X143778758Y-114312238D01*
X143778758Y-114312238D02*
X143826377Y-114359857D01*
X143826377Y-114359857D02*
X143873996Y-114455095D01*
X143873996Y-114455095D02*
X143873996Y-114597952D01*
X143873996Y-114597952D02*
X143826377Y-114693190D01*
X143826377Y-114693190D02*
X143778758Y-114740809D01*
X143778758Y-114740809D02*
X143683520Y-114788428D01*
X143683520Y-114788428D02*
X143302568Y-114788428D01*
X144254949Y-114359857D02*
X144302568Y-114312238D01*
X144302568Y-114312238D02*
X144397806Y-114264619D01*
X144397806Y-114264619D02*
X144635901Y-114264619D01*
X144635901Y-114264619D02*
X144731139Y-114312238D01*
X144731139Y-114312238D02*
X144778758Y-114359857D01*
X144778758Y-114359857D02*
X144826377Y-114455095D01*
X144826377Y-114455095D02*
X144826377Y-114550333D01*
X144826377Y-114550333D02*
X144778758Y-114693190D01*
X144778758Y-114693190D02*
X144207330Y-115264619D01*
X144207330Y-115264619D02*
X144826377Y-115264619D01*
D11*
X154583958Y-77853600D02*
X154698244Y-77891695D01*
X154698244Y-77891695D02*
X154888720Y-77891695D01*
X154888720Y-77891695D02*
X154964911Y-77853600D01*
X154964911Y-77853600D02*
X155003006Y-77815504D01*
X155003006Y-77815504D02*
X155041101Y-77739314D01*
X155041101Y-77739314D02*
X155041101Y-77663123D01*
X155041101Y-77663123D02*
X155003006Y-77586933D01*
X155003006Y-77586933D02*
X154964911Y-77548838D01*
X154964911Y-77548838D02*
X154888720Y-77510742D01*
X154888720Y-77510742D02*
X154736339Y-77472647D01*
X154736339Y-77472647D02*
X154660149Y-77434552D01*
X154660149Y-77434552D02*
X154622054Y-77396457D01*
X154622054Y-77396457D02*
X154583958Y-77320266D01*
X154583958Y-77320266D02*
X154583958Y-77244076D01*
X154583958Y-77244076D02*
X154622054Y-77167885D01*
X154622054Y-77167885D02*
X154660149Y-77129790D01*
X154660149Y-77129790D02*
X154736339Y-77091695D01*
X154736339Y-77091695D02*
X154926816Y-77091695D01*
X154926816Y-77091695D02*
X155041101Y-77129790D01*
X155841102Y-77815504D02*
X155803006Y-77853600D01*
X155803006Y-77853600D02*
X155688721Y-77891695D01*
X155688721Y-77891695D02*
X155612530Y-77891695D01*
X155612530Y-77891695D02*
X155498244Y-77853600D01*
X155498244Y-77853600D02*
X155422054Y-77777409D01*
X155422054Y-77777409D02*
X155383959Y-77701219D01*
X155383959Y-77701219D02*
X155345863Y-77548838D01*
X155345863Y-77548838D02*
X155345863Y-77434552D01*
X155345863Y-77434552D02*
X155383959Y-77282171D01*
X155383959Y-77282171D02*
X155422054Y-77205980D01*
X155422054Y-77205980D02*
X155498244Y-77129790D01*
X155498244Y-77129790D02*
X155612530Y-77091695D01*
X155612530Y-77091695D02*
X155688721Y-77091695D01*
X155688721Y-77091695D02*
X155803006Y-77129790D01*
X155803006Y-77129790D02*
X155841102Y-77167885D01*
X156564911Y-77891695D02*
X156183959Y-77891695D01*
X156183959Y-77891695D02*
X156183959Y-77091695D01*
D10*
X126678758Y-84214619D02*
X126202568Y-84214619D01*
X126202568Y-84214619D02*
X126154949Y-84690809D01*
X126154949Y-84690809D02*
X126202568Y-84643190D01*
X126202568Y-84643190D02*
X126297806Y-84595571D01*
X126297806Y-84595571D02*
X126535901Y-84595571D01*
X126535901Y-84595571D02*
X126631139Y-84643190D01*
X126631139Y-84643190D02*
X126678758Y-84690809D01*
X126678758Y-84690809D02*
X126726377Y-84786047D01*
X126726377Y-84786047D02*
X126726377Y-85024142D01*
X126726377Y-85024142D02*
X126678758Y-85119380D01*
X126678758Y-85119380D02*
X126631139Y-85167000D01*
X126631139Y-85167000D02*
X126535901Y-85214619D01*
X126535901Y-85214619D02*
X126297806Y-85214619D01*
X126297806Y-85214619D02*
X126202568Y-85167000D01*
X126202568Y-85167000D02*
X126154949Y-85119380D01*
X127012092Y-84214619D02*
X127345425Y-85214619D01*
X127345425Y-85214619D02*
X127678758Y-84214619D01*
D11*
X145779197Y-77891695D02*
X145512530Y-77510742D01*
X145322054Y-77891695D02*
X145322054Y-77091695D01*
X145322054Y-77091695D02*
X145626816Y-77091695D01*
X145626816Y-77091695D02*
X145703006Y-77129790D01*
X145703006Y-77129790D02*
X145741101Y-77167885D01*
X145741101Y-77167885D02*
X145779197Y-77244076D01*
X145779197Y-77244076D02*
X145779197Y-77358361D01*
X145779197Y-77358361D02*
X145741101Y-77434552D01*
X145741101Y-77434552D02*
X145703006Y-77472647D01*
X145703006Y-77472647D02*
X145626816Y-77510742D01*
X145626816Y-77510742D02*
X145322054Y-77510742D01*
X146045863Y-77091695D02*
X146579197Y-77891695D01*
X146579197Y-77091695D02*
X146045863Y-77891695D01*
D10*
X147573996Y-115264619D02*
X147240663Y-114788428D01*
X147002568Y-115264619D02*
X147002568Y-114264619D01*
X147002568Y-114264619D02*
X147383520Y-114264619D01*
X147383520Y-114264619D02*
X147478758Y-114312238D01*
X147478758Y-114312238D02*
X147526377Y-114359857D01*
X147526377Y-114359857D02*
X147573996Y-114455095D01*
X147573996Y-114455095D02*
X147573996Y-114597952D01*
X147573996Y-114597952D02*
X147526377Y-114693190D01*
X147526377Y-114693190D02*
X147478758Y-114740809D01*
X147478758Y-114740809D02*
X147383520Y-114788428D01*
X147383520Y-114788428D02*
X147002568Y-114788428D01*
X147907330Y-114264619D02*
X148526377Y-114264619D01*
X148526377Y-114264619D02*
X148193044Y-114645571D01*
X148193044Y-114645571D02*
X148335901Y-114645571D01*
X148335901Y-114645571D02*
X148431139Y-114693190D01*
X148431139Y-114693190D02*
X148478758Y-114740809D01*
X148478758Y-114740809D02*
X148526377Y-114836047D01*
X148526377Y-114836047D02*
X148526377Y-115074142D01*
X148526377Y-115074142D02*
X148478758Y-115169380D01*
X148478758Y-115169380D02*
X148431139Y-115217000D01*
X148431139Y-115217000D02*
X148335901Y-115264619D01*
X148335901Y-115264619D02*
X148050187Y-115264619D01*
X148050187Y-115264619D02*
X147954949Y-115217000D01*
X147954949Y-115217000D02*
X147907330Y-115169380D01*
D11*
X141579197Y-85191695D02*
X141312530Y-84810742D01*
X141122054Y-85191695D02*
X141122054Y-84391695D01*
X141122054Y-84391695D02*
X141426816Y-84391695D01*
X141426816Y-84391695D02*
X141503006Y-84429790D01*
X141503006Y-84429790D02*
X141541101Y-84467885D01*
X141541101Y-84467885D02*
X141579197Y-84544076D01*
X141579197Y-84544076D02*
X141579197Y-84658361D01*
X141579197Y-84658361D02*
X141541101Y-84734552D01*
X141541101Y-84734552D02*
X141503006Y-84772647D01*
X141503006Y-84772647D02*
X141426816Y-84810742D01*
X141426816Y-84810742D02*
X141122054Y-84810742D01*
X141845863Y-84391695D02*
X142379197Y-85191695D01*
X142379197Y-84391695D02*
X141845863Y-85191695D01*
D10*
X132312238Y-94473622D02*
X132264619Y-94568860D01*
X132264619Y-94568860D02*
X132264619Y-94711717D01*
X132264619Y-94711717D02*
X132312238Y-94854574D01*
X132312238Y-94854574D02*
X132407476Y-94949812D01*
X132407476Y-94949812D02*
X132502714Y-94997431D01*
X132502714Y-94997431D02*
X132693190Y-95045050D01*
X132693190Y-95045050D02*
X132836047Y-95045050D01*
X132836047Y-95045050D02*
X133026523Y-94997431D01*
X133026523Y-94997431D02*
X133121761Y-94949812D01*
X133121761Y-94949812D02*
X133217000Y-94854574D01*
X133217000Y-94854574D02*
X133264619Y-94711717D01*
X133264619Y-94711717D02*
X133264619Y-94616479D01*
X133264619Y-94616479D02*
X133217000Y-94473622D01*
X133217000Y-94473622D02*
X133169380Y-94426003D01*
X133169380Y-94426003D02*
X132836047Y-94426003D01*
X132836047Y-94426003D02*
X132836047Y-94616479D01*
X133264619Y-93997431D02*
X132264619Y-93997431D01*
X132264619Y-93997431D02*
X133264619Y-93426003D01*
X133264619Y-93426003D02*
X132264619Y-93426003D01*
X133264619Y-92949812D02*
X132264619Y-92949812D01*
X132264619Y-92949812D02*
X132264619Y-92711717D01*
X132264619Y-92711717D02*
X132312238Y-92568860D01*
X132312238Y-92568860D02*
X132407476Y-92473622D01*
X132407476Y-92473622D02*
X132502714Y-92426003D01*
X132502714Y-92426003D02*
X132693190Y-92378384D01*
X132693190Y-92378384D02*
X132836047Y-92378384D01*
X132836047Y-92378384D02*
X133026523Y-92426003D01*
X133026523Y-92426003D02*
X133121761Y-92473622D01*
X133121761Y-92473622D02*
X133217000Y-92568860D01*
X133217000Y-92568860D02*
X133264619Y-92711717D01*
X133264619Y-92711717D02*
X133264619Y-92949812D01*
D11*
X160403006Y-77091695D02*
X160022054Y-77091695D01*
X160022054Y-77091695D02*
X159983958Y-77472647D01*
X159983958Y-77472647D02*
X160022054Y-77434552D01*
X160022054Y-77434552D02*
X160098244Y-77396457D01*
X160098244Y-77396457D02*
X160288720Y-77396457D01*
X160288720Y-77396457D02*
X160364911Y-77434552D01*
X160364911Y-77434552D02*
X160403006Y-77472647D01*
X160403006Y-77472647D02*
X160441101Y-77548838D01*
X160441101Y-77548838D02*
X160441101Y-77739314D01*
X160441101Y-77739314D02*
X160403006Y-77815504D01*
X160403006Y-77815504D02*
X160364911Y-77853600D01*
X160364911Y-77853600D02*
X160288720Y-77891695D01*
X160288720Y-77891695D02*
X160098244Y-77891695D01*
X160098244Y-77891695D02*
X160022054Y-77853600D01*
X160022054Y-77853600D02*
X159983958Y-77815504D01*
X160669673Y-77091695D02*
X160936340Y-77891695D01*
X160936340Y-77891695D02*
X161203006Y-77091695D01*
X142607768Y-77091695D02*
X143064911Y-77091695D01*
X142836339Y-77891695D02*
X142836339Y-77091695D01*
X143255387Y-77091695D02*
X143788721Y-77891695D01*
X143788721Y-77091695D02*
X143255387Y-77891695D01*
X161566667Y-101883504D02*
X161528571Y-101921600D01*
X161528571Y-101921600D02*
X161414286Y-101959695D01*
X161414286Y-101959695D02*
X161338095Y-101959695D01*
X161338095Y-101959695D02*
X161223809Y-101921600D01*
X161223809Y-101921600D02*
X161147619Y-101845409D01*
X161147619Y-101845409D02*
X161109524Y-101769219D01*
X161109524Y-101769219D02*
X161071428Y-101616838D01*
X161071428Y-101616838D02*
X161071428Y-101502552D01*
X161071428Y-101502552D02*
X161109524Y-101350171D01*
X161109524Y-101350171D02*
X161147619Y-101273980D01*
X161147619Y-101273980D02*
X161223809Y-101197790D01*
X161223809Y-101197790D02*
X161338095Y-101159695D01*
X161338095Y-101159695D02*
X161414286Y-101159695D01*
X161414286Y-101159695D02*
X161528571Y-101197790D01*
X161528571Y-101197790D02*
X161566667Y-101235885D01*
X161871428Y-101235885D02*
X161909524Y-101197790D01*
X161909524Y-101197790D02*
X161985714Y-101159695D01*
X161985714Y-101159695D02*
X162176190Y-101159695D01*
X162176190Y-101159695D02*
X162252381Y-101197790D01*
X162252381Y-101197790D02*
X162290476Y-101235885D01*
X162290476Y-101235885D02*
X162328571Y-101312076D01*
X162328571Y-101312076D02*
X162328571Y-101388266D01*
X162328571Y-101388266D02*
X162290476Y-101502552D01*
X162290476Y-101502552D02*
X161833333Y-101959695D01*
X161833333Y-101959695D02*
X162328571Y-101959695D01*
X134683504Y-89333332D02*
X134721600Y-89371428D01*
X134721600Y-89371428D02*
X134759695Y-89485713D01*
X134759695Y-89485713D02*
X134759695Y-89561904D01*
X134759695Y-89561904D02*
X134721600Y-89676190D01*
X134721600Y-89676190D02*
X134645409Y-89752380D01*
X134645409Y-89752380D02*
X134569219Y-89790475D01*
X134569219Y-89790475D02*
X134416838Y-89828571D01*
X134416838Y-89828571D02*
X134302552Y-89828571D01*
X134302552Y-89828571D02*
X134150171Y-89790475D01*
X134150171Y-89790475D02*
X134073980Y-89752380D01*
X134073980Y-89752380D02*
X133997790Y-89676190D01*
X133997790Y-89676190D02*
X133959695Y-89561904D01*
X133959695Y-89561904D02*
X133959695Y-89485713D01*
X133959695Y-89485713D02*
X133997790Y-89371428D01*
X133997790Y-89371428D02*
X134035885Y-89333332D01*
X133959695Y-88609523D02*
X133959695Y-88990475D01*
X133959695Y-88990475D02*
X134340647Y-89028571D01*
X134340647Y-89028571D02*
X134302552Y-88990475D01*
X134302552Y-88990475D02*
X134264457Y-88914285D01*
X134264457Y-88914285D02*
X134264457Y-88723809D01*
X134264457Y-88723809D02*
X134302552Y-88647618D01*
X134302552Y-88647618D02*
X134340647Y-88609523D01*
X134340647Y-88609523D02*
X134416838Y-88571428D01*
X134416838Y-88571428D02*
X134607314Y-88571428D01*
X134607314Y-88571428D02*
X134683504Y-88609523D01*
X134683504Y-88609523D02*
X134721600Y-88647618D01*
X134721600Y-88647618D02*
X134759695Y-88723809D01*
X134759695Y-88723809D02*
X134759695Y-88914285D01*
X134759695Y-88914285D02*
X134721600Y-88990475D01*
X134721600Y-88990475D02*
X134683504Y-89028571D01*
X140585714Y-104359695D02*
X140319047Y-103978742D01*
X140128571Y-104359695D02*
X140128571Y-103559695D01*
X140128571Y-103559695D02*
X140433333Y-103559695D01*
X140433333Y-103559695D02*
X140509523Y-103597790D01*
X140509523Y-103597790D02*
X140547618Y-103635885D01*
X140547618Y-103635885D02*
X140585714Y-103712076D01*
X140585714Y-103712076D02*
X140585714Y-103826361D01*
X140585714Y-103826361D02*
X140547618Y-103902552D01*
X140547618Y-103902552D02*
X140509523Y-103940647D01*
X140509523Y-103940647D02*
X140433333Y-103978742D01*
X140433333Y-103978742D02*
X140128571Y-103978742D01*
X140890475Y-103635885D02*
X140928571Y-103597790D01*
X140928571Y-103597790D02*
X141004761Y-103559695D01*
X141004761Y-103559695D02*
X141195237Y-103559695D01*
X141195237Y-103559695D02*
X141271428Y-103597790D01*
X141271428Y-103597790D02*
X141309523Y-103635885D01*
X141309523Y-103635885D02*
X141347618Y-103712076D01*
X141347618Y-103712076D02*
X141347618Y-103788266D01*
X141347618Y-103788266D02*
X141309523Y-103902552D01*
X141309523Y-103902552D02*
X140852380Y-104359695D01*
X140852380Y-104359695D02*
X141347618Y-104359695D01*
X141804761Y-103902552D02*
X141728571Y-103864457D01*
X141728571Y-103864457D02*
X141690476Y-103826361D01*
X141690476Y-103826361D02*
X141652380Y-103750171D01*
X141652380Y-103750171D02*
X141652380Y-103712076D01*
X141652380Y-103712076D02*
X141690476Y-103635885D01*
X141690476Y-103635885D02*
X141728571Y-103597790D01*
X141728571Y-103597790D02*
X141804761Y-103559695D01*
X141804761Y-103559695D02*
X141957142Y-103559695D01*
X141957142Y-103559695D02*
X142033333Y-103597790D01*
X142033333Y-103597790D02*
X142071428Y-103635885D01*
X142071428Y-103635885D02*
X142109523Y-103712076D01*
X142109523Y-103712076D02*
X142109523Y-103750171D01*
X142109523Y-103750171D02*
X142071428Y-103826361D01*
X142071428Y-103826361D02*
X142033333Y-103864457D01*
X142033333Y-103864457D02*
X141957142Y-103902552D01*
X141957142Y-103902552D02*
X141804761Y-103902552D01*
X141804761Y-103902552D02*
X141728571Y-103940647D01*
X141728571Y-103940647D02*
X141690476Y-103978742D01*
X141690476Y-103978742D02*
X141652380Y-104054933D01*
X141652380Y-104054933D02*
X141652380Y-104207314D01*
X141652380Y-104207314D02*
X141690476Y-104283504D01*
X141690476Y-104283504D02*
X141728571Y-104321600D01*
X141728571Y-104321600D02*
X141804761Y-104359695D01*
X141804761Y-104359695D02*
X141957142Y-104359695D01*
X141957142Y-104359695D02*
X142033333Y-104321600D01*
X142033333Y-104321600D02*
X142071428Y-104283504D01*
X142071428Y-104283504D02*
X142109523Y-104207314D01*
X142109523Y-104207314D02*
X142109523Y-104054933D01*
X142109523Y-104054933D02*
X142071428Y-103978742D01*
X142071428Y-103978742D02*
X142033333Y-103940647D01*
X142033333Y-103940647D02*
X141957142Y-103902552D01*
X133585714Y-78259695D02*
X133319047Y-77878742D01*
X133128571Y-78259695D02*
X133128571Y-77459695D01*
X133128571Y-77459695D02*
X133433333Y-77459695D01*
X133433333Y-77459695D02*
X133509523Y-77497790D01*
X133509523Y-77497790D02*
X133547618Y-77535885D01*
X133547618Y-77535885D02*
X133585714Y-77612076D01*
X133585714Y-77612076D02*
X133585714Y-77726361D01*
X133585714Y-77726361D02*
X133547618Y-77802552D01*
X133547618Y-77802552D02*
X133509523Y-77840647D01*
X133509523Y-77840647D02*
X133433333Y-77878742D01*
X133433333Y-77878742D02*
X133128571Y-77878742D01*
X133890475Y-77535885D02*
X133928571Y-77497790D01*
X133928571Y-77497790D02*
X134004761Y-77459695D01*
X134004761Y-77459695D02*
X134195237Y-77459695D01*
X134195237Y-77459695D02*
X134271428Y-77497790D01*
X134271428Y-77497790D02*
X134309523Y-77535885D01*
X134309523Y-77535885D02*
X134347618Y-77612076D01*
X134347618Y-77612076D02*
X134347618Y-77688266D01*
X134347618Y-77688266D02*
X134309523Y-77802552D01*
X134309523Y-77802552D02*
X133852380Y-78259695D01*
X133852380Y-78259695D02*
X134347618Y-78259695D01*
X135033333Y-77726361D02*
X135033333Y-78259695D01*
X134842857Y-77421600D02*
X134652380Y-77993028D01*
X134652380Y-77993028D02*
X135147619Y-77993028D01*
X161666667Y-103659695D02*
X161400000Y-103278742D01*
X161209524Y-103659695D02*
X161209524Y-102859695D01*
X161209524Y-102859695D02*
X161514286Y-102859695D01*
X161514286Y-102859695D02*
X161590476Y-102897790D01*
X161590476Y-102897790D02*
X161628571Y-102935885D01*
X161628571Y-102935885D02*
X161666667Y-103012076D01*
X161666667Y-103012076D02*
X161666667Y-103126361D01*
X161666667Y-103126361D02*
X161628571Y-103202552D01*
X161628571Y-103202552D02*
X161590476Y-103240647D01*
X161590476Y-103240647D02*
X161514286Y-103278742D01*
X161514286Y-103278742D02*
X161209524Y-103278742D01*
X162428571Y-103659695D02*
X161971428Y-103659695D01*
X162200000Y-103659695D02*
X162200000Y-102859695D01*
X162200000Y-102859695D02*
X162123809Y-102973980D01*
X162123809Y-102973980D02*
X162047619Y-103050171D01*
X162047619Y-103050171D02*
X161971428Y-103088266D01*
X147416667Y-86789695D02*
X147150000Y-86408742D01*
X146959524Y-86789695D02*
X146959524Y-85989695D01*
X146959524Y-85989695D02*
X147264286Y-85989695D01*
X147264286Y-85989695D02*
X147340476Y-86027790D01*
X147340476Y-86027790D02*
X147378571Y-86065885D01*
X147378571Y-86065885D02*
X147416667Y-86142076D01*
X147416667Y-86142076D02*
X147416667Y-86256361D01*
X147416667Y-86256361D02*
X147378571Y-86332552D01*
X147378571Y-86332552D02*
X147340476Y-86370647D01*
X147340476Y-86370647D02*
X147264286Y-86408742D01*
X147264286Y-86408742D02*
X146959524Y-86408742D01*
X147683333Y-85989695D02*
X148178571Y-85989695D01*
X148178571Y-85989695D02*
X147911905Y-86294457D01*
X147911905Y-86294457D02*
X148026190Y-86294457D01*
X148026190Y-86294457D02*
X148102381Y-86332552D01*
X148102381Y-86332552D02*
X148140476Y-86370647D01*
X148140476Y-86370647D02*
X148178571Y-86446838D01*
X148178571Y-86446838D02*
X148178571Y-86637314D01*
X148178571Y-86637314D02*
X148140476Y-86713504D01*
X148140476Y-86713504D02*
X148102381Y-86751600D01*
X148102381Y-86751600D02*
X148026190Y-86789695D01*
X148026190Y-86789695D02*
X147797619Y-86789695D01*
X147797619Y-86789695D02*
X147721428Y-86751600D01*
X147721428Y-86751600D02*
X147683333Y-86713504D01*
X171085714Y-93183504D02*
X171047618Y-93221600D01*
X171047618Y-93221600D02*
X170933333Y-93259695D01*
X170933333Y-93259695D02*
X170857142Y-93259695D01*
X170857142Y-93259695D02*
X170742856Y-93221600D01*
X170742856Y-93221600D02*
X170666666Y-93145409D01*
X170666666Y-93145409D02*
X170628571Y-93069219D01*
X170628571Y-93069219D02*
X170590475Y-92916838D01*
X170590475Y-92916838D02*
X170590475Y-92802552D01*
X170590475Y-92802552D02*
X170628571Y-92650171D01*
X170628571Y-92650171D02*
X170666666Y-92573980D01*
X170666666Y-92573980D02*
X170742856Y-92497790D01*
X170742856Y-92497790D02*
X170857142Y-92459695D01*
X170857142Y-92459695D02*
X170933333Y-92459695D01*
X170933333Y-92459695D02*
X171047618Y-92497790D01*
X171047618Y-92497790D02*
X171085714Y-92535885D01*
X171847618Y-93259695D02*
X171390475Y-93259695D01*
X171619047Y-93259695D02*
X171619047Y-92459695D01*
X171619047Y-92459695D02*
X171542856Y-92573980D01*
X171542856Y-92573980D02*
X171466666Y-92650171D01*
X171466666Y-92650171D02*
X171390475Y-92688266D01*
X172609523Y-93259695D02*
X172152380Y-93259695D01*
X172380952Y-93259695D02*
X172380952Y-92459695D01*
X172380952Y-92459695D02*
X172304761Y-92573980D01*
X172304761Y-92573980D02*
X172228571Y-92650171D01*
X172228571Y-92650171D02*
X172152380Y-92688266D01*
X147404167Y-84309695D02*
X147137500Y-83928742D01*
X146947024Y-84309695D02*
X146947024Y-83509695D01*
X146947024Y-83509695D02*
X147251786Y-83509695D01*
X147251786Y-83509695D02*
X147327976Y-83547790D01*
X147327976Y-83547790D02*
X147366071Y-83585885D01*
X147366071Y-83585885D02*
X147404167Y-83662076D01*
X147404167Y-83662076D02*
X147404167Y-83776361D01*
X147404167Y-83776361D02*
X147366071Y-83852552D01*
X147366071Y-83852552D02*
X147327976Y-83890647D01*
X147327976Y-83890647D02*
X147251786Y-83928742D01*
X147251786Y-83928742D02*
X146947024Y-83928742D01*
X148089881Y-83776361D02*
X148089881Y-84309695D01*
X147899405Y-83471600D02*
X147708928Y-84043028D01*
X147708928Y-84043028D02*
X148204167Y-84043028D01*
X161466667Y-93283504D02*
X161428571Y-93321600D01*
X161428571Y-93321600D02*
X161314286Y-93359695D01*
X161314286Y-93359695D02*
X161238095Y-93359695D01*
X161238095Y-93359695D02*
X161123809Y-93321600D01*
X161123809Y-93321600D02*
X161047619Y-93245409D01*
X161047619Y-93245409D02*
X161009524Y-93169219D01*
X161009524Y-93169219D02*
X160971428Y-93016838D01*
X160971428Y-93016838D02*
X160971428Y-92902552D01*
X160971428Y-92902552D02*
X161009524Y-92750171D01*
X161009524Y-92750171D02*
X161047619Y-92673980D01*
X161047619Y-92673980D02*
X161123809Y-92597790D01*
X161123809Y-92597790D02*
X161238095Y-92559695D01*
X161238095Y-92559695D02*
X161314286Y-92559695D01*
X161314286Y-92559695D02*
X161428571Y-92597790D01*
X161428571Y-92597790D02*
X161466667Y-92635885D01*
X161847619Y-93359695D02*
X162000000Y-93359695D01*
X162000000Y-93359695D02*
X162076190Y-93321600D01*
X162076190Y-93321600D02*
X162114286Y-93283504D01*
X162114286Y-93283504D02*
X162190476Y-93169219D01*
X162190476Y-93169219D02*
X162228571Y-93016838D01*
X162228571Y-93016838D02*
X162228571Y-92712076D01*
X162228571Y-92712076D02*
X162190476Y-92635885D01*
X162190476Y-92635885D02*
X162152381Y-92597790D01*
X162152381Y-92597790D02*
X162076190Y-92559695D01*
X162076190Y-92559695D02*
X161923809Y-92559695D01*
X161923809Y-92559695D02*
X161847619Y-92597790D01*
X161847619Y-92597790D02*
X161809524Y-92635885D01*
X161809524Y-92635885D02*
X161771428Y-92712076D01*
X161771428Y-92712076D02*
X161771428Y-92902552D01*
X161771428Y-92902552D02*
X161809524Y-92978742D01*
X161809524Y-92978742D02*
X161847619Y-93016838D01*
X161847619Y-93016838D02*
X161923809Y-93054933D01*
X161923809Y-93054933D02*
X162076190Y-93054933D01*
X162076190Y-93054933D02*
X162152381Y-93016838D01*
X162152381Y-93016838D02*
X162190476Y-92978742D01*
X162190476Y-92978742D02*
X162228571Y-92902552D01*
X153259695Y-88114285D02*
X152878742Y-88380952D01*
X153259695Y-88571428D02*
X152459695Y-88571428D01*
X152459695Y-88571428D02*
X152459695Y-88266666D01*
X152459695Y-88266666D02*
X152497790Y-88190476D01*
X152497790Y-88190476D02*
X152535885Y-88152381D01*
X152535885Y-88152381D02*
X152612076Y-88114285D01*
X152612076Y-88114285D02*
X152726361Y-88114285D01*
X152726361Y-88114285D02*
X152802552Y-88152381D01*
X152802552Y-88152381D02*
X152840647Y-88190476D01*
X152840647Y-88190476D02*
X152878742Y-88266666D01*
X152878742Y-88266666D02*
X152878742Y-88571428D01*
X153259695Y-87352381D02*
X153259695Y-87809524D01*
X153259695Y-87580952D02*
X152459695Y-87580952D01*
X152459695Y-87580952D02*
X152573980Y-87657143D01*
X152573980Y-87657143D02*
X152650171Y-87733333D01*
X152650171Y-87733333D02*
X152688266Y-87809524D01*
X152459695Y-87085714D02*
X152459695Y-86590476D01*
X152459695Y-86590476D02*
X152764457Y-86857142D01*
X152764457Y-86857142D02*
X152764457Y-86742857D01*
X152764457Y-86742857D02*
X152802552Y-86666666D01*
X152802552Y-86666666D02*
X152840647Y-86628571D01*
X152840647Y-86628571D02*
X152916838Y-86590476D01*
X152916838Y-86590476D02*
X153107314Y-86590476D01*
X153107314Y-86590476D02*
X153183504Y-86628571D01*
X153183504Y-86628571D02*
X153221600Y-86666666D01*
X153221600Y-86666666D02*
X153259695Y-86742857D01*
X153259695Y-86742857D02*
X153259695Y-86971428D01*
X153259695Y-86971428D02*
X153221600Y-87047619D01*
X153221600Y-87047619D02*
X153183504Y-87085714D01*
X164060714Y-96209695D02*
X163794047Y-95828742D01*
X163603571Y-96209695D02*
X163603571Y-95409695D01*
X163603571Y-95409695D02*
X163908333Y-95409695D01*
X163908333Y-95409695D02*
X163984523Y-95447790D01*
X163984523Y-95447790D02*
X164022618Y-95485885D01*
X164022618Y-95485885D02*
X164060714Y-95562076D01*
X164060714Y-95562076D02*
X164060714Y-95676361D01*
X164060714Y-95676361D02*
X164022618Y-95752552D01*
X164022618Y-95752552D02*
X163984523Y-95790647D01*
X163984523Y-95790647D02*
X163908333Y-95828742D01*
X163908333Y-95828742D02*
X163603571Y-95828742D01*
X164822618Y-96209695D02*
X164365475Y-96209695D01*
X164594047Y-96209695D02*
X164594047Y-95409695D01*
X164594047Y-95409695D02*
X164517856Y-95523980D01*
X164517856Y-95523980D02*
X164441666Y-95600171D01*
X164441666Y-95600171D02*
X164365475Y-95638266D01*
X165546428Y-95409695D02*
X165165476Y-95409695D01*
X165165476Y-95409695D02*
X165127380Y-95790647D01*
X165127380Y-95790647D02*
X165165476Y-95752552D01*
X165165476Y-95752552D02*
X165241666Y-95714457D01*
X165241666Y-95714457D02*
X165432142Y-95714457D01*
X165432142Y-95714457D02*
X165508333Y-95752552D01*
X165508333Y-95752552D02*
X165546428Y-95790647D01*
X165546428Y-95790647D02*
X165584523Y-95866838D01*
X165584523Y-95866838D02*
X165584523Y-96057314D01*
X165584523Y-96057314D02*
X165546428Y-96133504D01*
X165546428Y-96133504D02*
X165508333Y-96171600D01*
X165508333Y-96171600D02*
X165432142Y-96209695D01*
X165432142Y-96209695D02*
X165241666Y-96209695D01*
X165241666Y-96209695D02*
X165165476Y-96171600D01*
X165165476Y-96171600D02*
X165127380Y-96133504D01*
X175159695Y-102733332D02*
X174778742Y-102999999D01*
X175159695Y-103190475D02*
X174359695Y-103190475D01*
X174359695Y-103190475D02*
X174359695Y-102885713D01*
X174359695Y-102885713D02*
X174397790Y-102809523D01*
X174397790Y-102809523D02*
X174435885Y-102771428D01*
X174435885Y-102771428D02*
X174512076Y-102733332D01*
X174512076Y-102733332D02*
X174626361Y-102733332D01*
X174626361Y-102733332D02*
X174702552Y-102771428D01*
X174702552Y-102771428D02*
X174740647Y-102809523D01*
X174740647Y-102809523D02*
X174778742Y-102885713D01*
X174778742Y-102885713D02*
X174778742Y-103190475D01*
X175159695Y-102352380D02*
X175159695Y-102199999D01*
X175159695Y-102199999D02*
X175121600Y-102123809D01*
X175121600Y-102123809D02*
X175083504Y-102085713D01*
X175083504Y-102085713D02*
X174969219Y-102009523D01*
X174969219Y-102009523D02*
X174816838Y-101971428D01*
X174816838Y-101971428D02*
X174512076Y-101971428D01*
X174512076Y-101971428D02*
X174435885Y-102009523D01*
X174435885Y-102009523D02*
X174397790Y-102047618D01*
X174397790Y-102047618D02*
X174359695Y-102123809D01*
X174359695Y-102123809D02*
X174359695Y-102276190D01*
X174359695Y-102276190D02*
X174397790Y-102352380D01*
X174397790Y-102352380D02*
X174435885Y-102390475D01*
X174435885Y-102390475D02*
X174512076Y-102428571D01*
X174512076Y-102428571D02*
X174702552Y-102428571D01*
X174702552Y-102428571D02*
X174778742Y-102390475D01*
X174778742Y-102390475D02*
X174816838Y-102352380D01*
X174816838Y-102352380D02*
X174854933Y-102276190D01*
X174854933Y-102276190D02*
X174854933Y-102123809D01*
X174854933Y-102123809D02*
X174816838Y-102047618D01*
X174816838Y-102047618D02*
X174778742Y-102009523D01*
X174778742Y-102009523D02*
X174702552Y-101971428D01*
X139885714Y-101479695D02*
X139619047Y-101098742D01*
X139428571Y-101479695D02*
X139428571Y-100679695D01*
X139428571Y-100679695D02*
X139733333Y-100679695D01*
X139733333Y-100679695D02*
X139809523Y-100717790D01*
X139809523Y-100717790D02*
X139847618Y-100755885D01*
X139847618Y-100755885D02*
X139885714Y-100832076D01*
X139885714Y-100832076D02*
X139885714Y-100946361D01*
X139885714Y-100946361D02*
X139847618Y-101022552D01*
X139847618Y-101022552D02*
X139809523Y-101060647D01*
X139809523Y-101060647D02*
X139733333Y-101098742D01*
X139733333Y-101098742D02*
X139428571Y-101098742D01*
X140190475Y-100755885D02*
X140228571Y-100717790D01*
X140228571Y-100717790D02*
X140304761Y-100679695D01*
X140304761Y-100679695D02*
X140495237Y-100679695D01*
X140495237Y-100679695D02*
X140571428Y-100717790D01*
X140571428Y-100717790D02*
X140609523Y-100755885D01*
X140609523Y-100755885D02*
X140647618Y-100832076D01*
X140647618Y-100832076D02*
X140647618Y-100908266D01*
X140647618Y-100908266D02*
X140609523Y-101022552D01*
X140609523Y-101022552D02*
X140152380Y-101479695D01*
X140152380Y-101479695D02*
X140647618Y-101479695D01*
X141333333Y-100679695D02*
X141180952Y-100679695D01*
X141180952Y-100679695D02*
X141104761Y-100717790D01*
X141104761Y-100717790D02*
X141066666Y-100755885D01*
X141066666Y-100755885D02*
X140990476Y-100870171D01*
X140990476Y-100870171D02*
X140952380Y-101022552D01*
X140952380Y-101022552D02*
X140952380Y-101327314D01*
X140952380Y-101327314D02*
X140990476Y-101403504D01*
X140990476Y-101403504D02*
X141028571Y-101441600D01*
X141028571Y-101441600D02*
X141104761Y-101479695D01*
X141104761Y-101479695D02*
X141257142Y-101479695D01*
X141257142Y-101479695D02*
X141333333Y-101441600D01*
X141333333Y-101441600D02*
X141371428Y-101403504D01*
X141371428Y-101403504D02*
X141409523Y-101327314D01*
X141409523Y-101327314D02*
X141409523Y-101136838D01*
X141409523Y-101136838D02*
X141371428Y-101060647D01*
X141371428Y-101060647D02*
X141333333Y-101022552D01*
X141333333Y-101022552D02*
X141257142Y-100984457D01*
X141257142Y-100984457D02*
X141104761Y-100984457D01*
X141104761Y-100984457D02*
X141028571Y-101022552D01*
X141028571Y-101022552D02*
X140990476Y-101060647D01*
X140990476Y-101060647D02*
X140952380Y-101136838D01*
X164085714Y-99559695D02*
X163819047Y-99178742D01*
X163628571Y-99559695D02*
X163628571Y-98759695D01*
X163628571Y-98759695D02*
X163933333Y-98759695D01*
X163933333Y-98759695D02*
X164009523Y-98797790D01*
X164009523Y-98797790D02*
X164047618Y-98835885D01*
X164047618Y-98835885D02*
X164085714Y-98912076D01*
X164085714Y-98912076D02*
X164085714Y-99026361D01*
X164085714Y-99026361D02*
X164047618Y-99102552D01*
X164047618Y-99102552D02*
X164009523Y-99140647D01*
X164009523Y-99140647D02*
X163933333Y-99178742D01*
X163933333Y-99178742D02*
X163628571Y-99178742D01*
X164847618Y-99559695D02*
X164390475Y-99559695D01*
X164619047Y-99559695D02*
X164619047Y-98759695D01*
X164619047Y-98759695D02*
X164542856Y-98873980D01*
X164542856Y-98873980D02*
X164466666Y-98950171D01*
X164466666Y-98950171D02*
X164390475Y-98988266D01*
X165533333Y-99026361D02*
X165533333Y-99559695D01*
X165342857Y-98721600D02*
X165152380Y-99293028D01*
X165152380Y-99293028D02*
X165647619Y-99293028D01*
X151559695Y-88014285D02*
X151178742Y-88280952D01*
X151559695Y-88471428D02*
X150759695Y-88471428D01*
X150759695Y-88471428D02*
X150759695Y-88166666D01*
X150759695Y-88166666D02*
X150797790Y-88090476D01*
X150797790Y-88090476D02*
X150835885Y-88052381D01*
X150835885Y-88052381D02*
X150912076Y-88014285D01*
X150912076Y-88014285D02*
X151026361Y-88014285D01*
X151026361Y-88014285D02*
X151102552Y-88052381D01*
X151102552Y-88052381D02*
X151140647Y-88090476D01*
X151140647Y-88090476D02*
X151178742Y-88166666D01*
X151178742Y-88166666D02*
X151178742Y-88471428D01*
X151559695Y-87252381D02*
X151559695Y-87709524D01*
X151559695Y-87480952D02*
X150759695Y-87480952D01*
X150759695Y-87480952D02*
X150873980Y-87557143D01*
X150873980Y-87557143D02*
X150950171Y-87633333D01*
X150950171Y-87633333D02*
X150988266Y-87709524D01*
X151559695Y-86871428D02*
X151559695Y-86719047D01*
X151559695Y-86719047D02*
X151521600Y-86642857D01*
X151521600Y-86642857D02*
X151483504Y-86604761D01*
X151483504Y-86604761D02*
X151369219Y-86528571D01*
X151369219Y-86528571D02*
X151216838Y-86490476D01*
X151216838Y-86490476D02*
X150912076Y-86490476D01*
X150912076Y-86490476D02*
X150835885Y-86528571D01*
X150835885Y-86528571D02*
X150797790Y-86566666D01*
X150797790Y-86566666D02*
X150759695Y-86642857D01*
X150759695Y-86642857D02*
X150759695Y-86795238D01*
X150759695Y-86795238D02*
X150797790Y-86871428D01*
X150797790Y-86871428D02*
X150835885Y-86909523D01*
X150835885Y-86909523D02*
X150912076Y-86947619D01*
X150912076Y-86947619D02*
X151102552Y-86947619D01*
X151102552Y-86947619D02*
X151178742Y-86909523D01*
X151178742Y-86909523D02*
X151216838Y-86871428D01*
X151216838Y-86871428D02*
X151254933Y-86795238D01*
X151254933Y-86795238D02*
X151254933Y-86642857D01*
X151254933Y-86642857D02*
X151216838Y-86566666D01*
X151216838Y-86566666D02*
X151178742Y-86528571D01*
X151178742Y-86528571D02*
X151102552Y-86490476D01*
X149959695Y-88014285D02*
X149578742Y-88280952D01*
X149959695Y-88471428D02*
X149159695Y-88471428D01*
X149159695Y-88471428D02*
X149159695Y-88166666D01*
X149159695Y-88166666D02*
X149197790Y-88090476D01*
X149197790Y-88090476D02*
X149235885Y-88052381D01*
X149235885Y-88052381D02*
X149312076Y-88014285D01*
X149312076Y-88014285D02*
X149426361Y-88014285D01*
X149426361Y-88014285D02*
X149502552Y-88052381D01*
X149502552Y-88052381D02*
X149540647Y-88090476D01*
X149540647Y-88090476D02*
X149578742Y-88166666D01*
X149578742Y-88166666D02*
X149578742Y-88471428D01*
X149235885Y-87709524D02*
X149197790Y-87671428D01*
X149197790Y-87671428D02*
X149159695Y-87595238D01*
X149159695Y-87595238D02*
X149159695Y-87404762D01*
X149159695Y-87404762D02*
X149197790Y-87328571D01*
X149197790Y-87328571D02*
X149235885Y-87290476D01*
X149235885Y-87290476D02*
X149312076Y-87252381D01*
X149312076Y-87252381D02*
X149388266Y-87252381D01*
X149388266Y-87252381D02*
X149502552Y-87290476D01*
X149502552Y-87290476D02*
X149959695Y-87747619D01*
X149959695Y-87747619D02*
X149959695Y-87252381D01*
X149159695Y-86757142D02*
X149159695Y-86680952D01*
X149159695Y-86680952D02*
X149197790Y-86604761D01*
X149197790Y-86604761D02*
X149235885Y-86566666D01*
X149235885Y-86566666D02*
X149312076Y-86528571D01*
X149312076Y-86528571D02*
X149464457Y-86490476D01*
X149464457Y-86490476D02*
X149654933Y-86490476D01*
X149654933Y-86490476D02*
X149807314Y-86528571D01*
X149807314Y-86528571D02*
X149883504Y-86566666D01*
X149883504Y-86566666D02*
X149921600Y-86604761D01*
X149921600Y-86604761D02*
X149959695Y-86680952D01*
X149959695Y-86680952D02*
X149959695Y-86757142D01*
X149959695Y-86757142D02*
X149921600Y-86833333D01*
X149921600Y-86833333D02*
X149883504Y-86871428D01*
X149883504Y-86871428D02*
X149807314Y-86909523D01*
X149807314Y-86909523D02*
X149654933Y-86947619D01*
X149654933Y-86947619D02*
X149464457Y-86947619D01*
X149464457Y-86947619D02*
X149312076Y-86909523D01*
X149312076Y-86909523D02*
X149235885Y-86871428D01*
X149235885Y-86871428D02*
X149197790Y-86833333D01*
X149197790Y-86833333D02*
X149159695Y-86757142D01*
X161485714Y-89959695D02*
X161219047Y-89578742D01*
X161028571Y-89959695D02*
X161028571Y-89159695D01*
X161028571Y-89159695D02*
X161333333Y-89159695D01*
X161333333Y-89159695D02*
X161409523Y-89197790D01*
X161409523Y-89197790D02*
X161447618Y-89235885D01*
X161447618Y-89235885D02*
X161485714Y-89312076D01*
X161485714Y-89312076D02*
X161485714Y-89426361D01*
X161485714Y-89426361D02*
X161447618Y-89502552D01*
X161447618Y-89502552D02*
X161409523Y-89540647D01*
X161409523Y-89540647D02*
X161333333Y-89578742D01*
X161333333Y-89578742D02*
X161028571Y-89578742D01*
X162247618Y-89959695D02*
X161790475Y-89959695D01*
X162019047Y-89959695D02*
X162019047Y-89159695D01*
X162019047Y-89159695D02*
X161942856Y-89273980D01*
X161942856Y-89273980D02*
X161866666Y-89350171D01*
X161866666Y-89350171D02*
X161790475Y-89388266D01*
X162704761Y-89502552D02*
X162628571Y-89464457D01*
X162628571Y-89464457D02*
X162590476Y-89426361D01*
X162590476Y-89426361D02*
X162552380Y-89350171D01*
X162552380Y-89350171D02*
X162552380Y-89312076D01*
X162552380Y-89312076D02*
X162590476Y-89235885D01*
X162590476Y-89235885D02*
X162628571Y-89197790D01*
X162628571Y-89197790D02*
X162704761Y-89159695D01*
X162704761Y-89159695D02*
X162857142Y-89159695D01*
X162857142Y-89159695D02*
X162933333Y-89197790D01*
X162933333Y-89197790D02*
X162971428Y-89235885D01*
X162971428Y-89235885D02*
X163009523Y-89312076D01*
X163009523Y-89312076D02*
X163009523Y-89350171D01*
X163009523Y-89350171D02*
X162971428Y-89426361D01*
X162971428Y-89426361D02*
X162933333Y-89464457D01*
X162933333Y-89464457D02*
X162857142Y-89502552D01*
X162857142Y-89502552D02*
X162704761Y-89502552D01*
X162704761Y-89502552D02*
X162628571Y-89540647D01*
X162628571Y-89540647D02*
X162590476Y-89578742D01*
X162590476Y-89578742D02*
X162552380Y-89654933D01*
X162552380Y-89654933D02*
X162552380Y-89807314D01*
X162552380Y-89807314D02*
X162590476Y-89883504D01*
X162590476Y-89883504D02*
X162628571Y-89921600D01*
X162628571Y-89921600D02*
X162704761Y-89959695D01*
X162704761Y-89959695D02*
X162857142Y-89959695D01*
X162857142Y-89959695D02*
X162933333Y-89921600D01*
X162933333Y-89921600D02*
X162971428Y-89883504D01*
X162971428Y-89883504D02*
X163009523Y-89807314D01*
X163009523Y-89807314D02*
X163009523Y-89654933D01*
X163009523Y-89654933D02*
X162971428Y-89578742D01*
X162971428Y-89578742D02*
X162933333Y-89540647D01*
X162933333Y-89540647D02*
X162857142Y-89502552D01*
X143566667Y-100883504D02*
X143528571Y-100921600D01*
X143528571Y-100921600D02*
X143414286Y-100959695D01*
X143414286Y-100959695D02*
X143338095Y-100959695D01*
X143338095Y-100959695D02*
X143223809Y-100921600D01*
X143223809Y-100921600D02*
X143147619Y-100845409D01*
X143147619Y-100845409D02*
X143109524Y-100769219D01*
X143109524Y-100769219D02*
X143071428Y-100616838D01*
X143071428Y-100616838D02*
X143071428Y-100502552D01*
X143071428Y-100502552D02*
X143109524Y-100350171D01*
X143109524Y-100350171D02*
X143147619Y-100273980D01*
X143147619Y-100273980D02*
X143223809Y-100197790D01*
X143223809Y-100197790D02*
X143338095Y-100159695D01*
X143338095Y-100159695D02*
X143414286Y-100159695D01*
X143414286Y-100159695D02*
X143528571Y-100197790D01*
X143528571Y-100197790D02*
X143566667Y-100235885D01*
X144328571Y-100959695D02*
X143871428Y-100959695D01*
X144100000Y-100959695D02*
X144100000Y-100159695D01*
X144100000Y-100159695D02*
X144023809Y-100273980D01*
X144023809Y-100273980D02*
X143947619Y-100350171D01*
X143947619Y-100350171D02*
X143871428Y-100388266D01*
X182459695Y-102276189D02*
X182078742Y-102542856D01*
X182459695Y-102733332D02*
X181659695Y-102733332D01*
X181659695Y-102733332D02*
X181659695Y-102428570D01*
X181659695Y-102428570D02*
X181697790Y-102352380D01*
X181697790Y-102352380D02*
X181735885Y-102314285D01*
X181735885Y-102314285D02*
X181812076Y-102276189D01*
X181812076Y-102276189D02*
X181926361Y-102276189D01*
X181926361Y-102276189D02*
X182002552Y-102314285D01*
X182002552Y-102314285D02*
X182040647Y-102352380D01*
X182040647Y-102352380D02*
X182078742Y-102428570D01*
X182078742Y-102428570D02*
X182078742Y-102733332D01*
X181659695Y-102047618D02*
X182459695Y-101780951D01*
X182459695Y-101780951D02*
X181659695Y-101514285D01*
X182459695Y-100828571D02*
X182459695Y-101285714D01*
X182459695Y-101057142D02*
X181659695Y-101057142D01*
X181659695Y-101057142D02*
X181773980Y-101133333D01*
X181773980Y-101133333D02*
X181850171Y-101209523D01*
X181850171Y-101209523D02*
X181888266Y-101285714D01*
X163985714Y-87483504D02*
X163947618Y-87521600D01*
X163947618Y-87521600D02*
X163833333Y-87559695D01*
X163833333Y-87559695D02*
X163757142Y-87559695D01*
X163757142Y-87559695D02*
X163642856Y-87521600D01*
X163642856Y-87521600D02*
X163566666Y-87445409D01*
X163566666Y-87445409D02*
X163528571Y-87369219D01*
X163528571Y-87369219D02*
X163490475Y-87216838D01*
X163490475Y-87216838D02*
X163490475Y-87102552D01*
X163490475Y-87102552D02*
X163528571Y-86950171D01*
X163528571Y-86950171D02*
X163566666Y-86873980D01*
X163566666Y-86873980D02*
X163642856Y-86797790D01*
X163642856Y-86797790D02*
X163757142Y-86759695D01*
X163757142Y-86759695D02*
X163833333Y-86759695D01*
X163833333Y-86759695D02*
X163947618Y-86797790D01*
X163947618Y-86797790D02*
X163985714Y-86835885D01*
X164747618Y-87559695D02*
X164290475Y-87559695D01*
X164519047Y-87559695D02*
X164519047Y-86759695D01*
X164519047Y-86759695D02*
X164442856Y-86873980D01*
X164442856Y-86873980D02*
X164366666Y-86950171D01*
X164366666Y-86950171D02*
X164290475Y-86988266D01*
X165204761Y-87102552D02*
X165128571Y-87064457D01*
X165128571Y-87064457D02*
X165090476Y-87026361D01*
X165090476Y-87026361D02*
X165052380Y-86950171D01*
X165052380Y-86950171D02*
X165052380Y-86912076D01*
X165052380Y-86912076D02*
X165090476Y-86835885D01*
X165090476Y-86835885D02*
X165128571Y-86797790D01*
X165128571Y-86797790D02*
X165204761Y-86759695D01*
X165204761Y-86759695D02*
X165357142Y-86759695D01*
X165357142Y-86759695D02*
X165433333Y-86797790D01*
X165433333Y-86797790D02*
X165471428Y-86835885D01*
X165471428Y-86835885D02*
X165509523Y-86912076D01*
X165509523Y-86912076D02*
X165509523Y-86950171D01*
X165509523Y-86950171D02*
X165471428Y-87026361D01*
X165471428Y-87026361D02*
X165433333Y-87064457D01*
X165433333Y-87064457D02*
X165357142Y-87102552D01*
X165357142Y-87102552D02*
X165204761Y-87102552D01*
X165204761Y-87102552D02*
X165128571Y-87140647D01*
X165128571Y-87140647D02*
X165090476Y-87178742D01*
X165090476Y-87178742D02*
X165052380Y-87254933D01*
X165052380Y-87254933D02*
X165052380Y-87407314D01*
X165052380Y-87407314D02*
X165090476Y-87483504D01*
X165090476Y-87483504D02*
X165128571Y-87521600D01*
X165128571Y-87521600D02*
X165204761Y-87559695D01*
X165204761Y-87559695D02*
X165357142Y-87559695D01*
X165357142Y-87559695D02*
X165433333Y-87521600D01*
X165433333Y-87521600D02*
X165471428Y-87483504D01*
X165471428Y-87483504D02*
X165509523Y-87407314D01*
X165509523Y-87407314D02*
X165509523Y-87254933D01*
X165509523Y-87254933D02*
X165471428Y-87178742D01*
X165471428Y-87178742D02*
X165433333Y-87140647D01*
X165433333Y-87140647D02*
X165357142Y-87102552D01*
X154859695Y-88114285D02*
X154478742Y-88380952D01*
X154859695Y-88571428D02*
X154059695Y-88571428D01*
X154059695Y-88571428D02*
X154059695Y-88266666D01*
X154059695Y-88266666D02*
X154097790Y-88190476D01*
X154097790Y-88190476D02*
X154135885Y-88152381D01*
X154135885Y-88152381D02*
X154212076Y-88114285D01*
X154212076Y-88114285D02*
X154326361Y-88114285D01*
X154326361Y-88114285D02*
X154402552Y-88152381D01*
X154402552Y-88152381D02*
X154440647Y-88190476D01*
X154440647Y-88190476D02*
X154478742Y-88266666D01*
X154478742Y-88266666D02*
X154478742Y-88571428D01*
X154859695Y-87352381D02*
X154859695Y-87809524D01*
X154859695Y-87580952D02*
X154059695Y-87580952D01*
X154059695Y-87580952D02*
X154173980Y-87657143D01*
X154173980Y-87657143D02*
X154250171Y-87733333D01*
X154250171Y-87733333D02*
X154288266Y-87809524D01*
X154135885Y-87047619D02*
X154097790Y-87009523D01*
X154097790Y-87009523D02*
X154059695Y-86933333D01*
X154059695Y-86933333D02*
X154059695Y-86742857D01*
X154059695Y-86742857D02*
X154097790Y-86666666D01*
X154097790Y-86666666D02*
X154135885Y-86628571D01*
X154135885Y-86628571D02*
X154212076Y-86590476D01*
X154212076Y-86590476D02*
X154288266Y-86590476D01*
X154288266Y-86590476D02*
X154402552Y-86628571D01*
X154402552Y-86628571D02*
X154859695Y-87085714D01*
X154859695Y-87085714D02*
X154859695Y-86590476D01*
X142366667Y-97483504D02*
X142328571Y-97521600D01*
X142328571Y-97521600D02*
X142214286Y-97559695D01*
X142214286Y-97559695D02*
X142138095Y-97559695D01*
X142138095Y-97559695D02*
X142023809Y-97521600D01*
X142023809Y-97521600D02*
X141947619Y-97445409D01*
X141947619Y-97445409D02*
X141909524Y-97369219D01*
X141909524Y-97369219D02*
X141871428Y-97216838D01*
X141871428Y-97216838D02*
X141871428Y-97102552D01*
X141871428Y-97102552D02*
X141909524Y-96950171D01*
X141909524Y-96950171D02*
X141947619Y-96873980D01*
X141947619Y-96873980D02*
X142023809Y-96797790D01*
X142023809Y-96797790D02*
X142138095Y-96759695D01*
X142138095Y-96759695D02*
X142214286Y-96759695D01*
X142214286Y-96759695D02*
X142328571Y-96797790D01*
X142328571Y-96797790D02*
X142366667Y-96835885D01*
X142633333Y-96759695D02*
X143128571Y-96759695D01*
X143128571Y-96759695D02*
X142861905Y-97064457D01*
X142861905Y-97064457D02*
X142976190Y-97064457D01*
X142976190Y-97064457D02*
X143052381Y-97102552D01*
X143052381Y-97102552D02*
X143090476Y-97140647D01*
X143090476Y-97140647D02*
X143128571Y-97216838D01*
X143128571Y-97216838D02*
X143128571Y-97407314D01*
X143128571Y-97407314D02*
X143090476Y-97483504D01*
X143090476Y-97483504D02*
X143052381Y-97521600D01*
X143052381Y-97521600D02*
X142976190Y-97559695D01*
X142976190Y-97559695D02*
X142747619Y-97559695D01*
X142747619Y-97559695D02*
X142671428Y-97521600D01*
X142671428Y-97521600D02*
X142633333Y-97483504D01*
X167060714Y-88283504D02*
X167022618Y-88321600D01*
X167022618Y-88321600D02*
X166908333Y-88359695D01*
X166908333Y-88359695D02*
X166832142Y-88359695D01*
X166832142Y-88359695D02*
X166717856Y-88321600D01*
X166717856Y-88321600D02*
X166641666Y-88245409D01*
X166641666Y-88245409D02*
X166603571Y-88169219D01*
X166603571Y-88169219D02*
X166565475Y-88016838D01*
X166565475Y-88016838D02*
X166565475Y-87902552D01*
X166565475Y-87902552D02*
X166603571Y-87750171D01*
X166603571Y-87750171D02*
X166641666Y-87673980D01*
X166641666Y-87673980D02*
X166717856Y-87597790D01*
X166717856Y-87597790D02*
X166832142Y-87559695D01*
X166832142Y-87559695D02*
X166908333Y-87559695D01*
X166908333Y-87559695D02*
X167022618Y-87597790D01*
X167022618Y-87597790D02*
X167060714Y-87635885D01*
X167822618Y-88359695D02*
X167365475Y-88359695D01*
X167594047Y-88359695D02*
X167594047Y-87559695D01*
X167594047Y-87559695D02*
X167517856Y-87673980D01*
X167517856Y-87673980D02*
X167441666Y-87750171D01*
X167441666Y-87750171D02*
X167365475Y-87788266D01*
X168127380Y-87635885D02*
X168165476Y-87597790D01*
X168165476Y-87597790D02*
X168241666Y-87559695D01*
X168241666Y-87559695D02*
X168432142Y-87559695D01*
X168432142Y-87559695D02*
X168508333Y-87597790D01*
X168508333Y-87597790D02*
X168546428Y-87635885D01*
X168546428Y-87635885D02*
X168584523Y-87712076D01*
X168584523Y-87712076D02*
X168584523Y-87788266D01*
X168584523Y-87788266D02*
X168546428Y-87902552D01*
X168546428Y-87902552D02*
X168089285Y-88359695D01*
X168089285Y-88359695D02*
X168584523Y-88359695D01*
X161466667Y-91659695D02*
X161200000Y-91278742D01*
X161009524Y-91659695D02*
X161009524Y-90859695D01*
X161009524Y-90859695D02*
X161314286Y-90859695D01*
X161314286Y-90859695D02*
X161390476Y-90897790D01*
X161390476Y-90897790D02*
X161428571Y-90935885D01*
X161428571Y-90935885D02*
X161466667Y-91012076D01*
X161466667Y-91012076D02*
X161466667Y-91126361D01*
X161466667Y-91126361D02*
X161428571Y-91202552D01*
X161428571Y-91202552D02*
X161390476Y-91240647D01*
X161390476Y-91240647D02*
X161314286Y-91278742D01*
X161314286Y-91278742D02*
X161009524Y-91278742D01*
X161733333Y-90859695D02*
X162266667Y-90859695D01*
X162266667Y-90859695D02*
X161923809Y-91659695D01*
X172959695Y-102014285D02*
X172578742Y-102280952D01*
X172959695Y-102471428D02*
X172159695Y-102471428D01*
X172159695Y-102471428D02*
X172159695Y-102166666D01*
X172159695Y-102166666D02*
X172197790Y-102090476D01*
X172197790Y-102090476D02*
X172235885Y-102052381D01*
X172235885Y-102052381D02*
X172312076Y-102014285D01*
X172312076Y-102014285D02*
X172426361Y-102014285D01*
X172426361Y-102014285D02*
X172502552Y-102052381D01*
X172502552Y-102052381D02*
X172540647Y-102090476D01*
X172540647Y-102090476D02*
X172578742Y-102166666D01*
X172578742Y-102166666D02*
X172578742Y-102471428D01*
X172959695Y-101252381D02*
X172959695Y-101709524D01*
X172959695Y-101480952D02*
X172159695Y-101480952D01*
X172159695Y-101480952D02*
X172273980Y-101557143D01*
X172273980Y-101557143D02*
X172350171Y-101633333D01*
X172350171Y-101633333D02*
X172388266Y-101709524D01*
X172159695Y-100985714D02*
X172159695Y-100452380D01*
X172159695Y-100452380D02*
X172959695Y-100795238D01*
X161485714Y-96583504D02*
X161447618Y-96621600D01*
X161447618Y-96621600D02*
X161333333Y-96659695D01*
X161333333Y-96659695D02*
X161257142Y-96659695D01*
X161257142Y-96659695D02*
X161142856Y-96621600D01*
X161142856Y-96621600D02*
X161066666Y-96545409D01*
X161066666Y-96545409D02*
X161028571Y-96469219D01*
X161028571Y-96469219D02*
X160990475Y-96316838D01*
X160990475Y-96316838D02*
X160990475Y-96202552D01*
X160990475Y-96202552D02*
X161028571Y-96050171D01*
X161028571Y-96050171D02*
X161066666Y-95973980D01*
X161066666Y-95973980D02*
X161142856Y-95897790D01*
X161142856Y-95897790D02*
X161257142Y-95859695D01*
X161257142Y-95859695D02*
X161333333Y-95859695D01*
X161333333Y-95859695D02*
X161447618Y-95897790D01*
X161447618Y-95897790D02*
X161485714Y-95935885D01*
X162247618Y-96659695D02*
X161790475Y-96659695D01*
X162019047Y-96659695D02*
X162019047Y-95859695D01*
X162019047Y-95859695D02*
X161942856Y-95973980D01*
X161942856Y-95973980D02*
X161866666Y-96050171D01*
X161866666Y-96050171D02*
X161790475Y-96088266D01*
X162971428Y-95859695D02*
X162590476Y-95859695D01*
X162590476Y-95859695D02*
X162552380Y-96240647D01*
X162552380Y-96240647D02*
X162590476Y-96202552D01*
X162590476Y-96202552D02*
X162666666Y-96164457D01*
X162666666Y-96164457D02*
X162857142Y-96164457D01*
X162857142Y-96164457D02*
X162933333Y-96202552D01*
X162933333Y-96202552D02*
X162971428Y-96240647D01*
X162971428Y-96240647D02*
X163009523Y-96316838D01*
X163009523Y-96316838D02*
X163009523Y-96507314D01*
X163009523Y-96507314D02*
X162971428Y-96583504D01*
X162971428Y-96583504D02*
X162933333Y-96621600D01*
X162933333Y-96621600D02*
X162857142Y-96659695D01*
X162857142Y-96659695D02*
X162666666Y-96659695D01*
X162666666Y-96659695D02*
X162590476Y-96621600D01*
X162590476Y-96621600D02*
X162552380Y-96583504D01*
X151966667Y-112359695D02*
X151700000Y-111978742D01*
X151509524Y-112359695D02*
X151509524Y-111559695D01*
X151509524Y-111559695D02*
X151814286Y-111559695D01*
X151814286Y-111559695D02*
X151890476Y-111597790D01*
X151890476Y-111597790D02*
X151928571Y-111635885D01*
X151928571Y-111635885D02*
X151966667Y-111712076D01*
X151966667Y-111712076D02*
X151966667Y-111826361D01*
X151966667Y-111826361D02*
X151928571Y-111902552D01*
X151928571Y-111902552D02*
X151890476Y-111940647D01*
X151890476Y-111940647D02*
X151814286Y-111978742D01*
X151814286Y-111978742D02*
X151509524Y-111978742D01*
X152271428Y-111635885D02*
X152309524Y-111597790D01*
X152309524Y-111597790D02*
X152385714Y-111559695D01*
X152385714Y-111559695D02*
X152576190Y-111559695D01*
X152576190Y-111559695D02*
X152652381Y-111597790D01*
X152652381Y-111597790D02*
X152690476Y-111635885D01*
X152690476Y-111635885D02*
X152728571Y-111712076D01*
X152728571Y-111712076D02*
X152728571Y-111788266D01*
X152728571Y-111788266D02*
X152690476Y-111902552D01*
X152690476Y-111902552D02*
X152233333Y-112359695D01*
X152233333Y-112359695D02*
X152728571Y-112359695D01*
X175259695Y-110114285D02*
X174878742Y-110380952D01*
X175259695Y-110571428D02*
X174459695Y-110571428D01*
X174459695Y-110571428D02*
X174459695Y-110266666D01*
X174459695Y-110266666D02*
X174497790Y-110190476D01*
X174497790Y-110190476D02*
X174535885Y-110152381D01*
X174535885Y-110152381D02*
X174612076Y-110114285D01*
X174612076Y-110114285D02*
X174726361Y-110114285D01*
X174726361Y-110114285D02*
X174802552Y-110152381D01*
X174802552Y-110152381D02*
X174840647Y-110190476D01*
X174840647Y-110190476D02*
X174878742Y-110266666D01*
X174878742Y-110266666D02*
X174878742Y-110571428D01*
X175259695Y-109352381D02*
X175259695Y-109809524D01*
X175259695Y-109580952D02*
X174459695Y-109580952D01*
X174459695Y-109580952D02*
X174573980Y-109657143D01*
X174573980Y-109657143D02*
X174650171Y-109733333D01*
X174650171Y-109733333D02*
X174688266Y-109809524D01*
X174459695Y-108666666D02*
X174459695Y-108819047D01*
X174459695Y-108819047D02*
X174497790Y-108895238D01*
X174497790Y-108895238D02*
X174535885Y-108933333D01*
X174535885Y-108933333D02*
X174650171Y-109009523D01*
X174650171Y-109009523D02*
X174802552Y-109047619D01*
X174802552Y-109047619D02*
X175107314Y-109047619D01*
X175107314Y-109047619D02*
X175183504Y-109009523D01*
X175183504Y-109009523D02*
X175221600Y-108971428D01*
X175221600Y-108971428D02*
X175259695Y-108895238D01*
X175259695Y-108895238D02*
X175259695Y-108742857D01*
X175259695Y-108742857D02*
X175221600Y-108666666D01*
X175221600Y-108666666D02*
X175183504Y-108628571D01*
X175183504Y-108628571D02*
X175107314Y-108590476D01*
X175107314Y-108590476D02*
X174916838Y-108590476D01*
X174916838Y-108590476D02*
X174840647Y-108628571D01*
X174840647Y-108628571D02*
X174802552Y-108666666D01*
X174802552Y-108666666D02*
X174764457Y-108742857D01*
X174764457Y-108742857D02*
X174764457Y-108895238D01*
X174764457Y-108895238D02*
X174802552Y-108971428D01*
X174802552Y-108971428D02*
X174840647Y-109009523D01*
X174840647Y-109009523D02*
X174916838Y-109047619D01*
X139259695Y-108514285D02*
X138878742Y-108780952D01*
X139259695Y-108971428D02*
X138459695Y-108971428D01*
X138459695Y-108971428D02*
X138459695Y-108666666D01*
X138459695Y-108666666D02*
X138497790Y-108590476D01*
X138497790Y-108590476D02*
X138535885Y-108552381D01*
X138535885Y-108552381D02*
X138612076Y-108514285D01*
X138612076Y-108514285D02*
X138726361Y-108514285D01*
X138726361Y-108514285D02*
X138802552Y-108552381D01*
X138802552Y-108552381D02*
X138840647Y-108590476D01*
X138840647Y-108590476D02*
X138878742Y-108666666D01*
X138878742Y-108666666D02*
X138878742Y-108971428D01*
X138535885Y-108209524D02*
X138497790Y-108171428D01*
X138497790Y-108171428D02*
X138459695Y-108095238D01*
X138459695Y-108095238D02*
X138459695Y-107904762D01*
X138459695Y-107904762D02*
X138497790Y-107828571D01*
X138497790Y-107828571D02*
X138535885Y-107790476D01*
X138535885Y-107790476D02*
X138612076Y-107752381D01*
X138612076Y-107752381D02*
X138688266Y-107752381D01*
X138688266Y-107752381D02*
X138802552Y-107790476D01*
X138802552Y-107790476D02*
X139259695Y-108247619D01*
X139259695Y-108247619D02*
X139259695Y-107752381D01*
X139259695Y-107371428D02*
X139259695Y-107219047D01*
X139259695Y-107219047D02*
X139221600Y-107142857D01*
X139221600Y-107142857D02*
X139183504Y-107104761D01*
X139183504Y-107104761D02*
X139069219Y-107028571D01*
X139069219Y-107028571D02*
X138916838Y-106990476D01*
X138916838Y-106990476D02*
X138612076Y-106990476D01*
X138612076Y-106990476D02*
X138535885Y-107028571D01*
X138535885Y-107028571D02*
X138497790Y-107066666D01*
X138497790Y-107066666D02*
X138459695Y-107142857D01*
X138459695Y-107142857D02*
X138459695Y-107295238D01*
X138459695Y-107295238D02*
X138497790Y-107371428D01*
X138497790Y-107371428D02*
X138535885Y-107409523D01*
X138535885Y-107409523D02*
X138612076Y-107447619D01*
X138612076Y-107447619D02*
X138802552Y-107447619D01*
X138802552Y-107447619D02*
X138878742Y-107409523D01*
X138878742Y-107409523D02*
X138916838Y-107371428D01*
X138916838Y-107371428D02*
X138954933Y-107295238D01*
X138954933Y-107295238D02*
X138954933Y-107142857D01*
X138954933Y-107142857D02*
X138916838Y-107066666D01*
X138916838Y-107066666D02*
X138878742Y-107028571D01*
X138878742Y-107028571D02*
X138802552Y-106990476D01*
X172883504Y-105814285D02*
X172921600Y-105852381D01*
X172921600Y-105852381D02*
X172959695Y-105966666D01*
X172959695Y-105966666D02*
X172959695Y-106042857D01*
X172959695Y-106042857D02*
X172921600Y-106157143D01*
X172921600Y-106157143D02*
X172845409Y-106233333D01*
X172845409Y-106233333D02*
X172769219Y-106271428D01*
X172769219Y-106271428D02*
X172616838Y-106309524D01*
X172616838Y-106309524D02*
X172502552Y-106309524D01*
X172502552Y-106309524D02*
X172350171Y-106271428D01*
X172350171Y-106271428D02*
X172273980Y-106233333D01*
X172273980Y-106233333D02*
X172197790Y-106157143D01*
X172197790Y-106157143D02*
X172159695Y-106042857D01*
X172159695Y-106042857D02*
X172159695Y-105966666D01*
X172159695Y-105966666D02*
X172197790Y-105852381D01*
X172197790Y-105852381D02*
X172235885Y-105814285D01*
X172959695Y-105052381D02*
X172959695Y-105509524D01*
X172959695Y-105280952D02*
X172159695Y-105280952D01*
X172159695Y-105280952D02*
X172273980Y-105357143D01*
X172273980Y-105357143D02*
X172350171Y-105433333D01*
X172350171Y-105433333D02*
X172388266Y-105509524D01*
X172159695Y-104785714D02*
X172159695Y-104252380D01*
X172159695Y-104252380D02*
X172959695Y-104595238D01*
X137706667Y-98817195D02*
X137440000Y-98436242D01*
X137249524Y-98817195D02*
X137249524Y-98017195D01*
X137249524Y-98017195D02*
X137554286Y-98017195D01*
X137554286Y-98017195D02*
X137630476Y-98055290D01*
X137630476Y-98055290D02*
X137668571Y-98093385D01*
X137668571Y-98093385D02*
X137706667Y-98169576D01*
X137706667Y-98169576D02*
X137706667Y-98283861D01*
X137706667Y-98283861D02*
X137668571Y-98360052D01*
X137668571Y-98360052D02*
X137630476Y-98398147D01*
X137630476Y-98398147D02*
X137554286Y-98436242D01*
X137554286Y-98436242D02*
X137249524Y-98436242D01*
X138430476Y-98017195D02*
X138049524Y-98017195D01*
X138049524Y-98017195D02*
X138011428Y-98398147D01*
X138011428Y-98398147D02*
X138049524Y-98360052D01*
X138049524Y-98360052D02*
X138125714Y-98321957D01*
X138125714Y-98321957D02*
X138316190Y-98321957D01*
X138316190Y-98321957D02*
X138392381Y-98360052D01*
X138392381Y-98360052D02*
X138430476Y-98398147D01*
X138430476Y-98398147D02*
X138468571Y-98474338D01*
X138468571Y-98474338D02*
X138468571Y-98664814D01*
X138468571Y-98664814D02*
X138430476Y-98741004D01*
X138430476Y-98741004D02*
X138392381Y-98779100D01*
X138392381Y-98779100D02*
X138316190Y-98817195D01*
X138316190Y-98817195D02*
X138125714Y-98817195D01*
X138125714Y-98817195D02*
X138049524Y-98779100D01*
X138049524Y-98779100D02*
X138011428Y-98741004D01*
X143483504Y-89733332D02*
X143521600Y-89771428D01*
X143521600Y-89771428D02*
X143559695Y-89885713D01*
X143559695Y-89885713D02*
X143559695Y-89961904D01*
X143559695Y-89961904D02*
X143521600Y-90076190D01*
X143521600Y-90076190D02*
X143445409Y-90152380D01*
X143445409Y-90152380D02*
X143369219Y-90190475D01*
X143369219Y-90190475D02*
X143216838Y-90228571D01*
X143216838Y-90228571D02*
X143102552Y-90228571D01*
X143102552Y-90228571D02*
X142950171Y-90190475D01*
X142950171Y-90190475D02*
X142873980Y-90152380D01*
X142873980Y-90152380D02*
X142797790Y-90076190D01*
X142797790Y-90076190D02*
X142759695Y-89961904D01*
X142759695Y-89961904D02*
X142759695Y-89885713D01*
X142759695Y-89885713D02*
X142797790Y-89771428D01*
X142797790Y-89771428D02*
X142835885Y-89733332D01*
X142759695Y-89466666D02*
X142759695Y-88933332D01*
X142759695Y-88933332D02*
X143559695Y-89276190D01*
X161466667Y-98383504D02*
X161428571Y-98421600D01*
X161428571Y-98421600D02*
X161314286Y-98459695D01*
X161314286Y-98459695D02*
X161238095Y-98459695D01*
X161238095Y-98459695D02*
X161123809Y-98421600D01*
X161123809Y-98421600D02*
X161047619Y-98345409D01*
X161047619Y-98345409D02*
X161009524Y-98269219D01*
X161009524Y-98269219D02*
X160971428Y-98116838D01*
X160971428Y-98116838D02*
X160971428Y-98002552D01*
X160971428Y-98002552D02*
X161009524Y-97850171D01*
X161009524Y-97850171D02*
X161047619Y-97773980D01*
X161047619Y-97773980D02*
X161123809Y-97697790D01*
X161123809Y-97697790D02*
X161238095Y-97659695D01*
X161238095Y-97659695D02*
X161314286Y-97659695D01*
X161314286Y-97659695D02*
X161428571Y-97697790D01*
X161428571Y-97697790D02*
X161466667Y-97735885D01*
X161923809Y-98002552D02*
X161847619Y-97964457D01*
X161847619Y-97964457D02*
X161809524Y-97926361D01*
X161809524Y-97926361D02*
X161771428Y-97850171D01*
X161771428Y-97850171D02*
X161771428Y-97812076D01*
X161771428Y-97812076D02*
X161809524Y-97735885D01*
X161809524Y-97735885D02*
X161847619Y-97697790D01*
X161847619Y-97697790D02*
X161923809Y-97659695D01*
X161923809Y-97659695D02*
X162076190Y-97659695D01*
X162076190Y-97659695D02*
X162152381Y-97697790D01*
X162152381Y-97697790D02*
X162190476Y-97735885D01*
X162190476Y-97735885D02*
X162228571Y-97812076D01*
X162228571Y-97812076D02*
X162228571Y-97850171D01*
X162228571Y-97850171D02*
X162190476Y-97926361D01*
X162190476Y-97926361D02*
X162152381Y-97964457D01*
X162152381Y-97964457D02*
X162076190Y-98002552D01*
X162076190Y-98002552D02*
X161923809Y-98002552D01*
X161923809Y-98002552D02*
X161847619Y-98040647D01*
X161847619Y-98040647D02*
X161809524Y-98078742D01*
X161809524Y-98078742D02*
X161771428Y-98154933D01*
X161771428Y-98154933D02*
X161771428Y-98307314D01*
X161771428Y-98307314D02*
X161809524Y-98383504D01*
X161809524Y-98383504D02*
X161847619Y-98421600D01*
X161847619Y-98421600D02*
X161923809Y-98459695D01*
X161923809Y-98459695D02*
X162076190Y-98459695D01*
X162076190Y-98459695D02*
X162152381Y-98421600D01*
X162152381Y-98421600D02*
X162190476Y-98383504D01*
X162190476Y-98383504D02*
X162228571Y-98307314D01*
X162228571Y-98307314D02*
X162228571Y-98154933D01*
X162228571Y-98154933D02*
X162190476Y-98078742D01*
X162190476Y-98078742D02*
X162152381Y-98040647D01*
X162152381Y-98040647D02*
X162076190Y-98002552D01*
X170859695Y-91909523D02*
X171507314Y-91909523D01*
X171507314Y-91909523D02*
X171583504Y-91871428D01*
X171583504Y-91871428D02*
X171621600Y-91833333D01*
X171621600Y-91833333D02*
X171659695Y-91757142D01*
X171659695Y-91757142D02*
X171659695Y-91604761D01*
X171659695Y-91604761D02*
X171621600Y-91528571D01*
X171621600Y-91528571D02*
X171583504Y-91490476D01*
X171583504Y-91490476D02*
X171507314Y-91452380D01*
X171507314Y-91452380D02*
X170859695Y-91452380D01*
X170859695Y-91147619D02*
X170859695Y-90652381D01*
X170859695Y-90652381D02*
X171164457Y-90919047D01*
X171164457Y-90919047D02*
X171164457Y-90804762D01*
X171164457Y-90804762D02*
X171202552Y-90728571D01*
X171202552Y-90728571D02*
X171240647Y-90690476D01*
X171240647Y-90690476D02*
X171316838Y-90652381D01*
X171316838Y-90652381D02*
X171507314Y-90652381D01*
X171507314Y-90652381D02*
X171583504Y-90690476D01*
X171583504Y-90690476D02*
X171621600Y-90728571D01*
X171621600Y-90728571D02*
X171659695Y-90804762D01*
X171659695Y-90804762D02*
X171659695Y-91033333D01*
X171659695Y-91033333D02*
X171621600Y-91109524D01*
X171621600Y-91109524D02*
X171583504Y-91147619D01*
X169859695Y-109014285D02*
X169478742Y-109280952D01*
X169859695Y-109471428D02*
X169059695Y-109471428D01*
X169059695Y-109471428D02*
X169059695Y-109166666D01*
X169059695Y-109166666D02*
X169097790Y-109090476D01*
X169097790Y-109090476D02*
X169135885Y-109052381D01*
X169135885Y-109052381D02*
X169212076Y-109014285D01*
X169212076Y-109014285D02*
X169326361Y-109014285D01*
X169326361Y-109014285D02*
X169402552Y-109052381D01*
X169402552Y-109052381D02*
X169440647Y-109090476D01*
X169440647Y-109090476D02*
X169478742Y-109166666D01*
X169478742Y-109166666D02*
X169478742Y-109471428D01*
X169135885Y-108709524D02*
X169097790Y-108671428D01*
X169097790Y-108671428D02*
X169059695Y-108595238D01*
X169059695Y-108595238D02*
X169059695Y-108404762D01*
X169059695Y-108404762D02*
X169097790Y-108328571D01*
X169097790Y-108328571D02*
X169135885Y-108290476D01*
X169135885Y-108290476D02*
X169212076Y-108252381D01*
X169212076Y-108252381D02*
X169288266Y-108252381D01*
X169288266Y-108252381D02*
X169402552Y-108290476D01*
X169402552Y-108290476D02*
X169859695Y-108747619D01*
X169859695Y-108747619D02*
X169859695Y-108252381D01*
X169859695Y-107490476D02*
X169859695Y-107947619D01*
X169859695Y-107719047D02*
X169059695Y-107719047D01*
X169059695Y-107719047D02*
X169173980Y-107795238D01*
X169173980Y-107795238D02*
X169250171Y-107871428D01*
X169250171Y-107871428D02*
X169288266Y-107947619D01*
X161485714Y-99983504D02*
X161447618Y-100021600D01*
X161447618Y-100021600D02*
X161333333Y-100059695D01*
X161333333Y-100059695D02*
X161257142Y-100059695D01*
X161257142Y-100059695D02*
X161142856Y-100021600D01*
X161142856Y-100021600D02*
X161066666Y-99945409D01*
X161066666Y-99945409D02*
X161028571Y-99869219D01*
X161028571Y-99869219D02*
X160990475Y-99716838D01*
X160990475Y-99716838D02*
X160990475Y-99602552D01*
X160990475Y-99602552D02*
X161028571Y-99450171D01*
X161028571Y-99450171D02*
X161066666Y-99373980D01*
X161066666Y-99373980D02*
X161142856Y-99297790D01*
X161142856Y-99297790D02*
X161257142Y-99259695D01*
X161257142Y-99259695D02*
X161333333Y-99259695D01*
X161333333Y-99259695D02*
X161447618Y-99297790D01*
X161447618Y-99297790D02*
X161485714Y-99335885D01*
X162247618Y-100059695D02*
X161790475Y-100059695D01*
X162019047Y-100059695D02*
X162019047Y-99259695D01*
X162019047Y-99259695D02*
X161942856Y-99373980D01*
X161942856Y-99373980D02*
X161866666Y-99450171D01*
X161866666Y-99450171D02*
X161790475Y-99488266D01*
X162933333Y-99526361D02*
X162933333Y-100059695D01*
X162742857Y-99221600D02*
X162552380Y-99793028D01*
X162552380Y-99793028D02*
X163047619Y-99793028D01*
X135706667Y-98817195D02*
X135440000Y-98436242D01*
X135249524Y-98817195D02*
X135249524Y-98017195D01*
X135249524Y-98017195D02*
X135554286Y-98017195D01*
X135554286Y-98017195D02*
X135630476Y-98055290D01*
X135630476Y-98055290D02*
X135668571Y-98093385D01*
X135668571Y-98093385D02*
X135706667Y-98169576D01*
X135706667Y-98169576D02*
X135706667Y-98283861D01*
X135706667Y-98283861D02*
X135668571Y-98360052D01*
X135668571Y-98360052D02*
X135630476Y-98398147D01*
X135630476Y-98398147D02*
X135554286Y-98436242D01*
X135554286Y-98436242D02*
X135249524Y-98436242D01*
X136392381Y-98017195D02*
X136240000Y-98017195D01*
X136240000Y-98017195D02*
X136163809Y-98055290D01*
X136163809Y-98055290D02*
X136125714Y-98093385D01*
X136125714Y-98093385D02*
X136049524Y-98207671D01*
X136049524Y-98207671D02*
X136011428Y-98360052D01*
X136011428Y-98360052D02*
X136011428Y-98664814D01*
X136011428Y-98664814D02*
X136049524Y-98741004D01*
X136049524Y-98741004D02*
X136087619Y-98779100D01*
X136087619Y-98779100D02*
X136163809Y-98817195D01*
X136163809Y-98817195D02*
X136316190Y-98817195D01*
X136316190Y-98817195D02*
X136392381Y-98779100D01*
X136392381Y-98779100D02*
X136430476Y-98741004D01*
X136430476Y-98741004D02*
X136468571Y-98664814D01*
X136468571Y-98664814D02*
X136468571Y-98474338D01*
X136468571Y-98474338D02*
X136430476Y-98398147D01*
X136430476Y-98398147D02*
X136392381Y-98360052D01*
X136392381Y-98360052D02*
X136316190Y-98321957D01*
X136316190Y-98321957D02*
X136163809Y-98321957D01*
X136163809Y-98321957D02*
X136087619Y-98360052D01*
X136087619Y-98360052D02*
X136049524Y-98398147D01*
X136049524Y-98398147D02*
X136011428Y-98474338D01*
X151285714Y-82959695D02*
X151019047Y-82578742D01*
X150828571Y-82959695D02*
X150828571Y-82159695D01*
X150828571Y-82159695D02*
X151133333Y-82159695D01*
X151133333Y-82159695D02*
X151209523Y-82197790D01*
X151209523Y-82197790D02*
X151247618Y-82235885D01*
X151247618Y-82235885D02*
X151285714Y-82312076D01*
X151285714Y-82312076D02*
X151285714Y-82426361D01*
X151285714Y-82426361D02*
X151247618Y-82502552D01*
X151247618Y-82502552D02*
X151209523Y-82540647D01*
X151209523Y-82540647D02*
X151133333Y-82578742D01*
X151133333Y-82578742D02*
X150828571Y-82578742D01*
X152047618Y-82959695D02*
X151590475Y-82959695D01*
X151819047Y-82959695D02*
X151819047Y-82159695D01*
X151819047Y-82159695D02*
X151742856Y-82273980D01*
X151742856Y-82273980D02*
X151666666Y-82350171D01*
X151666666Y-82350171D02*
X151590475Y-82388266D01*
X152809523Y-82959695D02*
X152352380Y-82959695D01*
X152580952Y-82959695D02*
X152580952Y-82159695D01*
X152580952Y-82159695D02*
X152504761Y-82273980D01*
X152504761Y-82273980D02*
X152428571Y-82350171D01*
X152428571Y-82350171D02*
X152352380Y-82388266D01*
X130633332Y-110721600D02*
X130747618Y-110759695D01*
X130747618Y-110759695D02*
X130938094Y-110759695D01*
X130938094Y-110759695D02*
X131014285Y-110721600D01*
X131014285Y-110721600D02*
X131052380Y-110683504D01*
X131052380Y-110683504D02*
X131090475Y-110607314D01*
X131090475Y-110607314D02*
X131090475Y-110531123D01*
X131090475Y-110531123D02*
X131052380Y-110454933D01*
X131052380Y-110454933D02*
X131014285Y-110416838D01*
X131014285Y-110416838D02*
X130938094Y-110378742D01*
X130938094Y-110378742D02*
X130785713Y-110340647D01*
X130785713Y-110340647D02*
X130709523Y-110302552D01*
X130709523Y-110302552D02*
X130671428Y-110264457D01*
X130671428Y-110264457D02*
X130633332Y-110188266D01*
X130633332Y-110188266D02*
X130633332Y-110112076D01*
X130633332Y-110112076D02*
X130671428Y-110035885D01*
X130671428Y-110035885D02*
X130709523Y-109997790D01*
X130709523Y-109997790D02*
X130785713Y-109959695D01*
X130785713Y-109959695D02*
X130976190Y-109959695D01*
X130976190Y-109959695D02*
X131090475Y-109997790D01*
X131357142Y-109959695D02*
X131547618Y-110759695D01*
X131547618Y-110759695D02*
X131699999Y-110188266D01*
X131699999Y-110188266D02*
X131852380Y-110759695D01*
X131852380Y-110759695D02*
X132042857Y-109959695D01*
X132309523Y-110035885D02*
X132347619Y-109997790D01*
X132347619Y-109997790D02*
X132423809Y-109959695D01*
X132423809Y-109959695D02*
X132614285Y-109959695D01*
X132614285Y-109959695D02*
X132690476Y-109997790D01*
X132690476Y-109997790D02*
X132728571Y-110035885D01*
X132728571Y-110035885D02*
X132766666Y-110112076D01*
X132766666Y-110112076D02*
X132766666Y-110188266D01*
X132766666Y-110188266D02*
X132728571Y-110302552D01*
X132728571Y-110302552D02*
X132271428Y-110759695D01*
X132271428Y-110759695D02*
X132766666Y-110759695D01*
X139013504Y-103889285D02*
X139051600Y-103927381D01*
X139051600Y-103927381D02*
X139089695Y-104041666D01*
X139089695Y-104041666D02*
X139089695Y-104117857D01*
X139089695Y-104117857D02*
X139051600Y-104232143D01*
X139051600Y-104232143D02*
X138975409Y-104308333D01*
X138975409Y-104308333D02*
X138899219Y-104346428D01*
X138899219Y-104346428D02*
X138746838Y-104384524D01*
X138746838Y-104384524D02*
X138632552Y-104384524D01*
X138632552Y-104384524D02*
X138480171Y-104346428D01*
X138480171Y-104346428D02*
X138403980Y-104308333D01*
X138403980Y-104308333D02*
X138327790Y-104232143D01*
X138327790Y-104232143D02*
X138289695Y-104117857D01*
X138289695Y-104117857D02*
X138289695Y-104041666D01*
X138289695Y-104041666D02*
X138327790Y-103927381D01*
X138327790Y-103927381D02*
X138365885Y-103889285D01*
X138365885Y-103584524D02*
X138327790Y-103546428D01*
X138327790Y-103546428D02*
X138289695Y-103470238D01*
X138289695Y-103470238D02*
X138289695Y-103279762D01*
X138289695Y-103279762D02*
X138327790Y-103203571D01*
X138327790Y-103203571D02*
X138365885Y-103165476D01*
X138365885Y-103165476D02*
X138442076Y-103127381D01*
X138442076Y-103127381D02*
X138518266Y-103127381D01*
X138518266Y-103127381D02*
X138632552Y-103165476D01*
X138632552Y-103165476D02*
X139089695Y-103622619D01*
X139089695Y-103622619D02*
X139089695Y-103127381D01*
X138289695Y-102632142D02*
X138289695Y-102555952D01*
X138289695Y-102555952D02*
X138327790Y-102479761D01*
X138327790Y-102479761D02*
X138365885Y-102441666D01*
X138365885Y-102441666D02*
X138442076Y-102403571D01*
X138442076Y-102403571D02*
X138594457Y-102365476D01*
X138594457Y-102365476D02*
X138784933Y-102365476D01*
X138784933Y-102365476D02*
X138937314Y-102403571D01*
X138937314Y-102403571D02*
X139013504Y-102441666D01*
X139013504Y-102441666D02*
X139051600Y-102479761D01*
X139051600Y-102479761D02*
X139089695Y-102555952D01*
X139089695Y-102555952D02*
X139089695Y-102632142D01*
X139089695Y-102632142D02*
X139051600Y-102708333D01*
X139051600Y-102708333D02*
X139013504Y-102746428D01*
X139013504Y-102746428D02*
X138937314Y-102784523D01*
X138937314Y-102784523D02*
X138784933Y-102822619D01*
X138784933Y-102822619D02*
X138594457Y-102822619D01*
X138594457Y-102822619D02*
X138442076Y-102784523D01*
X138442076Y-102784523D02*
X138365885Y-102746428D01*
X138365885Y-102746428D02*
X138327790Y-102708333D01*
X138327790Y-102708333D02*
X138289695Y-102632142D01*
X162690476Y-81059695D02*
X162690476Y-81707314D01*
X162690476Y-81707314D02*
X162728571Y-81783504D01*
X162728571Y-81783504D02*
X162766666Y-81821600D01*
X162766666Y-81821600D02*
X162842857Y-81859695D01*
X162842857Y-81859695D02*
X162995238Y-81859695D01*
X162995238Y-81859695D02*
X163071428Y-81821600D01*
X163071428Y-81821600D02*
X163109523Y-81783504D01*
X163109523Y-81783504D02*
X163147619Y-81707314D01*
X163147619Y-81707314D02*
X163147619Y-81059695D01*
X163452380Y-81059695D02*
X163985714Y-81059695D01*
X163985714Y-81059695D02*
X163642856Y-81859695D01*
X180465714Y-94343504D02*
X180427618Y-94381600D01*
X180427618Y-94381600D02*
X180313333Y-94419695D01*
X180313333Y-94419695D02*
X180237142Y-94419695D01*
X180237142Y-94419695D02*
X180122856Y-94381600D01*
X180122856Y-94381600D02*
X180046666Y-94305409D01*
X180046666Y-94305409D02*
X180008571Y-94229219D01*
X180008571Y-94229219D02*
X179970475Y-94076838D01*
X179970475Y-94076838D02*
X179970475Y-93962552D01*
X179970475Y-93962552D02*
X180008571Y-93810171D01*
X180008571Y-93810171D02*
X180046666Y-93733980D01*
X180046666Y-93733980D02*
X180122856Y-93657790D01*
X180122856Y-93657790D02*
X180237142Y-93619695D01*
X180237142Y-93619695D02*
X180313333Y-93619695D01*
X180313333Y-93619695D02*
X180427618Y-93657790D01*
X180427618Y-93657790D02*
X180465714Y-93695885D01*
X181227618Y-94419695D02*
X180770475Y-94419695D01*
X180999047Y-94419695D02*
X180999047Y-93619695D01*
X180999047Y-93619695D02*
X180922856Y-93733980D01*
X180922856Y-93733980D02*
X180846666Y-93810171D01*
X180846666Y-93810171D02*
X180770475Y-93848266D01*
X181494285Y-93619695D02*
X181989523Y-93619695D01*
X181989523Y-93619695D02*
X181722857Y-93924457D01*
X181722857Y-93924457D02*
X181837142Y-93924457D01*
X181837142Y-93924457D02*
X181913333Y-93962552D01*
X181913333Y-93962552D02*
X181951428Y-94000647D01*
X181951428Y-94000647D02*
X181989523Y-94076838D01*
X181989523Y-94076838D02*
X181989523Y-94267314D01*
X181989523Y-94267314D02*
X181951428Y-94343504D01*
X181951428Y-94343504D02*
X181913333Y-94381600D01*
X181913333Y-94381600D02*
X181837142Y-94419695D01*
X181837142Y-94419695D02*
X181608571Y-94419695D01*
X181608571Y-94419695D02*
X181532380Y-94381600D01*
X181532380Y-94381600D02*
X181494285Y-94343504D01*
X151659695Y-107209523D02*
X152307314Y-107209523D01*
X152307314Y-107209523D02*
X152383504Y-107171428D01*
X152383504Y-107171428D02*
X152421600Y-107133333D01*
X152421600Y-107133333D02*
X152459695Y-107057142D01*
X152459695Y-107057142D02*
X152459695Y-106904761D01*
X152459695Y-106904761D02*
X152421600Y-106828571D01*
X152421600Y-106828571D02*
X152383504Y-106790476D01*
X152383504Y-106790476D02*
X152307314Y-106752380D01*
X152307314Y-106752380D02*
X151659695Y-106752380D01*
X151659695Y-105990476D02*
X151659695Y-106371428D01*
X151659695Y-106371428D02*
X152040647Y-106409524D01*
X152040647Y-106409524D02*
X152002552Y-106371428D01*
X152002552Y-106371428D02*
X151964457Y-106295238D01*
X151964457Y-106295238D02*
X151964457Y-106104762D01*
X151964457Y-106104762D02*
X152002552Y-106028571D01*
X152002552Y-106028571D02*
X152040647Y-105990476D01*
X152040647Y-105990476D02*
X152116838Y-105952381D01*
X152116838Y-105952381D02*
X152307314Y-105952381D01*
X152307314Y-105952381D02*
X152383504Y-105990476D01*
X152383504Y-105990476D02*
X152421600Y-106028571D01*
X152421600Y-106028571D02*
X152459695Y-106104762D01*
X152459695Y-106104762D02*
X152459695Y-106295238D01*
X152459695Y-106295238D02*
X152421600Y-106371428D01*
X152421600Y-106371428D02*
X152383504Y-106409524D01*
X151285714Y-84559695D02*
X151019047Y-84178742D01*
X150828571Y-84559695D02*
X150828571Y-83759695D01*
X150828571Y-83759695D02*
X151133333Y-83759695D01*
X151133333Y-83759695D02*
X151209523Y-83797790D01*
X151209523Y-83797790D02*
X151247618Y-83835885D01*
X151247618Y-83835885D02*
X151285714Y-83912076D01*
X151285714Y-83912076D02*
X151285714Y-84026361D01*
X151285714Y-84026361D02*
X151247618Y-84102552D01*
X151247618Y-84102552D02*
X151209523Y-84140647D01*
X151209523Y-84140647D02*
X151133333Y-84178742D01*
X151133333Y-84178742D02*
X150828571Y-84178742D01*
X152047618Y-84559695D02*
X151590475Y-84559695D01*
X151819047Y-84559695D02*
X151819047Y-83759695D01*
X151819047Y-83759695D02*
X151742856Y-83873980D01*
X151742856Y-83873980D02*
X151666666Y-83950171D01*
X151666666Y-83950171D02*
X151590475Y-83988266D01*
X152542857Y-83759695D02*
X152619047Y-83759695D01*
X152619047Y-83759695D02*
X152695238Y-83797790D01*
X152695238Y-83797790D02*
X152733333Y-83835885D01*
X152733333Y-83835885D02*
X152771428Y-83912076D01*
X152771428Y-83912076D02*
X152809523Y-84064457D01*
X152809523Y-84064457D02*
X152809523Y-84254933D01*
X152809523Y-84254933D02*
X152771428Y-84407314D01*
X152771428Y-84407314D02*
X152733333Y-84483504D01*
X152733333Y-84483504D02*
X152695238Y-84521600D01*
X152695238Y-84521600D02*
X152619047Y-84559695D01*
X152619047Y-84559695D02*
X152542857Y-84559695D01*
X152542857Y-84559695D02*
X152466666Y-84521600D01*
X152466666Y-84521600D02*
X152428571Y-84483504D01*
X152428571Y-84483504D02*
X152390476Y-84407314D01*
X152390476Y-84407314D02*
X152352380Y-84254933D01*
X152352380Y-84254933D02*
X152352380Y-84064457D01*
X152352380Y-84064457D02*
X152390476Y-83912076D01*
X152390476Y-83912076D02*
X152428571Y-83835885D01*
X152428571Y-83835885D02*
X152466666Y-83797790D01*
X152466666Y-83797790D02*
X152542857Y-83759695D01*
X139083504Y-111714285D02*
X139121600Y-111752381D01*
X139121600Y-111752381D02*
X139159695Y-111866666D01*
X139159695Y-111866666D02*
X139159695Y-111942857D01*
X139159695Y-111942857D02*
X139121600Y-112057143D01*
X139121600Y-112057143D02*
X139045409Y-112133333D01*
X139045409Y-112133333D02*
X138969219Y-112171428D01*
X138969219Y-112171428D02*
X138816838Y-112209524D01*
X138816838Y-112209524D02*
X138702552Y-112209524D01*
X138702552Y-112209524D02*
X138550171Y-112171428D01*
X138550171Y-112171428D02*
X138473980Y-112133333D01*
X138473980Y-112133333D02*
X138397790Y-112057143D01*
X138397790Y-112057143D02*
X138359695Y-111942857D01*
X138359695Y-111942857D02*
X138359695Y-111866666D01*
X138359695Y-111866666D02*
X138397790Y-111752381D01*
X138397790Y-111752381D02*
X138435885Y-111714285D01*
X138435885Y-111409524D02*
X138397790Y-111371428D01*
X138397790Y-111371428D02*
X138359695Y-111295238D01*
X138359695Y-111295238D02*
X138359695Y-111104762D01*
X138359695Y-111104762D02*
X138397790Y-111028571D01*
X138397790Y-111028571D02*
X138435885Y-110990476D01*
X138435885Y-110990476D02*
X138512076Y-110952381D01*
X138512076Y-110952381D02*
X138588266Y-110952381D01*
X138588266Y-110952381D02*
X138702552Y-110990476D01*
X138702552Y-110990476D02*
X139159695Y-111447619D01*
X139159695Y-111447619D02*
X139159695Y-110952381D01*
X139159695Y-110190476D02*
X139159695Y-110647619D01*
X139159695Y-110419047D02*
X138359695Y-110419047D01*
X138359695Y-110419047D02*
X138473980Y-110495238D01*
X138473980Y-110495238D02*
X138550171Y-110571428D01*
X138550171Y-110571428D02*
X138588266Y-110647619D01*
X143485714Y-95889695D02*
X143219047Y-95508742D01*
X143028571Y-95889695D02*
X143028571Y-95089695D01*
X143028571Y-95089695D02*
X143333333Y-95089695D01*
X143333333Y-95089695D02*
X143409523Y-95127790D01*
X143409523Y-95127790D02*
X143447618Y-95165885D01*
X143447618Y-95165885D02*
X143485714Y-95242076D01*
X143485714Y-95242076D02*
X143485714Y-95356361D01*
X143485714Y-95356361D02*
X143447618Y-95432552D01*
X143447618Y-95432552D02*
X143409523Y-95470647D01*
X143409523Y-95470647D02*
X143333333Y-95508742D01*
X143333333Y-95508742D02*
X143028571Y-95508742D01*
X143790475Y-95165885D02*
X143828571Y-95127790D01*
X143828571Y-95127790D02*
X143904761Y-95089695D01*
X143904761Y-95089695D02*
X144095237Y-95089695D01*
X144095237Y-95089695D02*
X144171428Y-95127790D01*
X144171428Y-95127790D02*
X144209523Y-95165885D01*
X144209523Y-95165885D02*
X144247618Y-95242076D01*
X144247618Y-95242076D02*
X144247618Y-95318266D01*
X144247618Y-95318266D02*
X144209523Y-95432552D01*
X144209523Y-95432552D02*
X143752380Y-95889695D01*
X143752380Y-95889695D02*
X144247618Y-95889695D01*
X144971428Y-95089695D02*
X144590476Y-95089695D01*
X144590476Y-95089695D02*
X144552380Y-95470647D01*
X144552380Y-95470647D02*
X144590476Y-95432552D01*
X144590476Y-95432552D02*
X144666666Y-95394457D01*
X144666666Y-95394457D02*
X144857142Y-95394457D01*
X144857142Y-95394457D02*
X144933333Y-95432552D01*
X144933333Y-95432552D02*
X144971428Y-95470647D01*
X144971428Y-95470647D02*
X145009523Y-95546838D01*
X145009523Y-95546838D02*
X145009523Y-95737314D01*
X145009523Y-95737314D02*
X144971428Y-95813504D01*
X144971428Y-95813504D02*
X144933333Y-95851600D01*
X144933333Y-95851600D02*
X144857142Y-95889695D01*
X144857142Y-95889695D02*
X144666666Y-95889695D01*
X144666666Y-95889695D02*
X144590476Y-95851600D01*
X144590476Y-95851600D02*
X144552380Y-95813504D01*
X157709753Y-85195534D02*
X157747849Y-85233630D01*
X157747849Y-85233630D02*
X157785944Y-85347915D01*
X157785944Y-85347915D02*
X157785944Y-85424106D01*
X157785944Y-85424106D02*
X157747849Y-85538392D01*
X157747849Y-85538392D02*
X157671658Y-85614582D01*
X157671658Y-85614582D02*
X157595468Y-85652677D01*
X157595468Y-85652677D02*
X157443087Y-85690773D01*
X157443087Y-85690773D02*
X157328801Y-85690773D01*
X157328801Y-85690773D02*
X157176420Y-85652677D01*
X157176420Y-85652677D02*
X157100229Y-85614582D01*
X157100229Y-85614582D02*
X157024039Y-85538392D01*
X157024039Y-85538392D02*
X156985944Y-85424106D01*
X156985944Y-85424106D02*
X156985944Y-85347915D01*
X156985944Y-85347915D02*
X157024039Y-85233630D01*
X157024039Y-85233630D02*
X157062134Y-85195534D01*
X157785944Y-84433630D02*
X157785944Y-84890773D01*
X157785944Y-84662201D02*
X156985944Y-84662201D01*
X156985944Y-84662201D02*
X157100229Y-84738392D01*
X157100229Y-84738392D02*
X157176420Y-84814582D01*
X157176420Y-84814582D02*
X157214515Y-84890773D01*
X157785944Y-84052677D02*
X157785944Y-83900296D01*
X157785944Y-83900296D02*
X157747849Y-83824106D01*
X157747849Y-83824106D02*
X157709753Y-83786010D01*
X157709753Y-83786010D02*
X157595468Y-83709820D01*
X157595468Y-83709820D02*
X157443087Y-83671725D01*
X157443087Y-83671725D02*
X157138325Y-83671725D01*
X157138325Y-83671725D02*
X157062134Y-83709820D01*
X157062134Y-83709820D02*
X157024039Y-83747915D01*
X157024039Y-83747915D02*
X156985944Y-83824106D01*
X156985944Y-83824106D02*
X156985944Y-83976487D01*
X156985944Y-83976487D02*
X157024039Y-84052677D01*
X157024039Y-84052677D02*
X157062134Y-84090772D01*
X157062134Y-84090772D02*
X157138325Y-84128868D01*
X157138325Y-84128868D02*
X157328801Y-84128868D01*
X157328801Y-84128868D02*
X157404991Y-84090772D01*
X157404991Y-84090772D02*
X157443087Y-84052677D01*
X157443087Y-84052677D02*
X157481182Y-83976487D01*
X157481182Y-83976487D02*
X157481182Y-83824106D01*
X157481182Y-83824106D02*
X157443087Y-83747915D01*
X157443087Y-83747915D02*
X157404991Y-83709820D01*
X157404991Y-83709820D02*
X157328801Y-83671725D01*
X164366667Y-92709695D02*
X164100000Y-92328742D01*
X163909524Y-92709695D02*
X163909524Y-91909695D01*
X163909524Y-91909695D02*
X164214286Y-91909695D01*
X164214286Y-91909695D02*
X164290476Y-91947790D01*
X164290476Y-91947790D02*
X164328571Y-91985885D01*
X164328571Y-91985885D02*
X164366667Y-92062076D01*
X164366667Y-92062076D02*
X164366667Y-92176361D01*
X164366667Y-92176361D02*
X164328571Y-92252552D01*
X164328571Y-92252552D02*
X164290476Y-92290647D01*
X164290476Y-92290647D02*
X164214286Y-92328742D01*
X164214286Y-92328742D02*
X163909524Y-92328742D01*
X164823809Y-92252552D02*
X164747619Y-92214457D01*
X164747619Y-92214457D02*
X164709524Y-92176361D01*
X164709524Y-92176361D02*
X164671428Y-92100171D01*
X164671428Y-92100171D02*
X164671428Y-92062076D01*
X164671428Y-92062076D02*
X164709524Y-91985885D01*
X164709524Y-91985885D02*
X164747619Y-91947790D01*
X164747619Y-91947790D02*
X164823809Y-91909695D01*
X164823809Y-91909695D02*
X164976190Y-91909695D01*
X164976190Y-91909695D02*
X165052381Y-91947790D01*
X165052381Y-91947790D02*
X165090476Y-91985885D01*
X165090476Y-91985885D02*
X165128571Y-92062076D01*
X165128571Y-92062076D02*
X165128571Y-92100171D01*
X165128571Y-92100171D02*
X165090476Y-92176361D01*
X165090476Y-92176361D02*
X165052381Y-92214457D01*
X165052381Y-92214457D02*
X164976190Y-92252552D01*
X164976190Y-92252552D02*
X164823809Y-92252552D01*
X164823809Y-92252552D02*
X164747619Y-92290647D01*
X164747619Y-92290647D02*
X164709524Y-92328742D01*
X164709524Y-92328742D02*
X164671428Y-92404933D01*
X164671428Y-92404933D02*
X164671428Y-92557314D01*
X164671428Y-92557314D02*
X164709524Y-92633504D01*
X164709524Y-92633504D02*
X164747619Y-92671600D01*
X164747619Y-92671600D02*
X164823809Y-92709695D01*
X164823809Y-92709695D02*
X164976190Y-92709695D01*
X164976190Y-92709695D02*
X165052381Y-92671600D01*
X165052381Y-92671600D02*
X165090476Y-92633504D01*
X165090476Y-92633504D02*
X165128571Y-92557314D01*
X165128571Y-92557314D02*
X165128571Y-92404933D01*
X165128571Y-92404933D02*
X165090476Y-92328742D01*
X165090476Y-92328742D02*
X165052381Y-92290647D01*
X165052381Y-92290647D02*
X164976190Y-92252552D01*
X167959695Y-110114285D02*
X167578742Y-110380952D01*
X167959695Y-110571428D02*
X167159695Y-110571428D01*
X167159695Y-110571428D02*
X167159695Y-110266666D01*
X167159695Y-110266666D02*
X167197790Y-110190476D01*
X167197790Y-110190476D02*
X167235885Y-110152381D01*
X167235885Y-110152381D02*
X167312076Y-110114285D01*
X167312076Y-110114285D02*
X167426361Y-110114285D01*
X167426361Y-110114285D02*
X167502552Y-110152381D01*
X167502552Y-110152381D02*
X167540647Y-110190476D01*
X167540647Y-110190476D02*
X167578742Y-110266666D01*
X167578742Y-110266666D02*
X167578742Y-110571428D01*
X167235885Y-109809524D02*
X167197790Y-109771428D01*
X167197790Y-109771428D02*
X167159695Y-109695238D01*
X167159695Y-109695238D02*
X167159695Y-109504762D01*
X167159695Y-109504762D02*
X167197790Y-109428571D01*
X167197790Y-109428571D02*
X167235885Y-109390476D01*
X167235885Y-109390476D02*
X167312076Y-109352381D01*
X167312076Y-109352381D02*
X167388266Y-109352381D01*
X167388266Y-109352381D02*
X167502552Y-109390476D01*
X167502552Y-109390476D02*
X167959695Y-109847619D01*
X167959695Y-109847619D02*
X167959695Y-109352381D01*
X167159695Y-109085714D02*
X167159695Y-108590476D01*
X167159695Y-108590476D02*
X167464457Y-108857142D01*
X167464457Y-108857142D02*
X167464457Y-108742857D01*
X167464457Y-108742857D02*
X167502552Y-108666666D01*
X167502552Y-108666666D02*
X167540647Y-108628571D01*
X167540647Y-108628571D02*
X167616838Y-108590476D01*
X167616838Y-108590476D02*
X167807314Y-108590476D01*
X167807314Y-108590476D02*
X167883504Y-108628571D01*
X167883504Y-108628571D02*
X167921600Y-108666666D01*
X167921600Y-108666666D02*
X167959695Y-108742857D01*
X167959695Y-108742857D02*
X167959695Y-108971428D01*
X167959695Y-108971428D02*
X167921600Y-109047619D01*
X167921600Y-109047619D02*
X167883504Y-109085714D01*
X141133504Y-95133332D02*
X141171600Y-95171428D01*
X141171600Y-95171428D02*
X141209695Y-95285713D01*
X141209695Y-95285713D02*
X141209695Y-95361904D01*
X141209695Y-95361904D02*
X141171600Y-95476190D01*
X141171600Y-95476190D02*
X141095409Y-95552380D01*
X141095409Y-95552380D02*
X141019219Y-95590475D01*
X141019219Y-95590475D02*
X140866838Y-95628571D01*
X140866838Y-95628571D02*
X140752552Y-95628571D01*
X140752552Y-95628571D02*
X140600171Y-95590475D01*
X140600171Y-95590475D02*
X140523980Y-95552380D01*
X140523980Y-95552380D02*
X140447790Y-95476190D01*
X140447790Y-95476190D02*
X140409695Y-95361904D01*
X140409695Y-95361904D02*
X140409695Y-95285713D01*
X140409695Y-95285713D02*
X140447790Y-95171428D01*
X140447790Y-95171428D02*
X140485885Y-95133332D01*
X140409695Y-94447618D02*
X140409695Y-94599999D01*
X140409695Y-94599999D02*
X140447790Y-94676190D01*
X140447790Y-94676190D02*
X140485885Y-94714285D01*
X140485885Y-94714285D02*
X140600171Y-94790475D01*
X140600171Y-94790475D02*
X140752552Y-94828571D01*
X140752552Y-94828571D02*
X141057314Y-94828571D01*
X141057314Y-94828571D02*
X141133504Y-94790475D01*
X141133504Y-94790475D02*
X141171600Y-94752380D01*
X141171600Y-94752380D02*
X141209695Y-94676190D01*
X141209695Y-94676190D02*
X141209695Y-94523809D01*
X141209695Y-94523809D02*
X141171600Y-94447618D01*
X141171600Y-94447618D02*
X141133504Y-94409523D01*
X141133504Y-94409523D02*
X141057314Y-94371428D01*
X141057314Y-94371428D02*
X140866838Y-94371428D01*
X140866838Y-94371428D02*
X140790647Y-94409523D01*
X140790647Y-94409523D02*
X140752552Y-94447618D01*
X140752552Y-94447618D02*
X140714457Y-94523809D01*
X140714457Y-94523809D02*
X140714457Y-94676190D01*
X140714457Y-94676190D02*
X140752552Y-94752380D01*
X140752552Y-94752380D02*
X140790647Y-94790475D01*
X140790647Y-94790475D02*
X140866838Y-94828571D01*
X134459695Y-95109523D02*
X135107314Y-95109523D01*
X135107314Y-95109523D02*
X135183504Y-95071428D01*
X135183504Y-95071428D02*
X135221600Y-95033333D01*
X135221600Y-95033333D02*
X135259695Y-94957142D01*
X135259695Y-94957142D02*
X135259695Y-94804761D01*
X135259695Y-94804761D02*
X135221600Y-94728571D01*
X135221600Y-94728571D02*
X135183504Y-94690476D01*
X135183504Y-94690476D02*
X135107314Y-94652380D01*
X135107314Y-94652380D02*
X134459695Y-94652380D01*
X134535885Y-94309524D02*
X134497790Y-94271428D01*
X134497790Y-94271428D02*
X134459695Y-94195238D01*
X134459695Y-94195238D02*
X134459695Y-94004762D01*
X134459695Y-94004762D02*
X134497790Y-93928571D01*
X134497790Y-93928571D02*
X134535885Y-93890476D01*
X134535885Y-93890476D02*
X134612076Y-93852381D01*
X134612076Y-93852381D02*
X134688266Y-93852381D01*
X134688266Y-93852381D02*
X134802552Y-93890476D01*
X134802552Y-93890476D02*
X135259695Y-94347619D01*
X135259695Y-94347619D02*
X135259695Y-93852381D01*
X134866667Y-85983504D02*
X134828571Y-86021600D01*
X134828571Y-86021600D02*
X134714286Y-86059695D01*
X134714286Y-86059695D02*
X134638095Y-86059695D01*
X134638095Y-86059695D02*
X134523809Y-86021600D01*
X134523809Y-86021600D02*
X134447619Y-85945409D01*
X134447619Y-85945409D02*
X134409524Y-85869219D01*
X134409524Y-85869219D02*
X134371428Y-85716838D01*
X134371428Y-85716838D02*
X134371428Y-85602552D01*
X134371428Y-85602552D02*
X134409524Y-85450171D01*
X134409524Y-85450171D02*
X134447619Y-85373980D01*
X134447619Y-85373980D02*
X134523809Y-85297790D01*
X134523809Y-85297790D02*
X134638095Y-85259695D01*
X134638095Y-85259695D02*
X134714286Y-85259695D01*
X134714286Y-85259695D02*
X134828571Y-85297790D01*
X134828571Y-85297790D02*
X134866667Y-85335885D01*
X135552381Y-85526361D02*
X135552381Y-86059695D01*
X135361905Y-85221600D02*
X135171428Y-85793028D01*
X135171428Y-85793028D02*
X135666667Y-85793028D01*
X176685714Y-96159695D02*
X176419047Y-95778742D01*
X176228571Y-96159695D02*
X176228571Y-95359695D01*
X176228571Y-95359695D02*
X176533333Y-95359695D01*
X176533333Y-95359695D02*
X176609523Y-95397790D01*
X176609523Y-95397790D02*
X176647618Y-95435885D01*
X176647618Y-95435885D02*
X176685714Y-95512076D01*
X176685714Y-95512076D02*
X176685714Y-95626361D01*
X176685714Y-95626361D02*
X176647618Y-95702552D01*
X176647618Y-95702552D02*
X176609523Y-95740647D01*
X176609523Y-95740647D02*
X176533333Y-95778742D01*
X176533333Y-95778742D02*
X176228571Y-95778742D01*
X176990475Y-95435885D02*
X177028571Y-95397790D01*
X177028571Y-95397790D02*
X177104761Y-95359695D01*
X177104761Y-95359695D02*
X177295237Y-95359695D01*
X177295237Y-95359695D02*
X177371428Y-95397790D01*
X177371428Y-95397790D02*
X177409523Y-95435885D01*
X177409523Y-95435885D02*
X177447618Y-95512076D01*
X177447618Y-95512076D02*
X177447618Y-95588266D01*
X177447618Y-95588266D02*
X177409523Y-95702552D01*
X177409523Y-95702552D02*
X176952380Y-96159695D01*
X176952380Y-96159695D02*
X177447618Y-96159695D01*
X177752380Y-95435885D02*
X177790476Y-95397790D01*
X177790476Y-95397790D02*
X177866666Y-95359695D01*
X177866666Y-95359695D02*
X178057142Y-95359695D01*
X178057142Y-95359695D02*
X178133333Y-95397790D01*
X178133333Y-95397790D02*
X178171428Y-95435885D01*
X178171428Y-95435885D02*
X178209523Y-95512076D01*
X178209523Y-95512076D02*
X178209523Y-95588266D01*
X178209523Y-95588266D02*
X178171428Y-95702552D01*
X178171428Y-95702552D02*
X177714285Y-96159695D01*
X177714285Y-96159695D02*
X178209523Y-96159695D01*
X165644753Y-84714285D02*
X165682849Y-84752381D01*
X165682849Y-84752381D02*
X165720944Y-84866666D01*
X165720944Y-84866666D02*
X165720944Y-84942857D01*
X165720944Y-84942857D02*
X165682849Y-85057143D01*
X165682849Y-85057143D02*
X165606658Y-85133333D01*
X165606658Y-85133333D02*
X165530468Y-85171428D01*
X165530468Y-85171428D02*
X165378087Y-85209524D01*
X165378087Y-85209524D02*
X165263801Y-85209524D01*
X165263801Y-85209524D02*
X165111420Y-85171428D01*
X165111420Y-85171428D02*
X165035229Y-85133333D01*
X165035229Y-85133333D02*
X164959039Y-85057143D01*
X164959039Y-85057143D02*
X164920944Y-84942857D01*
X164920944Y-84942857D02*
X164920944Y-84866666D01*
X164920944Y-84866666D02*
X164959039Y-84752381D01*
X164959039Y-84752381D02*
X164997134Y-84714285D01*
X165720944Y-83952381D02*
X165720944Y-84409524D01*
X165720944Y-84180952D02*
X164920944Y-84180952D01*
X164920944Y-84180952D02*
X165035229Y-84257143D01*
X165035229Y-84257143D02*
X165111420Y-84333333D01*
X165111420Y-84333333D02*
X165149515Y-84409524D01*
X164920944Y-83266666D02*
X164920944Y-83419047D01*
X164920944Y-83419047D02*
X164959039Y-83495238D01*
X164959039Y-83495238D02*
X164997134Y-83533333D01*
X164997134Y-83533333D02*
X165111420Y-83609523D01*
X165111420Y-83609523D02*
X165263801Y-83647619D01*
X165263801Y-83647619D02*
X165568563Y-83647619D01*
X165568563Y-83647619D02*
X165644753Y-83609523D01*
X165644753Y-83609523D02*
X165682849Y-83571428D01*
X165682849Y-83571428D02*
X165720944Y-83495238D01*
X165720944Y-83495238D02*
X165720944Y-83342857D01*
X165720944Y-83342857D02*
X165682849Y-83266666D01*
X165682849Y-83266666D02*
X165644753Y-83228571D01*
X165644753Y-83228571D02*
X165568563Y-83190476D01*
X165568563Y-83190476D02*
X165378087Y-83190476D01*
X165378087Y-83190476D02*
X165301896Y-83228571D01*
X165301896Y-83228571D02*
X165263801Y-83266666D01*
X165263801Y-83266666D02*
X165225706Y-83342857D01*
X165225706Y-83342857D02*
X165225706Y-83495238D01*
X165225706Y-83495238D02*
X165263801Y-83571428D01*
X165263801Y-83571428D02*
X165301896Y-83609523D01*
X165301896Y-83609523D02*
X165378087Y-83647619D01*
X136259695Y-102914285D02*
X135878742Y-103180952D01*
X136259695Y-103371428D02*
X135459695Y-103371428D01*
X135459695Y-103371428D02*
X135459695Y-103066666D01*
X135459695Y-103066666D02*
X135497790Y-102990476D01*
X135497790Y-102990476D02*
X135535885Y-102952381D01*
X135535885Y-102952381D02*
X135612076Y-102914285D01*
X135612076Y-102914285D02*
X135726361Y-102914285D01*
X135726361Y-102914285D02*
X135802552Y-102952381D01*
X135802552Y-102952381D02*
X135840647Y-102990476D01*
X135840647Y-102990476D02*
X135878742Y-103066666D01*
X135878742Y-103066666D02*
X135878742Y-103371428D01*
X135535885Y-102609524D02*
X135497790Y-102571428D01*
X135497790Y-102571428D02*
X135459695Y-102495238D01*
X135459695Y-102495238D02*
X135459695Y-102304762D01*
X135459695Y-102304762D02*
X135497790Y-102228571D01*
X135497790Y-102228571D02*
X135535885Y-102190476D01*
X135535885Y-102190476D02*
X135612076Y-102152381D01*
X135612076Y-102152381D02*
X135688266Y-102152381D01*
X135688266Y-102152381D02*
X135802552Y-102190476D01*
X135802552Y-102190476D02*
X136259695Y-102647619D01*
X136259695Y-102647619D02*
X136259695Y-102152381D01*
X135459695Y-101885714D02*
X135459695Y-101352380D01*
X135459695Y-101352380D02*
X136259695Y-101695238D01*
X137466666Y-86179695D02*
X137085714Y-86179695D01*
X137085714Y-86179695D02*
X137085714Y-85379695D01*
X138152380Y-86179695D02*
X137695237Y-86179695D01*
X137923809Y-86179695D02*
X137923809Y-85379695D01*
X137923809Y-85379695D02*
X137847618Y-85493980D01*
X137847618Y-85493980D02*
X137771428Y-85570171D01*
X137771428Y-85570171D02*
X137695237Y-85608266D01*
X178390476Y-84959695D02*
X178390476Y-85607314D01*
X178390476Y-85607314D02*
X178428571Y-85683504D01*
X178428571Y-85683504D02*
X178466666Y-85721600D01*
X178466666Y-85721600D02*
X178542857Y-85759695D01*
X178542857Y-85759695D02*
X178695238Y-85759695D01*
X178695238Y-85759695D02*
X178771428Y-85721600D01*
X178771428Y-85721600D02*
X178809523Y-85683504D01*
X178809523Y-85683504D02*
X178847619Y-85607314D01*
X178847619Y-85607314D02*
X178847619Y-84959695D01*
X179571428Y-85226361D02*
X179571428Y-85759695D01*
X179380952Y-84921600D02*
X179190475Y-85493028D01*
X179190475Y-85493028D02*
X179685714Y-85493028D01*
X146890476Y-91659695D02*
X146890476Y-92307314D01*
X146890476Y-92307314D02*
X146928571Y-92383504D01*
X146928571Y-92383504D02*
X146966666Y-92421600D01*
X146966666Y-92421600D02*
X147042857Y-92459695D01*
X147042857Y-92459695D02*
X147195238Y-92459695D01*
X147195238Y-92459695D02*
X147271428Y-92421600D01*
X147271428Y-92421600D02*
X147309523Y-92383504D01*
X147309523Y-92383504D02*
X147347619Y-92307314D01*
X147347619Y-92307314D02*
X147347619Y-91659695D01*
X148147618Y-92459695D02*
X147690475Y-92459695D01*
X147919047Y-92459695D02*
X147919047Y-91659695D01*
X147919047Y-91659695D02*
X147842856Y-91773980D01*
X147842856Y-91773980D02*
X147766666Y-91850171D01*
X147766666Y-91850171D02*
X147690475Y-91888266D01*
X130533332Y-102721600D02*
X130647618Y-102759695D01*
X130647618Y-102759695D02*
X130838094Y-102759695D01*
X130838094Y-102759695D02*
X130914285Y-102721600D01*
X130914285Y-102721600D02*
X130952380Y-102683504D01*
X130952380Y-102683504D02*
X130990475Y-102607314D01*
X130990475Y-102607314D02*
X130990475Y-102531123D01*
X130990475Y-102531123D02*
X130952380Y-102454933D01*
X130952380Y-102454933D02*
X130914285Y-102416838D01*
X130914285Y-102416838D02*
X130838094Y-102378742D01*
X130838094Y-102378742D02*
X130685713Y-102340647D01*
X130685713Y-102340647D02*
X130609523Y-102302552D01*
X130609523Y-102302552D02*
X130571428Y-102264457D01*
X130571428Y-102264457D02*
X130533332Y-102188266D01*
X130533332Y-102188266D02*
X130533332Y-102112076D01*
X130533332Y-102112076D02*
X130571428Y-102035885D01*
X130571428Y-102035885D02*
X130609523Y-101997790D01*
X130609523Y-101997790D02*
X130685713Y-101959695D01*
X130685713Y-101959695D02*
X130876190Y-101959695D01*
X130876190Y-101959695D02*
X130990475Y-101997790D01*
X131257142Y-101959695D02*
X131447618Y-102759695D01*
X131447618Y-102759695D02*
X131599999Y-102188266D01*
X131599999Y-102188266D02*
X131752380Y-102759695D01*
X131752380Y-102759695D02*
X131942857Y-101959695D01*
X132666666Y-102759695D02*
X132209523Y-102759695D01*
X132438095Y-102759695D02*
X132438095Y-101959695D01*
X132438095Y-101959695D02*
X132361904Y-102073980D01*
X132361904Y-102073980D02*
X132285714Y-102150171D01*
X132285714Y-102150171D02*
X132209523Y-102188266D01*
X161385714Y-94983504D02*
X161347618Y-95021600D01*
X161347618Y-95021600D02*
X161233333Y-95059695D01*
X161233333Y-95059695D02*
X161157142Y-95059695D01*
X161157142Y-95059695D02*
X161042856Y-95021600D01*
X161042856Y-95021600D02*
X160966666Y-94945409D01*
X160966666Y-94945409D02*
X160928571Y-94869219D01*
X160928571Y-94869219D02*
X160890475Y-94716838D01*
X160890475Y-94716838D02*
X160890475Y-94602552D01*
X160890475Y-94602552D02*
X160928571Y-94450171D01*
X160928571Y-94450171D02*
X160966666Y-94373980D01*
X160966666Y-94373980D02*
X161042856Y-94297790D01*
X161042856Y-94297790D02*
X161157142Y-94259695D01*
X161157142Y-94259695D02*
X161233333Y-94259695D01*
X161233333Y-94259695D02*
X161347618Y-94297790D01*
X161347618Y-94297790D02*
X161385714Y-94335885D01*
X162147618Y-95059695D02*
X161690475Y-95059695D01*
X161919047Y-95059695D02*
X161919047Y-94259695D01*
X161919047Y-94259695D02*
X161842856Y-94373980D01*
X161842856Y-94373980D02*
X161766666Y-94450171D01*
X161766666Y-94450171D02*
X161690475Y-94488266D01*
X162642857Y-94259695D02*
X162719047Y-94259695D01*
X162719047Y-94259695D02*
X162795238Y-94297790D01*
X162795238Y-94297790D02*
X162833333Y-94335885D01*
X162833333Y-94335885D02*
X162871428Y-94412076D01*
X162871428Y-94412076D02*
X162909523Y-94564457D01*
X162909523Y-94564457D02*
X162909523Y-94754933D01*
X162909523Y-94754933D02*
X162871428Y-94907314D01*
X162871428Y-94907314D02*
X162833333Y-94983504D01*
X162833333Y-94983504D02*
X162795238Y-95021600D01*
X162795238Y-95021600D02*
X162719047Y-95059695D01*
X162719047Y-95059695D02*
X162642857Y-95059695D01*
X162642857Y-95059695D02*
X162566666Y-95021600D01*
X162566666Y-95021600D02*
X162528571Y-94983504D01*
X162528571Y-94983504D02*
X162490476Y-94907314D01*
X162490476Y-94907314D02*
X162452380Y-94754933D01*
X162452380Y-94754933D02*
X162452380Y-94564457D01*
X162452380Y-94564457D02*
X162490476Y-94412076D01*
X162490476Y-94412076D02*
X162528571Y-94335885D01*
X162528571Y-94335885D02*
X162566666Y-94297790D01*
X162566666Y-94297790D02*
X162642857Y-94259695D01*
X168690476Y-99759695D02*
X168690476Y-100407314D01*
X168690476Y-100407314D02*
X168728571Y-100483504D01*
X168728571Y-100483504D02*
X168766666Y-100521600D01*
X168766666Y-100521600D02*
X168842857Y-100559695D01*
X168842857Y-100559695D02*
X168995238Y-100559695D01*
X168995238Y-100559695D02*
X169071428Y-100521600D01*
X169071428Y-100521600D02*
X169109523Y-100483504D01*
X169109523Y-100483504D02*
X169147619Y-100407314D01*
X169147619Y-100407314D02*
X169147619Y-99759695D01*
X169871428Y-99759695D02*
X169719047Y-99759695D01*
X169719047Y-99759695D02*
X169642856Y-99797790D01*
X169642856Y-99797790D02*
X169604761Y-99835885D01*
X169604761Y-99835885D02*
X169528571Y-99950171D01*
X169528571Y-99950171D02*
X169490475Y-100102552D01*
X169490475Y-100102552D02*
X169490475Y-100407314D01*
X169490475Y-100407314D02*
X169528571Y-100483504D01*
X169528571Y-100483504D02*
X169566666Y-100521600D01*
X169566666Y-100521600D02*
X169642856Y-100559695D01*
X169642856Y-100559695D02*
X169795237Y-100559695D01*
X169795237Y-100559695D02*
X169871428Y-100521600D01*
X169871428Y-100521600D02*
X169909523Y-100483504D01*
X169909523Y-100483504D02*
X169947618Y-100407314D01*
X169947618Y-100407314D02*
X169947618Y-100216838D01*
X169947618Y-100216838D02*
X169909523Y-100140647D01*
X169909523Y-100140647D02*
X169871428Y-100102552D01*
X169871428Y-100102552D02*
X169795237Y-100064457D01*
X169795237Y-100064457D02*
X169642856Y-100064457D01*
X169642856Y-100064457D02*
X169566666Y-100102552D01*
X169566666Y-100102552D02*
X169528571Y-100140647D01*
X169528571Y-100140647D02*
X169490475Y-100216838D01*
D12*
%TO.C,D2*%
X142715000Y-81765000D02*
X142715000Y-83235000D01*
X142715000Y-83235000D02*
X145000000Y-83235000D01*
X145000000Y-81765000D02*
X142715000Y-81765000D01*
%TO.C,C2*%
X159159420Y-100990000D02*
X159440580Y-100990000D01*
X159159420Y-102010000D02*
X159440580Y-102010000D01*
%TO.C,C5*%
X136388748Y-90127500D02*
X137811252Y-90127500D01*
X136388748Y-91947500D02*
X137811252Y-91947500D01*
%TO.C,R28*%
X138337258Y-105177500D02*
X137862742Y-105177500D01*
X138337258Y-106222500D02*
X137862742Y-106222500D01*
%TO.C,R24*%
X137312258Y-77377500D02*
X136837742Y-77377500D01*
X137312258Y-78422500D02*
X136837742Y-78422500D01*
%TO.C,J6*%
X137380000Y-116990000D02*
X137380000Y-126410000D01*
X137380000Y-116990000D02*
X139040000Y-116990000D01*
X137380000Y-123100000D02*
X169470000Y-123100000D01*
X137380000Y-126410000D02*
X169470000Y-126410000D01*
X139790000Y-115700000D02*
X140390000Y-115700000D01*
X140090000Y-116300000D02*
X139790000Y-115700000D01*
X140390000Y-115700000D02*
X140090000Y-116300000D01*
X141140000Y-116990000D02*
X142850000Y-116990000D01*
X144950000Y-116990000D02*
X146660000Y-116990000D01*
X148760000Y-116990000D02*
X150470000Y-116990000D01*
X152570000Y-116990000D02*
X154280000Y-116990000D01*
X156380000Y-116990000D02*
X158090000Y-116990000D01*
X160190000Y-116990000D02*
X161900000Y-116990000D01*
X164000000Y-116990000D02*
X165710000Y-116990000D01*
X169470000Y-116990000D02*
X167810000Y-116990000D01*
X169470000Y-126410000D02*
X169470000Y-116990000D01*
%TO.C,R1*%
X159037742Y-102727500D02*
X159512258Y-102727500D01*
X159037742Y-103772500D02*
X159512258Y-103772500D01*
%TO.C,R3*%
X147787258Y-84477500D02*
X147312742Y-84477500D01*
X147787258Y-85522500D02*
X147312742Y-85522500D01*
%TO.C,C11*%
X171080000Y-95128080D02*
X171080000Y-94846920D01*
X172100000Y-95128080D02*
X172100000Y-94846920D01*
%TO.C,R4*%
X147774758Y-81997500D02*
X147300242Y-81997500D01*
X147774758Y-83042500D02*
X147300242Y-83042500D01*
%TO.C,D1*%
X142727500Y-84165000D02*
X142727500Y-85635000D01*
X142727500Y-85635000D02*
X145012500Y-85635000D01*
X145012500Y-84165000D02*
X142727500Y-84165000D01*
%TO.C,C9*%
X159134420Y-92490000D02*
X159415580Y-92490000D01*
X159134420Y-93510000D02*
X159415580Y-93510000D01*
%TO.C,R13*%
X152377500Y-90537258D02*
X152377500Y-90062742D01*
X153422500Y-90537258D02*
X153422500Y-90062742D01*
%TO.C,R15*%
X164262742Y-96777500D02*
X164737258Y-96777500D01*
X164262742Y-97822500D02*
X164737258Y-97822500D01*
%TO.C,R9*%
X174277500Y-104862742D02*
X174277500Y-105337258D01*
X175322500Y-104862742D02*
X175322500Y-105337258D01*
%TO.C,R26*%
X141127064Y-98390000D02*
X139672936Y-98390000D01*
X141127064Y-100210000D02*
X139672936Y-100210000D01*
%TO.C,R14*%
X164362742Y-100077500D02*
X164837258Y-100077500D01*
X164362742Y-101122500D02*
X164837258Y-101122500D01*
%TO.C,R19*%
X150727500Y-90462258D02*
X150727500Y-89987742D01*
X151772500Y-90462258D02*
X151772500Y-89987742D01*
%TO.C,R20*%
X149077500Y-90487258D02*
X149077500Y-90012742D01*
X150122500Y-90487258D02*
X150122500Y-90012742D01*
%TO.C,R18*%
X159512258Y-89077500D02*
X159037742Y-89077500D01*
X159512258Y-90122500D02*
X159037742Y-90122500D01*
%TO.C,C1*%
X145140580Y-98490000D02*
X144859420Y-98490000D01*
X145140580Y-99510000D02*
X144859420Y-99510000D01*
%TO.C,RV1*%
X175970000Y-96805000D02*
X181040000Y-96805000D01*
X175970000Y-106575000D02*
X175970000Y-96805000D01*
X175970000Y-106575000D02*
X181040000Y-106575000D01*
X181040000Y-106575000D02*
X181040000Y-96805000D01*
%TO.C,C18*%
X161746829Y-86696249D02*
X161465669Y-86696249D01*
X161746829Y-87716249D02*
X161465669Y-87716249D01*
%TO.C,R12*%
X153977500Y-90537258D02*
X153977500Y-90062742D01*
X155022500Y-90537258D02*
X155022500Y-90062742D01*
%TO.C,C3*%
X145140580Y-96740000D02*
X144859420Y-96740000D01*
X145140580Y-97760000D02*
X144859420Y-97760000D01*
%TO.C,C12*%
X167815580Y-88890000D02*
X167534420Y-88890000D01*
X167815580Y-89910000D02*
X167534420Y-89910000D01*
%TO.C,R7*%
X159012742Y-90777500D02*
X159487258Y-90777500D01*
X159012742Y-91822500D02*
X159487258Y-91822500D01*
%TO.C,R17*%
X170577500Y-101262742D02*
X170577500Y-101737258D01*
X171622500Y-101262742D02*
X171622500Y-101737258D01*
%TO.C,C15*%
X159134420Y-95890000D02*
X159415580Y-95890000D01*
X159134420Y-96910000D02*
X159415580Y-96910000D01*
%TO.C,R2*%
X151577500Y-109937258D02*
X151577500Y-109462742D01*
X152622500Y-109937258D02*
X152622500Y-109462742D01*
%TO.C,R16*%
X172190000Y-110289564D02*
X172190000Y-108835436D01*
X174010000Y-110289564D02*
X174010000Y-108835436D01*
%TO.C,R29*%
X136777500Y-108237258D02*
X136777500Y-107762742D01*
X137822500Y-108237258D02*
X137822500Y-107762742D01*
%TO.C,C17*%
X170590000Y-105515580D02*
X170590000Y-105234420D01*
X171610000Y-105515580D02*
X171610000Y-105234420D01*
%TO.C,R5*%
X137993641Y-96907500D02*
X137686359Y-96907500D01*
X137993641Y-97667500D02*
X137686359Y-97667500D01*
%TO.C,C7*%
X140440000Y-88888748D02*
X140440000Y-90311252D01*
X142260000Y-88888748D02*
X142260000Y-90311252D01*
%TO.C,J1*%
X164950000Y-77800000D02*
X164950000Y-81800000D01*
X165240000Y-76770000D02*
X165240000Y-82790000D01*
X165240000Y-82790000D02*
X173080000Y-82790000D01*
X165820000Y-76770000D02*
X165820000Y-77370000D01*
X165820000Y-77370000D02*
X167420000Y-77370000D01*
X166620000Y-81790000D02*
X166870000Y-81260000D01*
X166620000Y-81790000D02*
X171700000Y-81790000D01*
X166620000Y-82790000D02*
X166620000Y-81790000D01*
X166870000Y-81260000D02*
X171450000Y-81260000D01*
X166870000Y-82790000D02*
X166870000Y-81790000D01*
X167420000Y-77370000D02*
X167420000Y-76770000D01*
X168360000Y-76770000D02*
X168360000Y-77370000D01*
X168360000Y-77370000D02*
X169960000Y-77370000D01*
X169960000Y-77370000D02*
X169960000Y-76770000D01*
X170900000Y-76770000D02*
X170900000Y-77370000D01*
X170900000Y-77370000D02*
X172500000Y-77370000D01*
X171450000Y-81260000D02*
X171700000Y-81790000D01*
X171450000Y-82790000D02*
X171450000Y-81790000D01*
X171700000Y-81790000D02*
X171700000Y-82790000D01*
X172500000Y-77370000D02*
X172500000Y-76770000D01*
X173080000Y-76770000D02*
X165240000Y-76770000D01*
X173080000Y-82790000D02*
X173080000Y-76770000D01*
%TO.C,C8*%
X159159420Y-97590000D02*
X159440580Y-97590000D01*
X159159420Y-98610000D02*
X159440580Y-98610000D01*
%TO.C,U3*%
X167090000Y-93600000D02*
X167090000Y-92100000D01*
X167090000Y-93600000D02*
X167090000Y-95100000D01*
X170310000Y-93600000D02*
X170310000Y-92100000D01*
X170310000Y-93600000D02*
X170310000Y-95100000D01*
X170515000Y-91627500D02*
X170185000Y-91387500D01*
X170515000Y-91147500D01*
X170515000Y-91627500D01*
G36*
X170515000Y-91627500D02*
G01*
X170185000Y-91387500D01*
X170515000Y-91147500D01*
X170515000Y-91627500D01*
G37*
%TO.C,R21*%
X170577500Y-108762258D02*
X170577500Y-108287742D01*
X171622500Y-108762258D02*
X171622500Y-108287742D01*
%TO.C,C14*%
X159134420Y-99290000D02*
X159415580Y-99290000D01*
X159134420Y-100310000D02*
X159415580Y-100310000D01*
%TO.C,R6*%
X135993641Y-96907500D02*
X135686359Y-96907500D01*
X135993641Y-97667500D02*
X135686359Y-97667500D01*
%TO.C,R11*%
X154362742Y-81977500D02*
X154837258Y-81977500D01*
X154362742Y-83022500D02*
X154837258Y-83022500D01*
%TO.C,SW2*%
X128150000Y-109600000D02*
X128150000Y-111100000D01*
X129400000Y-113600000D02*
X133900000Y-113600000D01*
X133900000Y-107100000D02*
X129400000Y-107100000D01*
X135150000Y-111100000D02*
X135150000Y-109600000D01*
%TO.C,C20*%
X136790000Y-103234420D02*
X136790000Y-103515580D01*
X137810000Y-103234420D02*
X137810000Y-103515580D01*
%TO.C,U7*%
X159846249Y-84293749D02*
X159846249Y-83493749D01*
X159846249Y-84293749D02*
X159846249Y-85093749D01*
X162966249Y-84293749D02*
X162966249Y-83493749D01*
X162966249Y-84293749D02*
X162966249Y-85093749D01*
X163246249Y-83233749D02*
X162916249Y-82993749D01*
X163246249Y-82753749D01*
X163246249Y-83233749D01*
G36*
X163246249Y-83233749D02*
G01*
X162916249Y-82993749D01*
X163246249Y-82753749D01*
X163246249Y-83233749D01*
G37*
%TO.C,C13*%
X178340580Y-93590000D02*
X178059420Y-93590000D01*
X178340580Y-94610000D02*
X178059420Y-94610000D01*
%TO.C,D3*%
X128215000Y-83965000D02*
X128215000Y-85435000D01*
X128215000Y-85435000D02*
X130500000Y-85435000D01*
X130500000Y-83965000D02*
X128215000Y-83965000D01*
%TO.C,U5*%
X140705000Y-109075000D02*
X140705000Y-107125000D01*
X140705000Y-109075000D02*
X140705000Y-111025000D01*
X150825000Y-109075000D02*
X150825000Y-107125000D01*
X150825000Y-109075000D02*
X150825000Y-111025000D01*
X151100000Y-106615000D02*
X150770000Y-106375000D01*
X151100000Y-106135000D01*
X151100000Y-106615000D01*
G36*
X151100000Y-106615000D02*
G01*
X150770000Y-106375000D01*
X151100000Y-106135000D01*
X151100000Y-106615000D01*
G37*
%TO.C,R10*%
X154362742Y-83627500D02*
X154837258Y-83627500D01*
X154362742Y-84672500D02*
X154837258Y-84672500D01*
%TO.C,C21*%
X136790000Y-111059420D02*
X136790000Y-111340580D01*
X137810000Y-111059420D02*
X137810000Y-111340580D01*
%TO.C,J3*%
X153590000Y-106670000D02*
X161330000Y-106670000D01*
X153590000Y-109270000D02*
X153590000Y-106670000D01*
X153590000Y-111870000D02*
X153590000Y-110540000D01*
X154920000Y-111870000D02*
X153590000Y-111870000D01*
X156190000Y-109270000D02*
X153590000Y-109270000D01*
X156190000Y-111870000D02*
X156190000Y-109270000D01*
X156190000Y-111870000D02*
X161330000Y-111870000D01*
X161330000Y-111870000D02*
X161330000Y-106670000D01*
%TO.C,R25*%
X144237258Y-93577500D02*
X143762742Y-93577500D01*
X144237258Y-94622500D02*
X143762742Y-94622500D01*
%TO.C,C19*%
X158346249Y-84821829D02*
X158346249Y-84540669D01*
X159366249Y-84821829D02*
X159366249Y-84540669D01*
%TO.C,R8*%
X164262742Y-93277500D02*
X164737258Y-93277500D01*
X164262742Y-94322500D02*
X164737258Y-94322500D01*
%TO.C,R23*%
X164790000Y-108835436D02*
X164790000Y-110289564D01*
X166610000Y-108835436D02*
X166610000Y-110289564D01*
%TO.C,D4*%
X128215000Y-96565000D02*
X128215000Y-98035000D01*
X128215000Y-98035000D02*
X130500000Y-98035000D01*
X130500000Y-96565000D02*
X128215000Y-96565000D01*
%TO.C,C6*%
X139340000Y-95145336D02*
X139340000Y-94929664D01*
X140060000Y-95145336D02*
X140060000Y-94929664D01*
%TO.C,U2*%
X135790000Y-94537500D02*
X135790000Y-93737500D01*
X135790000Y-94537500D02*
X135790000Y-95337500D01*
X138910000Y-94537500D02*
X138910000Y-93737500D01*
X138910000Y-94537500D02*
X138910000Y-95337500D01*
X139190000Y-93477500D02*
X138860000Y-93237500D01*
X139190000Y-92997500D01*
X139190000Y-93477500D01*
G36*
X139190000Y-93477500D02*
G01*
X138860000Y-93237500D01*
X139190000Y-92997500D01*
X139190000Y-93477500D01*
G37*
%TO.C,C4*%
X132320000Y-82110000D02*
X137480000Y-82110000D01*
X132320000Y-82150000D02*
X137480000Y-82150000D01*
X132321000Y-82070000D02*
X137479000Y-82070000D01*
X132322000Y-82030000D02*
X137478000Y-82030000D01*
X132324000Y-81990000D02*
X137476000Y-81990000D01*
X132327000Y-81950000D02*
X137473000Y-81950000D01*
X132331000Y-81910000D02*
X133860000Y-81910000D01*
X132335000Y-81870000D02*
X133860000Y-81870000D01*
X132339000Y-81830000D02*
X133860000Y-81830000D01*
X132344000Y-81790000D02*
X133860000Y-81790000D01*
X132350000Y-81750000D02*
X133860000Y-81750000D01*
X132357000Y-81710000D02*
X133860000Y-81710000D01*
X132364000Y-81670000D02*
X133860000Y-81670000D01*
X132372000Y-81630000D02*
X133860000Y-81630000D01*
X132380000Y-81590000D02*
X133860000Y-81590000D01*
X132389000Y-81550000D02*
X133860000Y-81550000D01*
X132399000Y-81510000D02*
X133860000Y-81510000D01*
X132409000Y-81470000D02*
X133860000Y-81470000D01*
X132420000Y-81429000D02*
X133860000Y-81429000D01*
X132432000Y-81389000D02*
X133860000Y-81389000D01*
X132445000Y-81349000D02*
X133860000Y-81349000D01*
X132458000Y-81309000D02*
X133860000Y-81309000D01*
X132472000Y-81269000D02*
X133860000Y-81269000D01*
X132486000Y-81229000D02*
X133860000Y-81229000D01*
X132502000Y-81189000D02*
X133860000Y-81189000D01*
X132518000Y-81149000D02*
X133860000Y-81149000D01*
X132535000Y-81109000D02*
X133860000Y-81109000D01*
X132552000Y-81069000D02*
X133860000Y-81069000D01*
X132571000Y-81029000D02*
X133860000Y-81029000D01*
X132590000Y-80989000D02*
X133860000Y-80989000D01*
X132610000Y-80949000D02*
X133860000Y-80949000D01*
X132632000Y-80909000D02*
X133860000Y-80909000D01*
X132653000Y-80869000D02*
X133860000Y-80869000D01*
X132676000Y-80829000D02*
X133860000Y-80829000D01*
X132700000Y-80789000D02*
X133860000Y-80789000D01*
X132725000Y-80749000D02*
X133860000Y-80749000D01*
X132751000Y-80709000D02*
X133860000Y-80709000D01*
X132778000Y-80669000D02*
X133860000Y-80669000D01*
X132805000Y-80629000D02*
X133860000Y-80629000D01*
X132835000Y-80589000D02*
X133860000Y-80589000D01*
X132865000Y-80549000D02*
X133860000Y-80549000D01*
X132896000Y-80509000D02*
X133860000Y-80509000D01*
X132929000Y-80469000D02*
X133860000Y-80469000D01*
X132963000Y-80429000D02*
X133860000Y-80429000D01*
X132999000Y-80389000D02*
X133860000Y-80389000D01*
X133036000Y-80349000D02*
X133860000Y-80349000D01*
X133074000Y-80309000D02*
X133860000Y-80309000D01*
X133115000Y-80269000D02*
X133860000Y-80269000D01*
X133157000Y-80229000D02*
X133860000Y-80229000D01*
X133175000Y-84704775D02*
X133675000Y-84704775D01*
X133201000Y-80189000D02*
X133860000Y-80189000D01*
X133247000Y-80149000D02*
X133860000Y-80149000D01*
X133295000Y-80109000D02*
X133860000Y-80109000D01*
X133346000Y-80069000D02*
X133860000Y-80069000D01*
X133400000Y-80029000D02*
X133860000Y-80029000D01*
X133425000Y-84954775D02*
X133425000Y-84454775D01*
X133457000Y-79989000D02*
X133860000Y-79989000D01*
X133517000Y-79949000D02*
X133860000Y-79949000D01*
X133581000Y-79909000D02*
X133860000Y-79909000D01*
X133649000Y-79869000D02*
X133860000Y-79869000D01*
X133722000Y-79829000D02*
X136078000Y-79829000D01*
X133802000Y-79789000D02*
X135998000Y-79789000D01*
X133889000Y-79749000D02*
X135911000Y-79749000D01*
X133985000Y-79709000D02*
X135815000Y-79709000D01*
X134095000Y-79669000D02*
X135705000Y-79669000D01*
X134223000Y-79629000D02*
X135577000Y-79629000D01*
X134382000Y-79589000D02*
X135418000Y-79589000D01*
X134616000Y-79549000D02*
X135184000Y-79549000D01*
X135940000Y-79869000D02*
X136151000Y-79869000D01*
X135940000Y-79909000D02*
X136219000Y-79909000D01*
X135940000Y-79949000D02*
X136283000Y-79949000D01*
X135940000Y-79989000D02*
X136343000Y-79989000D01*
X135940000Y-80029000D02*
X136400000Y-80029000D01*
X135940000Y-80069000D02*
X136454000Y-80069000D01*
X135940000Y-80109000D02*
X136505000Y-80109000D01*
X135940000Y-80149000D02*
X136553000Y-80149000D01*
X135940000Y-80189000D02*
X136599000Y-80189000D01*
X135940000Y-80229000D02*
X136643000Y-80229000D01*
X135940000Y-80269000D02*
X136685000Y-80269000D01*
X135940000Y-80309000D02*
X136726000Y-80309000D01*
X135940000Y-80349000D02*
X136764000Y-80349000D01*
X135940000Y-80389000D02*
X136801000Y-80389000D01*
X135940000Y-80429000D02*
X136837000Y-80429000D01*
X135940000Y-80469000D02*
X136871000Y-80469000D01*
X135940000Y-80509000D02*
X136904000Y-80509000D01*
X135940000Y-80549000D02*
X136935000Y-80549000D01*
X135940000Y-80589000D02*
X136965000Y-80589000D01*
X135940000Y-80629000D02*
X136995000Y-80629000D01*
X135940000Y-80669000D02*
X137022000Y-80669000D01*
X135940000Y-80709000D02*
X137049000Y-80709000D01*
X135940000Y-80749000D02*
X137075000Y-80749000D01*
X135940000Y-80789000D02*
X137100000Y-80789000D01*
X135940000Y-80829000D02*
X137124000Y-80829000D01*
X135940000Y-80869000D02*
X137147000Y-80869000D01*
X135940000Y-80909000D02*
X137168000Y-80909000D01*
X135940000Y-80949000D02*
X137190000Y-80949000D01*
X135940000Y-80989000D02*
X137210000Y-80989000D01*
X135940000Y-81029000D02*
X137229000Y-81029000D01*
X135940000Y-81069000D02*
X137248000Y-81069000D01*
X135940000Y-81109000D02*
X137265000Y-81109000D01*
X135940000Y-81149000D02*
X137282000Y-81149000D01*
X135940000Y-81189000D02*
X137298000Y-81189000D01*
X135940000Y-81229000D02*
X137314000Y-81229000D01*
X135940000Y-81269000D02*
X137328000Y-81269000D01*
X135940000Y-81309000D02*
X137342000Y-81309000D01*
X135940000Y-81349000D02*
X137355000Y-81349000D01*
X135940000Y-81389000D02*
X137368000Y-81389000D01*
X135940000Y-81429000D02*
X137380000Y-81429000D01*
X135940000Y-81470000D02*
X137391000Y-81470000D01*
X135940000Y-81510000D02*
X137401000Y-81510000D01*
X135940000Y-81550000D02*
X137411000Y-81550000D01*
X135940000Y-81590000D02*
X137420000Y-81590000D01*
X135940000Y-81630000D02*
X137428000Y-81630000D01*
X135940000Y-81670000D02*
X137436000Y-81670000D01*
X135940000Y-81710000D02*
X137443000Y-81710000D01*
X135940000Y-81750000D02*
X137450000Y-81750000D01*
X135940000Y-81790000D02*
X137456000Y-81790000D01*
X135940000Y-81830000D02*
X137461000Y-81830000D01*
X135940000Y-81870000D02*
X137465000Y-81870000D01*
X135940000Y-81910000D02*
X137469000Y-81910000D01*
X137520000Y-82150000D02*
G75*
G02*
X132280000Y-82150000I-2620000J0D01*
G01*
X132280000Y-82150000D02*
G75*
G02*
X137520000Y-82150000I2620000J0D01*
G01*
%TO.C,R22*%
X174537258Y-95177500D02*
X174062742Y-95177500D01*
X174537258Y-96222500D02*
X174062742Y-96222500D01*
%TO.C,C16*%
X163421249Y-83790669D02*
X163421249Y-84071829D01*
X164441249Y-83790669D02*
X164441249Y-84071829D01*
%TO.C,R27*%
X136777500Y-100412258D02*
X136777500Y-99937742D01*
X137822500Y-100412258D02*
X137822500Y-99937742D01*
%TO.C,J4*%
X139450000Y-78470000D02*
X139450000Y-81130000D01*
X147130000Y-78470000D02*
X139450000Y-78470000D01*
X147130000Y-78470000D02*
X147130000Y-81130000D01*
X147130000Y-81130000D02*
X139450000Y-81130000D01*
X148400000Y-78470000D02*
X149730000Y-78470000D01*
X149730000Y-78470000D02*
X149730000Y-79800000D01*
%TO.C,J7*%
X121090000Y-86290000D02*
X121090000Y-95520000D01*
X121090000Y-95520000D02*
X130510000Y-95520000D01*
X124400000Y-86290000D02*
X124400000Y-95520000D01*
X130510000Y-86290000D02*
X121090000Y-86290000D01*
X130510000Y-86290000D02*
X130510000Y-87950000D01*
X130510000Y-90050000D02*
X130510000Y-91760000D01*
X130510000Y-95520000D02*
X130510000Y-93860000D01*
X131200000Y-89000000D02*
X131800000Y-88700000D01*
X131800000Y-88700000D02*
X131800000Y-89300000D01*
X131800000Y-89300000D02*
X131200000Y-89000000D01*
%TO.C,L1*%
X136997936Y-86740000D02*
X138202064Y-86740000D01*
X136997936Y-89460000D02*
X138202064Y-89460000D01*
%TO.C,U4*%
X180820000Y-91300000D02*
X180820000Y-87700000D01*
X176620000Y-88390000D02*
G75*
G02*
X177871629Y-87144542I2350000J-1110000D01*
G01*
X177866158Y-91867199D02*
G75*
G02*
X176620000Y-90640000I1103842J2367199D01*
G01*
X180092795Y-87175816D02*
G75*
G02*
X180820000Y-87700000I-1122795J-2324184D01*
G01*
X180820000Y-91300000D02*
G75*
G02*
X180092795Y-91824184I-1850000J1800000D01*
G01*
D13*
%TO.C,U1*%
X148375000Y-94065000D02*
X148375000Y-94290000D01*
X148375000Y-94065000D02*
X148700000Y-94065000D01*
X148375000Y-101315000D02*
X148375000Y-100990000D01*
X148375000Y-101315000D02*
X148700000Y-101315000D01*
X155625000Y-94065000D02*
X155300000Y-94065000D01*
X155625000Y-94065000D02*
X155625000Y-94390000D01*
X155625000Y-101315000D02*
X155300000Y-101315000D01*
X155625000Y-101315000D02*
X155625000Y-100990000D01*
D12*
X147610000Y-94350000D02*
X147270000Y-93880000D01*
X147950000Y-93880000D01*
X147610000Y-94350000D01*
G36*
X147610000Y-94350000D02*
G01*
X147270000Y-93880000D01*
X147950000Y-93880000D01*
X147610000Y-94350000D01*
G37*
%TO.C,SW1*%
X128100000Y-101650000D02*
X128100000Y-103150000D01*
X129350000Y-105650000D02*
X133850000Y-105650000D01*
X133850000Y-99150000D02*
X129350000Y-99150000D01*
X135100000Y-103150000D02*
X135100000Y-101650000D01*
%TO.C,C10*%
X159084420Y-94190000D02*
X159365580Y-94190000D01*
X159084420Y-95210000D02*
X159365580Y-95210000D01*
%TO.C,U6*%
X166815000Y-104100000D02*
X166815000Y-102600000D01*
X166815000Y-104100000D02*
X166815000Y-105600000D01*
X170035000Y-104100000D02*
X170035000Y-102600000D01*
X170035000Y-104100000D02*
X170035000Y-105600000D01*
X170240000Y-102127500D02*
X169910000Y-101887500D01*
X170240000Y-101647500D01*
X170240000Y-102127500D01*
G36*
X170240000Y-102127500D02*
G01*
X169910000Y-101887500D01*
X170240000Y-101647500D01*
X170240000Y-102127500D01*
G37*
%TO.C,J2*%
X151570000Y-78470000D02*
X151570000Y-81130000D01*
X159250000Y-78470000D02*
X151570000Y-78470000D01*
X159250000Y-78470000D02*
X159250000Y-81130000D01*
X159250000Y-81130000D02*
X151570000Y-81130000D01*
X160520000Y-78470000D02*
X161850000Y-78470000D01*
X161850000Y-78470000D02*
X161850000Y-79800000D01*
%TD*%
M02*
