%TF.GenerationSoftware,KiCad,Pcbnew,8.0.3*%
%TF.CreationDate,2025-09-27T19:59:55+12:00*%
%TF.ProjectId,aircon-control,61697263-6f6e-42d6-936f-6e74726f6c2e,rev?*%
%TF.SameCoordinates,Original*%
%TF.FileFunction,Soldermask,Bot*%
%TF.FilePolarity,Negative*%
%FSLAX46Y46*%
G04 Gerber Fmt 4.6, Leading zero omitted, Abs format (unit mm)*
G04 Created by KiCad (PCBNEW 8.0.3) date 2025-09-27 19:59:55*
%MOMM*%
%LPD*%
G01*
G04 APERTURE LIST*
G04 Aperture macros list*
%AMRoundRect*
0 Rectangle with rounded corners*
0 $1 Rounding radius*
0 $2 $3 $4 $5 $6 $7 $8 $9 X,Y pos of 4 corners*
0 Add a 4 corners polygon primitive as box body*
4,1,4,$2,$3,$4,$5,$6,$7,$8,$9,$2,$3,0*
0 Add four circle primitives for the rounded corners*
1,1,$1+$1,$2,$3*
1,1,$1+$1,$4,$5*
1,1,$1+$1,$6,$7*
1,1,$1+$1,$8,$9*
0 Add four rect primitives between the rounded corners*
20,1,$1+$1,$2,$3,$4,$5,0*
20,1,$1+$1,$4,$5,$6,$7,0*
20,1,$1+$1,$6,$7,$8,$9,0*
20,1,$1+$1,$8,$9,$2,$3,0*%
G04 Aperture macros list end*
%ADD10RoundRect,0.250000X-0.650000X-1.550000X0.650000X-1.550000X0.650000X1.550000X-0.650000X1.550000X0*%
%ADD11O,1.800000X3.600000*%
%ADD12C,3.200000*%
%ADD13C,1.440000*%
%ADD14RoundRect,0.250000X-0.620000X-0.845000X0.620000X-0.845000X0.620000X0.845000X-0.620000X0.845000X0*%
%ADD15O,1.740000X2.190000*%
%ADD16C,2.000000*%
%ADD17R,1.700000X1.700000*%
%ADD18O,1.700000X1.700000*%
%ADD19R,1.600000X1.600000*%
%ADD20C,1.600000*%
%ADD21RoundRect,0.250000X-1.550000X0.650000X-1.550000X-0.650000X1.550000X-0.650000X1.550000X0.650000X0*%
%ADD22O,3.600000X1.800000*%
%ADD23R,1.500000X1.500000*%
%ADD24C,1.500000*%
G04 APERTURE END LIST*
D10*
%TO.C,J6*%
X140090000Y-118300000D03*
D11*
X143900000Y-118300000D03*
X147710000Y-118300000D03*
X151520000Y-118300000D03*
X155330000Y-118300000D03*
X159140000Y-118300000D03*
X162950000Y-118300000D03*
X166760000Y-118300000D03*
%TD*%
D12*
%TO.C,H3*%
X128850000Y-80000000D03*
%TD*%
%TO.C,H4*%
X128850000Y-118000000D03*
%TD*%
D13*
%TO.C,RV1*%
X178500000Y-99150000D03*
X178500000Y-101690000D03*
X178500000Y-104230000D03*
%TD*%
D14*
%TO.C,J1*%
X166620000Y-79800000D03*
D15*
X169160000Y-79800000D03*
X171700000Y-79800000D03*
%TD*%
D16*
%TO.C,SW2*%
X128400000Y-108100000D03*
X134900000Y-108100000D03*
X128400000Y-112600000D03*
X134900000Y-112600000D03*
%TD*%
D12*
%TO.C,H2*%
X179000000Y-80000000D03*
%TD*%
D17*
%TO.C,J3*%
X154920000Y-110540000D03*
D18*
X154920000Y-108000000D03*
X157460000Y-110540000D03*
X157460000Y-108000000D03*
X160000000Y-110540000D03*
X160000000Y-108000000D03*
%TD*%
D19*
%TO.C,C4*%
X134900000Y-83400000D03*
D20*
X134900000Y-80900000D03*
%TD*%
D17*
%TO.C,J4*%
X148400000Y-79800000D03*
D18*
X145860000Y-79800000D03*
X143320000Y-79800000D03*
X140780000Y-79800000D03*
%TD*%
D21*
%TO.C,J7*%
X129200000Y-89000000D03*
D22*
X129200000Y-92810000D03*
%TD*%
D23*
%TO.C,U4*%
X178970000Y-92040000D03*
D24*
X176430000Y-89500000D03*
X178970000Y-86960000D03*
%TD*%
D16*
%TO.C,SW1*%
X128350000Y-100150000D03*
X134850000Y-100150000D03*
X128350000Y-104650000D03*
X134850000Y-104650000D03*
%TD*%
D12*
%TO.C,H1*%
X179000000Y-118000000D03*
%TD*%
D17*
%TO.C,J2*%
X160520000Y-79800000D03*
D18*
X157980000Y-79800000D03*
X155440000Y-79800000D03*
X152900000Y-79800000D03*
%TD*%
M02*
