M48
; DRILL file {KiCad 8.0.3} date 2025-09-27T19:59:59+1200
; FORMAT={-:-/ absolute / metric / decimal}
; #@! TF.CreationDate,2025-09-27T19:59:59+12:00
; #@! TF.GenerationSoftware,Kicad,Pcbnew,8.0.3
; #@! TF.FileFunction,Plated,1,2,PTH
FMAT,2
METRIC
; #@! TA.AperFunction,Plated,PTH,ViaDrill
T1C0.300
; #@! TA.AperFunction,Plated,PTH,ComponentDrill
T2C0.800
; #@! TA.AperFunction,Plated,PTH,ComponentDrill
T3C1.000
; #@! TA.AperFunction,Plated,PTH,ComponentDrill
T4C1.100
; #@! TA.AperFunction,Plated,PTH,ComponentDrill
T5C1.190
; #@! TA.AperFunction,Plated,PTH,ComponentDrill
T6C1.200
%
G90
G05
T1
X128.8Y-85.95
X135.4Y-96.42
X136.6Y-85.35
X139.15Y-93.5
X139.55Y-92.92
X139.8Y-113.7
X139.85Y-90.42
X139.85Y-91.32
X139.85Y-92.22
X140.1Y-104.9
X140.1Y-105.8
X140.1Y-106.6
X140.1Y-107.5
X140.7Y-92.2
X140.9Y-104.9
X141.5Y-92.2
X141.7Y-104.9
X142.6Y-115.1
X143.1Y-97.7
X143.1Y-99.0
X143.7Y-93.1
X144.4Y-108.6
X144.6Y-91.1
X145.0Y-96.1
X145.5Y-115.2
X145.8Y-92.6
X145.8Y-93.4
X145.8Y-96.1
X145.9Y-83.7
X147.0Y-91.0
X147.4Y-108.6
X148.0Y-88.3
X149.1Y-96.5
X149.1Y-98.1
X149.5Y-116.6
X149.7Y-83.8
X150.075Y-85.4
X150.8Y-99.9
X152.0Y-88.1
X152.7Y-95.2
X153.3Y-116.2
X154.0Y-100.5
X154.0Y-105.2
X154.5Y-99.3
X154.6Y-98.1
X155.975Y-93.775
X156.0Y-91.9
X156.75Y-81.5
X157.1Y-102.0
X157.1Y-115.7
X157.5Y-86.3
X157.6Y-97.3
X158.731Y-82.806
X159.781Y-87.206
X161.0Y-115.5
X161.275Y-101.55
X161.3Y-93.0
X161.3Y-94.7
X161.3Y-96.4
X161.3Y-98.2
X161.3Y-99.6
X161.381Y-84.356
X161.4Y-104.9
X163.906Y-85.731
X164.1Y-106.9
X164.6Y-115.4
X165.775Y-89.4
X166.9Y-91.5
X167.2Y-97.6
X167.4Y-100.5
X168.0Y-82.1
X168.5Y-108.2
X169.5Y-104.5
X169.9Y-110.9
X170.6Y-94.4
X171.1Y-103.5
X171.775Y-97.2
X171.8Y-89.9
X173.9Y-101.1
X174.4Y-92.3
X174.8Y-107.0
X174.825Y-111.5
X175.1Y-97.2
X176.2Y-94.1
X176.7Y-101.7
T2
X134.9Y-80.9
X134.9Y-83.4
X176.43Y-89.5
X178.5Y-99.15
X178.5Y-101.69
X178.5Y-104.23
X178.97Y-86.96
X178.97Y-92.04
T3
X140.78Y-79.8
X143.32Y-79.8
X145.86Y-79.8
X148.4Y-79.8
X152.9Y-79.8
X154.92Y-108.0
X154.92Y-110.54
X155.44Y-79.8
X157.46Y-108.0
X157.46Y-110.54
X157.98Y-79.8
X160.0Y-108.0
X160.0Y-110.54
X160.52Y-79.8
T4
X128.35Y-100.15
X128.35Y-104.65
X128.4Y-108.1
X128.4Y-112.6
X134.85Y-100.15
X134.85Y-104.65
X134.9Y-108.1
X134.9Y-112.6
T5
X166.62Y-79.8
X169.16Y-79.8
X171.7Y-79.8
T6
X129.2Y-89.0
X129.2Y-92.81
X140.09Y-118.3
X143.9Y-118.3
X147.71Y-118.3
X151.52Y-118.3
X155.33Y-118.3
X159.14Y-118.3
X162.95Y-118.3
X166.76Y-118.3
M30
